<svg viewBox="0 0 26 26" xmlns="http://www.w3.org/2000/svg"><g id="gooseberry">
<g>
<path d="M20.9,10.8    c-1.7-2.9-5-4.1-7.4-2.7c-1.1,0.7-1.9,1.8-2.2,3.1c1.8,0.9,3.1,3.1,3.1,5.5c0,0.5-0.1,1-0.2,1.4c1.7,1.1,3.7,1.3,5.3,0.4    C21.9,17.2,22.6,13.7,20.9,10.8z" fill="none" stroke="#92CE46" stroke-linecap="round" stroke-linejoin="round" stroke-miterlimit="10"/>
<path d="M11.3,11.3    c-0.6-0.3-1.3-0.5-2-0.5c-2.8,0-5.1,2.7-5.1,6c0,3.3,2.3,6,5.1,6c2.4,0,4.4-2,4.9-4.6c0.1-0.5,0.2-0.9,0.2-1.4    C14.4,14.3,13.1,12.2,11.3,11.3z" fill="none" stroke="#92CE46" stroke-linecap="round" stroke-linejoin="round" stroke-miterlimit="10"/>
<path d="M9.3,21.9    c0,0,0.8,1.6,0,2.4" fill="none" stroke="#92CE46" stroke-linecap="round" stroke-linejoin="round" stroke-miterlimit="10"/>
<path d="M18.9,17.6    c0,0,0.1,1.8,1.2,2.1" fill="none" stroke="#92CE46" stroke-linecap="round" stroke-linejoin="round" stroke-miterlimit="10"/>
<path d="M9.3,11.7    c0,0,0.5-4.9,2-7.5" fill="none" stroke="#92CE46" stroke-linecap="round" stroke-linejoin="round" stroke-miterlimit="10"/>
<path d="M11.3,1.6v2.6    c0,0,3.1,3,3.1,4.4" fill="none" stroke="#92CE46" stroke-linecap="round" stroke-linejoin="round" stroke-miterlimit="10"/>
</g>
</g></svg>