<?xml version="1.0" encoding="UTF-8" standalone="no"?>
<!-- Generator: Adobe Illustrator 19.1.0, SVG Export Plug-In . SVG Version: 6.00 Build 0)  -->

<svg
   version="1.2"
   x="0px"
   y="0px"
   viewBox="0 0 26 26"
   xml:space="preserve"
   id="svg441"
   sodipodi:docname="red cherry.svg"
   inkscape:version="1.4 (e7c3feb1, 2024-10-09)"
   xmlns:inkscape="http://www.inkscape.org/namespaces/inkscape"
   xmlns:sodipodi="http://sodipodi.sourceforge.net/DTD/sodipodi-0.dtd"
   xmlns="http://www.w3.org/2000/svg"
   xmlns:svg="http://www.w3.org/2000/svg"><defs
   id="defs441" /><sodipodi:namedview
   id="namedview441"
   pagecolor="#ffffff"
   bordercolor="#000000"
   borderopacity="0.25"
   inkscape:showpageshadow="2"
   inkscape:pageopacity="0.0"
   inkscape:pagecheckerboard="0"
   inkscape:deskcolor="#d1d1d1"
   inkscape:zoom="38.807692"
   inkscape:cx="13"
   inkscape:cy="13"
   inkscape:window-width="1200"
   inkscape:window-height="1186"
   inkscape:window-x="0"
   inkscape:window-y="25"
   inkscape:window-maximized="0"
   inkscape:current-layer="svg441" />


































































<g
   id="red_cherry">
	<path
   fill="none"
   stroke="#F9263B"
   stroke-linecap="round"
   stroke-linejoin="round"
   stroke-miterlimit="10"
   d="M5.4,9.8   c-0.2,0-1,0.1-1.2,0c-0.3-0.3,0-1.7,0.1-2C4.5,6.7,5,5.7,5.9,5c0.9-0.7,2-1.1,3.1-1.2c0.2,0,1-0.2,1.2,0c0.3,0.3,0,1.7-0.1,2   c-0.2,1-0.8,2.1-1.6,2.8C7.9,9.1,6.6,9.6,5.4,9.8z"
   id="path438" />
	<path
   fill="none"
   stroke="#F9263B"
   stroke-linecap="round"
   stroke-linejoin="round"
   stroke-miterlimit="10"
   d="M20.9,15.3   c-0.5-0.5-1.2-0.7-1.9-0.7c-0.6,0-1.2,0.2-1.7,0.6c-0.1,0-0.1,0.1-0.2,0.1c-0.1,0.1-0.2,0.1-0.4,0.1c-0.1,0-0.3-0.1-0.4-0.1   c-0.1,0-0.1-0.1-0.2-0.1c-0.5-0.4-1.1-0.6-1.7-0.6c-0.6,0-1.1,0.2-1.5,0.5c0.1,0.1,0.3,0.2,0.4,0.3c0.6,0.5,0.9,1.2,0.9,2.1v0.5   c0,1.1-0.5,2.1-1.3,2.9c0.9,0.9,2.3,1.5,3.8,1.5c2.8,0,5-2,5-4.4v-0.5C21.8,16.6,21.5,15.8,20.9,15.3z"
   id="path439" />
	<path
   fill="none"
   stroke="#F9263B"
   stroke-linecap="round"
   stroke-linejoin="round"
   stroke-miterlimit="10"
   d="M13.4,15.3   c-0.1-0.1-0.2-0.2-0.4-0.3c-0.4-0.3-1-0.5-1.5-0.5c-0.6,0-1.2,0.2-1.7,0.6c-0.1,0-0.1,0.1-0.2,0.1c-0.1,0.1-0.2,0.1-0.4,0.1   c-0.1,0-0.3-0.1-0.4-0.1c-0.1,0-0.1-0.1-0.2-0.1c-0.5-0.4-1.1-0.6-1.7-0.6c-0.7,0-1.3,0.3-1.8,0.7c-0.6,0.5-1,1.3-1,2.1   c0,0.1,0,0.4,0,0.5c0,2.4,2.3,4.4,5,4.4c1.5,0,2.9-0.6,3.8-1.5c0.8-0.8,1.3-1.8,1.3-2.9v-0.5C14.3,16.6,13.9,15.8,13.4,15.3z"
   id="path440" />
	<path
   fill="none"
   stroke="#F9263B"
   stroke-linecap="round"
   stroke-linejoin="round"
   stroke-miterlimit="10"
   d="M9.3,14.6   c0,0,2-3.2,2.4-10.7c0,0,5,4.4,5,10.7"
   id="path441" />
</g>
</svg>
