<?xml version="1.0" encoding="UTF-8" standalone="no"?>
<!-- Generator: Adobe Illustrator 19.1.0, SVG Export Plug-In . SVG Version: 6.00 Build 0)  -->

<svg
   version="1.2"
   x="0px"
   y="0px"
   viewBox="0 0 26 26"
   xml:space="preserve"
   id="svg198"
   sodipodi:docname="kiwi.svg"
   inkscape:version="1.4 (e7c3feb1, 2024-10-09)"
   xmlns:inkscape="http://www.inkscape.org/namespaces/inkscape"
   xmlns:sodipodi="http://sodipodi.sourceforge.net/DTD/sodipodi-0.dtd"
   xmlns="http://www.w3.org/2000/svg"
   xmlns:svg="http://www.w3.org/2000/svg"><defs
   id="defs198" /><sodipodi:namedview
   id="namedview198"
   pagecolor="#ffffff"
   bordercolor="#000000"
   borderopacity="0.25"
   inkscape:showpageshadow="2"
   inkscape:pageopacity="0.0"
   inkscape:pagecheckerboard="0"
   inkscape:deskcolor="#d1d1d1"
   inkscape:zoom="38.807692"
   inkscape:cx="13"
   inkscape:cy="13"
   inkscape:window-width="1200"
   inkscape:window-height="1186"
   inkscape:window-x="0"
   inkscape:window-y="25"
   inkscape:window-maximized="0"
   inkscape:current-layer="svg198" />























<g
   id="gooseberry">
	<g
   id="g198">
		<path
   fill="none"
   stroke="#92CE46"
   stroke-linecap="round"
   stroke-linejoin="round"
   stroke-miterlimit="10"
   d="M20.9,10.8    c-1.7-2.9-5-4.1-7.4-2.7c-1.1,0.7-1.9,1.8-2.2,3.1c1.8,0.9,3.1,3.1,3.1,5.5c0,0.5-0.1,1-0.2,1.4c1.7,1.1,3.7,1.3,5.3,0.4    C21.9,17.2,22.6,13.7,20.9,10.8z"
   id="path193" />
		<path
   fill="none"
   stroke="#92CE46"
   stroke-linecap="round"
   stroke-linejoin="round"
   stroke-miterlimit="10"
   d="M11.3,11.3    c-0.6-0.3-1.3-0.5-2-0.5c-2.8,0-5.1,2.7-5.1,6c0,3.3,2.3,6,5.1,6c2.4,0,4.4-2,4.9-4.6c0.1-0.5,0.2-0.9,0.2-1.4    C14.4,14.3,13.1,12.2,11.3,11.3z"
   id="path194" />
		<path
   fill="none"
   stroke="#92CE46"
   stroke-linecap="round"
   stroke-linejoin="round"
   stroke-miterlimit="10"
   d="M9.3,21.9    c0,0,0.8,1.6,0,2.4"
   id="path195" />
		<path
   fill="none"
   stroke="#92CE46"
   stroke-linecap="round"
   stroke-linejoin="round"
   stroke-miterlimit="10"
   d="M18.9,17.6    c0,0,0.1,1.8,1.2,2.1"
   id="path196" />
		<path
   fill="none"
   stroke="#92CE46"
   stroke-linecap="round"
   stroke-linejoin="round"
   stroke-miterlimit="10"
   d="M9.3,11.7    c0,0,0.5-4.9,2-7.5"
   id="path197" />
		<path
   fill="none"
   stroke="#92CE46"
   stroke-linecap="round"
   stroke-linejoin="round"
   stroke-miterlimit="10"
   d="M11.3,1.6v2.6    c0,0,3.1,3,3.1,4.4"
   id="path198" />
	</g>
</g>
</svg>
