<?xml version="1.0" encoding="utf-8"?>
<!-- Generator: Adobe Illustrator 19.1.0, SVG Export Plug-In . SVG Version: 6.00 Build 0)  -->
<svg version="1.2" baseProfile="tiny" xmlns="http://www.w3.org/2000/svg" xmlns:xlink="http://www.w3.org/1999/xlink" x="0px"
	 y="0px" viewBox="0 0 26 26" xml:space="preserve">
<g id="ruler">
</g>
<g id="lilac_1_">
	<g>
		<g>
			<path fill="none" stroke="#C48BC3" stroke-linecap="round" stroke-linejoin="round" stroke-miterlimit="10" d="M5.7,24.4
				c12.8,0,10.1-19,10.1-19"/>
			<path fill="none" stroke="#C48BC3" stroke-linecap="round" stroke-linejoin="round" stroke-miterlimit="10" d="M15.1,20.9
				c-1.2,1-1.7,1.8-4,2"/>
			<path fill="none" stroke="#C48BC3" stroke-linecap="round" stroke-linejoin="round" stroke-miterlimit="10" d="M8,17.8
				c0,0-1.6,4.1,1.3,6"/>
			<path fill="none" stroke="#C48BC3" stroke-linecap="round" stroke-linejoin="round" stroke-miterlimit="10" d="M11.5,11.6
				c0.7,2.4,2.1,3.6,3.4,4.9"/>
			<path fill="#FEFEFE" d="M12,15.2c-0.5,0-1,0.1-1.5,0.3c0.2-0.5,0.3-1,0.3-1.5c0-0.7-0.1-1.1-1-1.7c-0.9,0.6-1,1-1,1.7
				c0,0.5,0.1,1,0.3,1.5c-0.5-0.2-1-0.3-1.5-0.3c-0.7,0-1.1,0.1-1.7,1c0.6,0.9,1,1,1.7,1c0.5,0,1-0.1,1.5-0.3
				c-0.2,0.5-0.3,1-0.3,1.5c0,0.7,0.1,1.1,1,1.7c0.9-0.6,1-1,1-1.7c0-0.5-0.1-1-0.3-1.5c0.5,0.2,1,0.3,1.5,0.3c0.7,0,1.1-0.1,1.7-1
				C13.1,15.3,12.7,15.2,12,15.2"/>
			<path fill="none" stroke="#C48BC3" stroke-linecap="round" stroke-linejoin="round" stroke-miterlimit="10" d="M12,15.2
				c-0.5,0-1,0.1-1.5,0.3c0.2-0.5,0.3-1,0.3-1.5c0-0.7-0.1-1.1-1-1.7c-0.9,0.6-1,1-1,1.7c0,0.5,0.1,1,0.3,1.5
				c-0.5-0.2-1-0.3-1.5-0.3c-0.7,0-1.1,0.1-1.7,1c0.6,0.9,1,1,1.7,1c0.5,0,1-0.1,1.5-0.3c-0.2,0.5-0.3,1-0.3,1.5
				c0,0.7,0.1,1.1,1,1.7c0.9-0.6,1-1,1-1.7c0-0.5-0.1-1-0.3-1.5c0.5,0.2,1,0.3,1.5,0.3c0.7,0,1.1-0.1,1.7-1
				C13.1,15.3,12.7,15.2,12,15.2z"/>
			<path fill="#FEFEFE" d="M18.7,18.1c-0.5,0-1,0.1-1.5,0.3c0.2-0.5,0.3-1,0.3-1.5c0-0.7-0.1-1.1-1-1.7c-0.9,0.6-1,1-1,1.7
				c0,0.5,0.1,1,0.3,1.5c-0.5-0.2-1-0.3-1.5-0.3c-0.7,0-1.1,0.1-1.7,1c0.6,0.9,1,1,1.7,1c0.5,0,1-0.1,1.5-0.3
				c-0.2,0.5-0.3,1-0.3,1.5c0,0.7,0.1,1.1,1,1.7c0.9-0.6,1-1,1-1.7c0-0.5-0.1-1-0.3-1.5c0.5,0.2,1,0.3,1.5,0.3c0.7,0,1.1-0.1,1.7-1
				C19.8,18.2,19.4,18.1,18.7,18.1"/>
			<path fill="none" stroke="#C48BC3" stroke-linecap="round" stroke-linejoin="round" stroke-miterlimit="10" d="M18.7,18.1
				c-0.5,0-1,0.1-1.5,0.3c0.2-0.5,0.3-1,0.3-1.5c0-0.7-0.1-1.1-1-1.7c-0.9,0.6-1,1-1,1.7c0,0.5,0.1,1,0.3,1.5
				c-0.5-0.2-1-0.3-1.5-0.3c-0.7,0-1.1,0.1-1.7,1c0.6,0.9,1,1,1.7,1c0.5,0,1-0.1,1.5-0.3c-0.2,0.5-0.3,1-0.3,1.5
				c0,0.7,0.1,1.1,1,1.7c0.9-0.6,1-1,1-1.7c0-0.5-0.1-1-0.3-1.5c0.5,0.2,1,0.3,1.5,0.3c0.7,0,1.1-0.1,1.7-1
				C19.8,18.2,19.4,18.1,18.7,18.1z"/>
			<path fill="#FEFEFE" d="M17.4,9.1c-0.4,0.4-0.7,0.8-0.9,1.3c-0.3-0.5-0.6-1-0.9-1.3c-0.5-0.5-0.9-0.7-2-0.5c-0.2,1,0,1.5,0.5,2
				c0.4,0.4,0.8,0.7,1.3,0.9c-0.5,0.3-1,0.6-1.3,0.9c-0.5,0.5-0.7,0.9-0.5,2c1,0.2,1.4,0,2-0.5c0.4-0.4,0.7-0.8,0.9-1.3
				c0.3,0.5,0.6,1,0.9,1.3c0.5,0.5,0.9,0.7,2,0.5c0.2-1,0-1.4-0.5-2c-0.4-0.4-0.8-0.7-1.3-0.9c0.5-0.3,1-0.6,1.3-0.9
				c0.5-0.5,0.7-0.9,0.5-2C18.3,8.3,17.9,8.5,17.4,9.1"/>
			<path fill="none" stroke="#C48BC3" stroke-linecap="round" stroke-linejoin="round" stroke-miterlimit="10" d="M17.4,9.1
				c-0.4,0.4-0.7,0.8-0.9,1.3c-0.3-0.5-0.6-1-0.9-1.3c-0.5-0.5-0.9-0.7-2-0.5c-0.2,1,0,1.5,0.5,2c0.4,0.4,0.8,0.7,1.3,0.9
				c-0.5,0.3-1,0.6-1.3,0.9c-0.5,0.5-0.7,0.9-0.5,2c1,0.2,1.4,0,2-0.5c0.4-0.4,0.7-0.8,0.9-1.3c0.3,0.5,0.6,1,0.9,1.3
				c0.5,0.5,0.9,0.7,2,0.5c0.2-1,0-1.4-0.5-2c-0.4-0.4-0.8-0.7-1.3-0.9c0.5-0.3,1-0.6,1.3-0.9c0.5-0.5,0.7-0.9,0.5-2
				C18.3,8.3,17.9,8.5,17.4,9.1z"/>
			<path fill="#FEFEFE" d="M15.6,2.8c0,0.4,0.1,0.9,0.2,1.3c-0.4-0.1-0.9-0.2-1.3-0.2c-0.6,0-1,0.1-1.5,0.9c0.5,0.7,0.8,0.9,1.5,0.9
				c0.4,0,0.9-0.1,1.3-0.2c-0.1,0.4-0.2,0.9-0.2,1.3c0,0.6,0.1,1,0.9,1.5c0.7-0.5,0.9-0.8,0.9-1.5c0-0.4-0.1-0.9-0.2-1.3
				c0.4,0.1,0.9,0.2,1.3,0.2c0.6,0,1-0.1,1.5-0.9C19.4,4,19,3.9,18.4,3.9c-0.4,0-0.9,0.1-1.3,0.2c0.1-0.4,0.2-0.9,0.2-1.3
				c0-0.6-0.1-1-0.9-1.5C15.7,1.8,15.6,2.1,15.6,2.8"/>
			<path fill="none" stroke="#C48BC3" stroke-linecap="round" stroke-linejoin="round" stroke-miterlimit="10" d="M15.6,2.8
				c0,0.4,0.1,0.9,0.2,1.3c-0.4-0.1-0.9-0.2-1.3-0.2c-0.6,0-1,0.1-1.5,0.9c0.5,0.7,0.8,0.9,1.5,0.9c0.4,0,0.9-0.1,1.3-0.2
				c-0.1,0.4-0.2,0.9-0.2,1.3c0,0.6,0.1,1,0.9,1.5c0.7-0.5,0.9-0.8,0.9-1.5c0-0.4-0.1-0.9-0.2-1.3c0.4,0.1,0.9,0.2,1.3,0.2
				c0.6,0,1-0.1,1.5-0.9C19.4,4,19,3.9,18.4,3.9c-0.4,0-0.9,0.1-1.3,0.2c0.1-0.4,0.2-0.9,0.2-1.3c0-0.6-0.1-1-0.9-1.5
				C15.7,1.8,15.6,2.1,15.6,2.8z"/>
			<path fill="#FEFEFE" d="M10.4,7C10.2,7.3,9.9,7.6,9.7,8C9.5,7.6,9.2,7.2,8.9,7C8.4,6.5,8.1,6.3,7.2,6.5c-0.2,0.9,0,1.2,0.4,1.7
				C8,8.5,8.4,8.7,8.8,8.9C8.4,9.2,8,9.4,7.7,9.7c-0.4,0.4-0.6,0.8-0.4,1.7c0.9,0.2,1.2,0,1.7-0.4c0.3-0.3,0.6-0.7,0.8-1.1
				c0.2,0.4,0.5,0.8,0.8,1.1c0.5,0.5,0.8,0.6,1.7,0.4c0.2-0.9,0-1.2-0.4-1.7c-0.3-0.3-0.7-0.6-1.1-0.8c0.4-0.2,0.8-0.5,1.1-0.8
				c0.4-0.5,0.6-0.8,0.4-1.7C11.2,6.3,10.9,6.5,10.4,7"/>
			<path fill="none" stroke="#C48BC3" stroke-linecap="round" stroke-linejoin="round" stroke-miterlimit="10" d="M10.4,7
				C10.2,7.3,9.9,7.6,9.7,8C9.5,7.6,9.2,7.2,8.9,7C8.4,6.5,8.1,6.3,7.2,6.5c-0.2,0.9,0,1.2,0.4,1.7C8,8.5,8.4,8.7,8.8,8.9
				C8.4,9.2,8,9.4,7.7,9.7c-0.4,0.4-0.6,0.8-0.4,1.7c0.9,0.2,1.2,0,1.7-0.4c0.3-0.3,0.6-0.7,0.8-1.1c0.2,0.4,0.5,0.8,0.8,1.1
				c0.5,0.5,0.8,0.6,1.7,0.4c0.2-0.9,0-1.2-0.4-1.7c-0.3-0.3-0.7-0.6-1.1-0.8c0.4-0.2,0.8-0.5,1.1-0.8c0.4-0.5,0.6-0.8,0.4-1.7
				C11.2,6.3,10.9,6.5,10.4,7z"/>
		</g>
		<g>
			<path fill="#C48BC3" d="M10,16.2c0,0.2-0.2,0.4-0.4,0.4c-0.2,0-0.3-0.2-0.3-0.4c0-0.2,0.2-0.3,0.3-0.3C9.9,15.8,10,16,10,16.2"/>
			<path fill="#C48BC3" d="M16.8,19.1c0,0.2-0.2,0.4-0.4,0.4c-0.2,0-0.3-0.2-0.3-0.4c0-0.2,0.2-0.3,0.3-0.3
				C16.6,18.7,16.8,18.9,16.8,19.1"/>
			<path fill="#C48BC3" d="M16.7,11.2c0.1,0.1,0.1,0.4,0,0.5c-0.1,0.1-0.4,0.1-0.5,0c-0.1-0.1-0.1-0.4,0-0.5
				C16.3,11,16.5,11,16.7,11.2"/>
			<path fill="#C48BC3" d="M16.6,4.7c0,0.1-0.1,0.2-0.2,0.2c-0.1,0-0.2-0.1-0.2-0.2c0-0.1,0.1-0.2,0.2-0.2
				C16.5,4.5,16.6,4.6,16.6,4.7"/>
			<path fill="#C48BC3" d="M9.9,8.9c0,0.1-0.1,0.2-0.2,0.2S9.5,9,9.5,8.9c0-0.1,0.1-0.2,0.2-0.2S9.9,8.8,9.9,8.9"/>
		</g>
	</g>
</g>
<g id="Layer_3">
</g>
</svg>
