<svg viewBox="0 0 26 26" xmlns="http://www.w3.org/2000/svg"><g fill="none" stroke="#cd7912" stroke-linecap="round" stroke-linejoin="round" stroke-miterlimit="10"><path d="m20.7 6.7s-.1.1-.1.1c-.5.5-.6.4-1.1.9s-.4.6-.9 1.1-.6.4-1.1.9-.6.4-1.1.9-.4.6-.9 1.1"/><path d="m16.7 7.7c.5-.5.4-.6.9-1.1s.6-.4 1.1-.9c.3-.3.4-.4.6-.5"/><path d="m9 18.1c-.5.5-.5.5-1 1s-.4.6-.9 1.1c-.2.2-.4.3-.6.4"/><path d="m5.2 19.3c.2-.2.3-.3.6-.6"/><path d="m5.2 19.3 1.3 1.3"/><path d="m19.3 5.2-1.4-1.4-14.1 14.1 1.4 1.4"/><path d="m6.5 20.6 1.6 1.6 14.1-14.1-1.5-1.4"/><path d="m20.7 6.7-1.4-1.5"/></g></svg>