<svg viewBox="0 0 26 26" xmlns="http://www.w3.org/2000/svg"><g fill="none" stroke="#7b3813" stroke-linecap="round" stroke-linejoin="round" stroke-miterlimit="10"><path d="m15.4 3.9c0 .7.1.7.1 1.4s-.1.7-.1 1.4.2.7.2 1.4-.1.7-.1 1.4-.1.7-.1 1.4.1.7.1 1.4v1.4s0 .7 0 1.4.1.7.1 1.4-.1.7-.1 1.4 0 .7 0 1.4"/><path d="m10.3 19.1c0-.7 0-.7 0-1.4s-.1-.7-.1-1.4.2-.7.2-1.4-.1-.7-.1-1.4.1-.7.1-1.4-.2-.7-.2-1.4.1-.7.1-1.4.1-.7.1-1.4-.1-.7-.1-1.4"/><path d="m13.1 3.9c0 .7-.2.7-.2 1.4s0 .7 0 1.4v1.4 1.4 1.4c0 .7.2.7.2 1.4s-.2.7-.2 1.4.2.7.2 1.4-.2.7-.2 1.4.2.7.2 1.4-.2.7-.2 1.4-.1.7-.1 1.4.1.7.1 1.4"/></g></svg>