<?xml version="1.0" encoding="UTF-8" standalone="no"?>
<!-- Generator: Adobe Illustrator 19.1.0, SVG Export Plug-In . SVG Version: 6.00 Build 0)  -->

<svg
   version="1.2"
   x="0px"
   y="0px"
   viewBox="0 0 26 26"
   xml:space="preserve"
   id="svg354"
   sodipodi:docname="yellow peach.svg"
   inkscape:version="1.4 (e7c3feb1, 2024-10-09)"
   xmlns:inkscape="http://www.inkscape.org/namespaces/inkscape"
   xmlns:sodipodi="http://sodipodi.sourceforge.net/DTD/sodipodi-0.dtd"
   xmlns="http://www.w3.org/2000/svg"
   xmlns:svg="http://www.w3.org/2000/svg"><defs
   id="defs354" /><sodipodi:namedview
   id="namedview354"
   pagecolor="#ffffff"
   bordercolor="#000000"
   borderopacity="0.25"
   inkscape:showpageshadow="2"
   inkscape:pageopacity="0.0"
   inkscape:pagecheckerboard="0"
   inkscape:deskcolor="#d1d1d1"
   inkscape:zoom="38.807692"
   inkscape:cx="13"
   inkscape:cy="13"
   inkscape:window-width="1200"
   inkscape:window-height="1186"
   inkscape:window-x="0"
   inkscape:window-y="25"
   inkscape:window-maximized="0"
   inkscape:current-layer="svg354" />


















































<g
   id="Layer_51"
   style="display:inline">
	<g
   id="g354">
		<path
   fill="none"
   stroke="#fa9101"
   stroke-linecap="round"
   stroke-linejoin="round"
   stroke-miterlimit="10"
   d="m 17.6,7 v 0 c 0,0 0,0 0,0 C 17.7,6.9 17.7,6.8 17.8,6.7 19.4,4.9 19,2.4 19,2.4 v 0 0 c 0,0 -2.5,-0.3 -4.3,1.2 -0.1,0.1 -0.2,0.1 -0.3,0.2 0,0 0,0 0,0 v 0 0 c 0,0 0,0 0,0 C 14.3,3.9 14.3,4 14.2,4.1 12.7,5.9 13,8.4 13,8.4 v 0 0 c 0,0 2.5,0.3 4.3,-1.2 0.1,-0.1 0.2,-0.1 0.3,-0.2 z"
   id="path349" />
		<path
   fill="none"
   stroke="#fa9101"
   stroke-linecap="round"
   stroke-linejoin="round"
   stroke-miterlimit="10"
   d="m 9.7,5.8 c 2.8,0 3.3,2.7 3.3,2.7 v 2.2"
   id="path350" />
		<path
   fill="none"
   stroke="#fa9101"
   stroke-linecap="round"
   stroke-linejoin="round"
   stroke-miterlimit="10"
   d="m 13,10.6 c -0.9,-0.6 -1.9,-1 -3,-1 -3.3,0 -6,3.1 -6,7 0,3.9 2.7,7 6,7 1.1,0 2.1,-0.4 3,-1"
   id="path351" />
		<path
   fill="none"
   stroke="#fa9101"
   stroke-linecap="round"
   stroke-linejoin="round"
   stroke-miterlimit="10"
   d="m 15.8,18.5 c -0.4,1.8 -1.4,3.3 -2.8,4.2"
   id="path352" />
		<path
   fill="none"
   stroke="#fa9101"
   stroke-linecap="round"
   stroke-linejoin="round"
   stroke-miterlimit="10"
   d="m 13,10.6 c 0.4,0.3 0.9,0.7 1.2,1.1"
   id="path353" />
		<path
   fill="none"
   stroke="#fa9101"
   stroke-linecap="round"
   stroke-linejoin="round"
   stroke-miterlimit="10"
   d="m 13,10.6 c 0.9,-0.6 1.9,-1 3,-1 3.3,0 6,3.1 6,7 0,3.9 -2.7,7 -6,7 -1.1,0 -2.1,-0.4 -3,-1"
   id="path354" />
	</g>
</g>
</svg>
