<svg viewBox="0 0 26 26" xmlns="http://www.w3.org/2000/svg"><g id="smoke">
<path d="M12,21.2   c0-2,2.1-2,2.1-4.1c0-2-2.1-2-2.1-4.1c0-2,2.1-2,2.1-4.1c0-2-2.1-2-2.1-4.1" fill="none" stroke="#4C4C4C" stroke-linecap="round" stroke-linejoin="round" stroke-miterlimit="10"/>
<path d="M17.3,17.1   c0-2-2.1-2-2.1-4.1c0-2,2.1-2,2.1-4.1c0-2-2.1-2-2.1-4.1" fill="none" stroke="#4C4C4C" stroke-linecap="round" stroke-linejoin="round" stroke-miterlimit="10"/>
<path d="M8.7,21.2   c0-2,2.1-2,2.1-4.1c0-2-2.1-2-2.1-4.1c0-2,2.1-2,2.1-4.1" fill="none" stroke="#4C4C4C" stroke-linecap="round" stroke-linejoin="round" stroke-miterlimit="10"/>
</g></svg>