<?xml version="1.0" encoding="utf-8"?>
<!-- Generator: Adobe Illustrator 19.1.0, SVG Export Plug-In . SVG Version: 6.00 Build 0)  -->
<svg version="1.2" baseProfile="tiny" xmlns="http://www.w3.org/2000/svg" xmlns:xlink="http://www.w3.org/1999/xlink" x="0px"
	 y="0px" viewBox="0 0 26 26" xml:space="preserve">
<g id="ruler">
</g>
<g id="lilac_1_" display="none">
	<g display="inline">
		<g>
			<path fill="none" stroke="#C48BC3" stroke-linecap="round" stroke-linejoin="round" stroke-miterlimit="10" d="M5.7,24.4
				c12.8,0,10.1-19,10.1-19"/>
			<path fill="none" stroke="#C48BC3" stroke-linecap="round" stroke-linejoin="round" stroke-miterlimit="10" d="M15.1,20.9
				c-1.2,1-1.7,1.8-4,2"/>
			<path fill="none" stroke="#C48BC3" stroke-linecap="round" stroke-linejoin="round" stroke-miterlimit="10" d="M8,17.8
				c0,0-1.6,4.1,1.3,6"/>
			<path fill="none" stroke="#C48BC3" stroke-linecap="round" stroke-linejoin="round" stroke-miterlimit="10" d="M11.5,11.6
				c0.7,2.4,2.1,3.6,3.4,4.9"/>
			<path fill="#FEFEFE" d="M12,15.2c-0.5,0-1,0.1-1.5,0.3c0.2-0.5,0.3-1,0.3-1.5c0-0.7-0.1-1.1-1-1.7c-0.9,0.6-1,1-1,1.7
				c0,0.5,0.1,1,0.3,1.5c-0.5-0.2-1-0.3-1.5-0.3c-0.7,0-1.1,0.1-1.7,1c0.6,0.9,1,1,1.7,1c0.5,0,1-0.1,1.5-0.3
				c-0.2,0.5-0.3,1-0.3,1.5c0,0.7,0.1,1.1,1,1.7c0.9-0.6,1-1,1-1.7c0-0.5-0.1-1-0.3-1.5c0.5,0.2,1,0.3,1.5,0.3c0.7,0,1.1-0.1,1.7-1
				C13.1,15.3,12.7,15.2,12,15.2"/>
			<path fill="none" stroke="#C48BC3" stroke-linecap="round" stroke-linejoin="round" stroke-miterlimit="10" d="M12,15.2
				c-0.5,0-1,0.1-1.5,0.3c0.2-0.5,0.3-1,0.3-1.5c0-0.7-0.1-1.1-1-1.7c-0.9,0.6-1,1-1,1.7c0,0.5,0.1,1,0.3,1.5
				c-0.5-0.2-1-0.3-1.5-0.3c-0.7,0-1.1,0.1-1.7,1c0.6,0.9,1,1,1.7,1c0.5,0,1-0.1,1.5-0.3c-0.2,0.5-0.3,1-0.3,1.5
				c0,0.7,0.1,1.1,1,1.7c0.9-0.6,1-1,1-1.7c0-0.5-0.1-1-0.3-1.5c0.5,0.2,1,0.3,1.5,0.3c0.7,0,1.1-0.1,1.7-1
				C13.1,15.3,12.7,15.2,12,15.2z"/>
			<path fill="#FEFEFE" d="M18.7,18.1c-0.5,0-1,0.1-1.5,0.3c0.2-0.5,0.3-1,0.3-1.5c0-0.7-0.1-1.1-1-1.7c-0.9,0.6-1,1-1,1.7
				c0,0.5,0.1,1,0.3,1.5c-0.5-0.2-1-0.3-1.5-0.3c-0.7,0-1.1,0.1-1.7,1c0.6,0.9,1,1,1.7,1c0.5,0,1-0.1,1.5-0.3
				c-0.2,0.5-0.3,1-0.3,1.5c0,0.7,0.1,1.1,1,1.7c0.9-0.6,1-1,1-1.7c0-0.5-0.1-1-0.3-1.5c0.5,0.2,1,0.3,1.5,0.3c0.7,0,1.1-0.1,1.7-1
				C19.8,18.2,19.4,18.1,18.7,18.1"/>
			<path fill="none" stroke="#C48BC3" stroke-linecap="round" stroke-linejoin="round" stroke-miterlimit="10" d="M18.7,18.1
				c-0.5,0-1,0.1-1.5,0.3c0.2-0.5,0.3-1,0.3-1.5c0-0.7-0.1-1.1-1-1.7c-0.9,0.6-1,1-1,1.7c0,0.5,0.1,1,0.3,1.5
				c-0.5-0.2-1-0.3-1.5-0.3c-0.7,0-1.1,0.1-1.7,1c0.6,0.9,1,1,1.7,1c0.5,0,1-0.1,1.5-0.3c-0.2,0.5-0.3,1-0.3,1.5
				c0,0.7,0.1,1.1,1,1.7c0.9-0.6,1-1,1-1.7c0-0.5-0.1-1-0.3-1.5c0.5,0.2,1,0.3,1.5,0.3c0.7,0,1.1-0.1,1.7-1
				C19.8,18.2,19.4,18.1,18.7,18.1z"/>
			<path fill="#FEFEFE" d="M17.4,9.1c-0.4,0.4-0.7,0.8-0.9,1.3c-0.3-0.5-0.6-1-0.9-1.3c-0.5-0.5-0.9-0.7-2-0.5c-0.2,1,0,1.5,0.5,2
				c0.4,0.4,0.8,0.7,1.3,0.9c-0.5,0.3-1,0.6-1.3,0.9c-0.5,0.5-0.7,0.9-0.5,2c1,0.2,1.4,0,2-0.5c0.4-0.4,0.7-0.8,0.9-1.3
				c0.3,0.5,0.6,1,0.9,1.3c0.5,0.5,0.9,0.7,2,0.5c0.2-1,0-1.4-0.5-2c-0.4-0.4-0.8-0.7-1.3-0.9c0.5-0.3,1-0.6,1.3-0.9
				c0.5-0.5,0.7-0.9,0.5-2C18.3,8.3,17.9,8.5,17.4,9.1"/>
			<path fill="none" stroke="#C48BC3" stroke-linecap="round" stroke-linejoin="round" stroke-miterlimit="10" d="M17.4,9.1
				c-0.4,0.4-0.7,0.8-0.9,1.3c-0.3-0.5-0.6-1-0.9-1.3c-0.5-0.5-0.9-0.7-2-0.5c-0.2,1,0,1.5,0.5,2c0.4,0.4,0.8,0.7,1.3,0.9
				c-0.5,0.3-1,0.6-1.3,0.9c-0.5,0.5-0.7,0.9-0.5,2c1,0.2,1.4,0,2-0.5c0.4-0.4,0.7-0.8,0.9-1.3c0.3,0.5,0.6,1,0.9,1.3
				c0.5,0.5,0.9,0.7,2,0.5c0.2-1,0-1.4-0.5-2c-0.4-0.4-0.8-0.7-1.3-0.9c0.5-0.3,1-0.6,1.3-0.9c0.5-0.5,0.7-0.9,0.5-2
				C18.3,8.3,17.9,8.5,17.4,9.1z"/>
			<path fill="#FEFEFE" d="M15.6,2.8c0,0.4,0.1,0.9,0.2,1.3c-0.4-0.1-0.9-0.2-1.3-0.2c-0.6,0-1,0.1-1.5,0.9c0.5,0.7,0.8,0.9,1.5,0.9
				c0.4,0,0.9-0.1,1.3-0.2c-0.1,0.4-0.2,0.9-0.2,1.3c0,0.6,0.1,1,0.9,1.5c0.7-0.5,0.9-0.8,0.9-1.5c0-0.4-0.1-0.9-0.2-1.3
				c0.4,0.1,0.9,0.2,1.3,0.2c0.6,0,1-0.1,1.5-0.9C19.4,4,19,3.9,18.4,3.9c-0.4,0-0.9,0.1-1.3,0.2c0.1-0.4,0.2-0.9,0.2-1.3
				c0-0.6-0.1-1-0.9-1.5C15.7,1.8,15.6,2.1,15.6,2.8"/>
			<path fill="none" stroke="#C48BC3" stroke-linecap="round" stroke-linejoin="round" stroke-miterlimit="10" d="M15.6,2.8
				c0,0.4,0.1,0.9,0.2,1.3c-0.4-0.1-0.9-0.2-1.3-0.2c-0.6,0-1,0.1-1.5,0.9c0.5,0.7,0.8,0.9,1.5,0.9c0.4,0,0.9-0.1,1.3-0.2
				c-0.1,0.4-0.2,0.9-0.2,1.3c0,0.6,0.1,1,0.9,1.5c0.7-0.5,0.9-0.8,0.9-1.5c0-0.4-0.1-0.9-0.2-1.3c0.4,0.1,0.9,0.2,1.3,0.2
				c0.6,0,1-0.1,1.5-0.9C19.4,4,19,3.9,18.4,3.9c-0.4,0-0.9,0.1-1.3,0.2c0.1-0.4,0.2-0.9,0.2-1.3c0-0.6-0.1-1-0.9-1.5
				C15.7,1.8,15.6,2.1,15.6,2.8z"/>
			<path fill="#FEFEFE" d="M10.4,7C10.2,7.3,9.9,7.6,9.7,8C9.5,7.6,9.2,7.2,8.9,7C8.4,6.5,8.1,6.3,7.2,6.5c-0.2,0.9,0,1.2,0.4,1.7
				C8,8.5,8.4,8.7,8.8,8.9C8.4,9.2,8,9.4,7.7,9.7c-0.4,0.4-0.6,0.8-0.4,1.7c0.9,0.2,1.2,0,1.7-0.4c0.3-0.3,0.6-0.7,0.8-1.1
				c0.2,0.4,0.5,0.8,0.8,1.1c0.5,0.5,0.8,0.6,1.7,0.4c0.2-0.9,0-1.2-0.4-1.7c-0.3-0.3-0.7-0.6-1.1-0.8c0.4-0.2,0.8-0.5,1.1-0.8
				c0.4-0.5,0.6-0.8,0.4-1.7C11.2,6.3,10.9,6.5,10.4,7"/>
			<path fill="none" stroke="#C48BC3" stroke-linecap="round" stroke-linejoin="round" stroke-miterlimit="10" d="M10.4,7
				C10.2,7.3,9.9,7.6,9.7,8C9.5,7.6,9.2,7.2,8.9,7C8.4,6.5,8.1,6.3,7.2,6.5c-0.2,0.9,0,1.2,0.4,1.7C8,8.5,8.4,8.7,8.8,8.9
				C8.4,9.2,8,9.4,7.7,9.7c-0.4,0.4-0.6,0.8-0.4,1.7c0.9,0.2,1.2,0,1.7-0.4c0.3-0.3,0.6-0.7,0.8-1.1c0.2,0.4,0.5,0.8,0.8,1.1
				c0.5,0.5,0.8,0.6,1.7,0.4c0.2-0.9,0-1.2-0.4-1.7c-0.3-0.3-0.7-0.6-1.1-0.8c0.4-0.2,0.8-0.5,1.1-0.8c0.4-0.5,0.6-0.8,0.4-1.7
				C11.2,6.3,10.9,6.5,10.4,7z"/>
		</g>
		<g>
			<path fill="#C48BC3" d="M10,16.2c0,0.2-0.2,0.4-0.4,0.4c-0.2,0-0.3-0.2-0.3-0.4c0-0.2,0.2-0.3,0.3-0.3C9.9,15.8,10,16,10,16.2"/>
			<path fill="#C48BC3" d="M16.8,19.1c0,0.2-0.2,0.4-0.4,0.4c-0.2,0-0.3-0.2-0.3-0.4c0-0.2,0.2-0.3,0.3-0.3
				C16.6,18.7,16.8,18.9,16.8,19.1"/>
			<path fill="#C48BC3" d="M16.7,11.2c0.1,0.1,0.1,0.4,0,0.5c-0.1,0.1-0.4,0.1-0.5,0c-0.1-0.1-0.1-0.4,0-0.5
				C16.3,11,16.5,11,16.7,11.2"/>
			<path fill="#C48BC3" d="M16.6,4.7c0,0.1-0.1,0.2-0.2,0.2c-0.1,0-0.2-0.1-0.2-0.2c0-0.1,0.1-0.2,0.2-0.2
				C16.5,4.5,16.6,4.6,16.6,4.7"/>
			<path fill="#C48BC3" d="M9.9,8.9c0,0.1-0.1,0.2-0.2,0.2S9.5,9,9.5,8.9c0-0.1,0.1-0.2,0.2-0.2S9.9,8.8,9.9,8.9"/>
		</g>
	</g>
</g>
<g id="violet" display="none">
	<g display="inline">
		<path fill="#FEFEFE" d="M18.3,9.6L13,13L7.7,9.7C7.3,9.1,7,8.5,7,7.8c0-1.7,1.3-3,3-3c1,0,2,0.5,2.5,1.3c0,0,0.2,0.4,0.5,0.4
			c0.3,0,0.5-0.4,0.5-0.4C14,5.3,15,4.8,16,4.8c1.7,0,3,1.3,3,3C19,8.5,18.7,9.1,18.3,9.6"/>
		<path fill="none" stroke="#872C92" stroke-linecap="round" stroke-linejoin="round" stroke-miterlimit="10" d="M18.3,9.6L13,13
			L7.7,9.7C7.3,9.1,7,8.5,7,7.8c0-1.7,1.3-3,3-3c1,0,2,0.5,2.5,1.3c0,0,0.2,0.4,0.5,0.4c0.3,0,0.5-0.4,0.5-0.4C14,5.3,15,4.8,16,4.8
			c1.7,0,3,1.3,3,3C19,8.5,18.7,9.1,18.3,9.6z"/>
		<path fill="#FEFEFE" d="M9.9,18.3l3.4-5.3L9.9,7.7C9.4,7.3,8.7,7,8,7c-1.7,0-3,1.3-3,3c0,1,0.5,2,1.3,2.5c0,0,0.4,0.2,0.4,0.5
			c0,0.3-0.4,0.5-0.4,0.5C5.5,14,5,15,5,16c0,1.7,1.3,3,3,3C8.7,19,9.4,18.7,9.9,18.3"/>
		<path fill="none" stroke="#872C92" stroke-linecap="round" stroke-linejoin="round" stroke-miterlimit="10" d="M9.9,18.3l3.4-5.3
			L9.9,7.7C9.4,7.3,8.7,7,8,7c-1.7,0-3,1.3-3,3c0,1,0.5,2,1.3,2.5c0,0,0.4,0.2,0.4,0.5c0,0.3-0.4,0.5-0.4,0.5C5.5,14,5,15,5,16
			c0,1.7,1.3,3,3,3C8.7,19,9.4,18.7,9.9,18.3z"/>
		<path fill="#FEFEFE" d="M16.4,18.3L13,13l3.3-5.3C16.9,7.3,17.5,7,18.2,7c1.7,0,3,1.3,3,3c0,1-0.5,2-1.3,2.5c0,0-0.4,0.2-0.4,0.5
			c0,0.3,0.4,0.5,0.4,0.5c0.8,0.5,1.3,1.5,1.3,2.5c0,1.7-1.3,3-3,3C17.5,19,16.9,18.7,16.4,18.3"/>
		<path fill="none" stroke="#872C92" stroke-linecap="round" stroke-linejoin="round" stroke-miterlimit="10" d="M16.4,18.3L13,13
			l3.3-5.3C16.9,7.3,17.5,7,18.2,7c1.7,0,3,1.3,3,3c0,1-0.5,2-1.3,2.5c0,0-0.4,0.2-0.4,0.5c0,0.3,0.4,0.5,0.4,0.5
			c0.8,0.5,1.3,1.5,1.3,2.5c0,1.7-1.3,3-3,3C17.5,19,16.9,18.7,16.4,18.3z"/>
		<path fill="#FEFEFE" d="M18.3,16.1L13,12.8l-5.3,3.3C7.3,16.6,7,17.3,7,18c0,1.7,1.3,3,3,3c1,0,2-0.5,2.5-1.3c0,0,0.2-0.4,0.5-0.4
			c0.3,0,0.5,0.4,0.5,0.4C14,20.5,15,21,16,21c1.7,0,3-1.3,3-3C19,17.3,18.7,16.6,18.3,16.1"/>
		<path fill="none" stroke="#872C92" stroke-linecap="round" stroke-linejoin="round" stroke-miterlimit="10" d="M18.3,16.1L13,12.8
			l-5.3,3.3C7.3,16.6,7,17.3,7,18c0,1.7,1.3,3,3,3c1,0,2-0.5,2.5-1.3c0,0,0.2-0.4,0.5-0.4c0.3,0,0.5,0.4,0.5,0.4
			C14,20.5,15,21,16,21c1.7,0,3-1.3,3-3C19,17.3,18.7,16.6,18.3,16.1z"/>
		<path fill="#FEFEFE" d="M14.1,12.8c0,0.6-0.5,1.1-1.1,1.1s-1.1-0.5-1.1-1.1c0-0.6,0.5-1.1,1.1-1.1S14.1,12.2,14.1,12.8"/>
		
			<circle fill="none" stroke="#872C92" stroke-linecap="round" stroke-linejoin="round" stroke-miterlimit="10" cx="13" cy="12.8" r="1.1"/>
		<line fill="#FEFEFE" x1="13" y1="15.9" x2="13" y2="17.6"/>
		
			<line fill="none" stroke="#872C92" stroke-linecap="round" stroke-linejoin="round" stroke-miterlimit="10" x1="13" y1="15.9" x2="13" y2="17.6"/>
		<line fill="#FEFEFE" x1="14.3" y1="15.5" x2="15.6" y2="18"/>
		
			<line fill="none" stroke="#872C92" stroke-linecap="round" stroke-linejoin="round" stroke-miterlimit="10" x1="14.3" y1="15.5" x2="15.6" y2="18"/>
		<line fill="#FEFEFE" x1="11.7" y1="15.5" x2="10.4" y2="18"/>
		
			<line fill="none" stroke="#872C92" stroke-linecap="round" stroke-linejoin="round" stroke-miterlimit="10" x1="11.7" y1="15.5" x2="10.4" y2="18"/>
		<line fill="#FEFEFE" x1="13" y1="9.6" x2="13" y2="7.9"/>
		
			<line fill="none" stroke="#872C92" stroke-linecap="round" stroke-linejoin="round" stroke-miterlimit="10" x1="13" y1="9.6" x2="13" y2="7.9"/>
		<line fill="#FEFEFE" x1="16.1" y1="12.8" x2="17.8" y2="12.8"/>
		
			<line fill="none" stroke="#872C92" stroke-linecap="round" stroke-linejoin="round" stroke-miterlimit="10" x1="16.1" y1="12.8" x2="17.8" y2="12.8"/>
		<line fill="#FEFEFE" x1="15.7" y1="11.4" x2="18.2" y2="10.1"/>
		
			<line fill="none" stroke="#872C92" stroke-linecap="round" stroke-linejoin="round" stroke-miterlimit="10" x1="15.7" y1="11.4" x2="18.2" y2="10.1"/>
		<line fill="#FEFEFE" x1="10" y1="12.8" x2="8.3" y2="12.8"/>
		
			<line fill="none" stroke="#872C92" stroke-linecap="round" stroke-linejoin="round" stroke-miterlimit="10" x1="10" y1="12.8" x2="8.3" y2="12.8"/>
		<line fill="#FEFEFE" x1="10.3" y1="11.4" x2="7.9" y2="10.1"/>
		
			<line fill="none" stroke="#872C92" stroke-linecap="round" stroke-linejoin="round" stroke-miterlimit="10" x1="10.3" y1="11.4" x2="7.9" y2="10.1"/>
	</g>
</g>
<g id="violet_copy" display="none">
	<g display="inline">
		<path fill="#FEFEFE" d="M18.3,9.6L13,13L7.7,9.7C7.3,9.1,7,8.5,7,7.8c0-1.7,1.3-3,3-3c1,0,2,0.5,2.5,1.3c0,0,0.2,0.4,0.5,0.4
			c0.3,0,0.5-0.4,0.5-0.4C14,5.3,15,4.8,16,4.8c1.7,0,3,1.3,3,3C19,8.5,18.7,9.1,18.3,9.6"/>
		<path fill="none" stroke="#F4C389" stroke-linecap="round" stroke-linejoin="round" stroke-miterlimit="10" d="M18.3,9.6L13,13
			L7.7,9.7C7.3,9.1,7,8.5,7,7.8c0-1.7,1.3-3,3-3c1,0,2,0.5,2.5,1.3c0,0,0.2,0.4,0.5,0.4c0.3,0,0.5-0.4,0.5-0.4C14,5.3,15,4.8,16,4.8
			c1.7,0,3,1.3,3,3C19,8.5,18.7,9.1,18.3,9.6z"/>
		<path fill="#FEFEFE" d="M9.9,18.3l3.4-5.3L9.9,7.7C9.4,7.3,8.7,7,8,7c-1.7,0-3,1.3-3,3c0,1,0.5,2,1.3,2.5c0,0,0.4,0.2,0.4,0.5
			c0,0.3-0.4,0.5-0.4,0.5C5.5,14,5,15,5,16c0,1.7,1.3,3,3,3C8.7,19,9.4,18.7,9.9,18.3"/>
		<path fill="none" stroke="#F4C389" stroke-linecap="round" stroke-linejoin="round" stroke-miterlimit="10" d="M9.9,18.3l3.4-5.3
			L9.9,7.7C9.4,7.3,8.7,7,8,7c-1.7,0-3,1.3-3,3c0,1,0.5,2,1.3,2.5c0,0,0.4,0.2,0.4,0.5c0,0.3-0.4,0.5-0.4,0.5C5.5,14,5,15,5,16
			c0,1.7,1.3,3,3,3C8.7,19,9.4,18.7,9.9,18.3z"/>
		<path fill="#FEFEFE" d="M16.4,18.3L13,13l3.3-5.3C16.9,7.3,17.5,7,18.2,7c1.7,0,3,1.3,3,3c0,1-0.5,2-1.3,2.5c0,0-0.4,0.2-0.4,0.5
			c0,0.3,0.4,0.5,0.4,0.5c0.8,0.5,1.3,1.5,1.3,2.5c0,1.7-1.3,3-3,3C17.5,19,16.9,18.7,16.4,18.3"/>
		<path fill="none" stroke="#F4C389" stroke-linecap="round" stroke-linejoin="round" stroke-miterlimit="10" d="M16.4,18.3L13,13
			l3.3-5.3C16.9,7.3,17.5,7,18.2,7c1.7,0,3,1.3,3,3c0,1-0.5,2-1.3,2.5c0,0-0.4,0.2-0.4,0.5c0,0.3,0.4,0.5,0.4,0.5
			c0.8,0.5,1.3,1.5,1.3,2.5c0,1.7-1.3,3-3,3C17.5,19,16.9,18.7,16.4,18.3z"/>
		<path fill="#FEFEFE" d="M18.3,16.1L13,12.8l-5.3,3.3C7.3,16.6,7,17.3,7,18c0,1.7,1.3,3,3,3c1,0,2-0.5,2.5-1.3c0,0,0.2-0.4,0.5-0.4
			c0.3,0,0.5,0.4,0.5,0.4C14,20.5,15,21,16,21c1.7,0,3-1.3,3-3C19,17.3,18.7,16.6,18.3,16.1"/>
		<path fill="none" stroke="#F4C389" stroke-linecap="round" stroke-linejoin="round" stroke-miterlimit="10" d="M18.3,16.1L13,12.8
			l-5.3,3.3C7.3,16.6,7,17.3,7,18c0,1.7,1.3,3,3,3c1,0,2-0.5,2.5-1.3c0,0,0.2-0.4,0.5-0.4c0.3,0,0.5,0.4,0.5,0.4
			C14,20.5,15,21,16,21c1.7,0,3-1.3,3-3C19,17.3,18.7,16.6,18.3,16.1z"/>
		<path fill="#FEFEFE" d="M14.1,12.8c0,0.6-0.5,1.1-1.1,1.1s-1.1-0.5-1.1-1.1c0-0.6,0.5-1.1,1.1-1.1S14.1,12.2,14.1,12.8"/>
		
			<circle fill="none" stroke="#F4C389" stroke-linecap="round" stroke-linejoin="round" stroke-miterlimit="10" cx="13" cy="12.8" r="1.1"/>
		<line fill="#FEFEFE" x1="13" y1="15.9" x2="13" y2="17.6"/>
		
			<line fill="none" stroke="#F4C389" stroke-linecap="round" stroke-linejoin="round" stroke-miterlimit="10" x1="13" y1="15.9" x2="13" y2="17.6"/>
		<line fill="#FEFEFE" x1="14.3" y1="15.5" x2="15.6" y2="18"/>
		
			<line fill="none" stroke="#F4C389" stroke-linecap="round" stroke-linejoin="round" stroke-miterlimit="10" x1="14.3" y1="15.5" x2="15.6" y2="18"/>
		<line fill="#FEFEFE" x1="11.7" y1="15.5" x2="10.4" y2="18"/>
		
			<line fill="none" stroke="#F4C389" stroke-linecap="round" stroke-linejoin="round" stroke-miterlimit="10" x1="11.7" y1="15.5" x2="10.4" y2="18"/>
		<line fill="#FEFEFE" x1="13" y1="9.6" x2="13" y2="7.9"/>
		
			<line fill="none" stroke="#F4C389" stroke-linecap="round" stroke-linejoin="round" stroke-miterlimit="10" x1="13" y1="9.6" x2="13" y2="7.9"/>
		<line fill="#FEFEFE" x1="16.1" y1="12.8" x2="17.8" y2="12.8"/>
		
			<line fill="none" stroke="#F4C389" stroke-linecap="round" stroke-linejoin="round" stroke-miterlimit="10" x1="16.1" y1="12.8" x2="17.8" y2="12.8"/>
		<line fill="#FEFEFE" x1="15.7" y1="11.4" x2="18.2" y2="10.1"/>
		
			<line fill="none" stroke="#F4C389" stroke-linecap="round" stroke-linejoin="round" stroke-miterlimit="10" x1="15.7" y1="11.4" x2="18.2" y2="10.1"/>
		<line fill="#FEFEFE" x1="10" y1="12.8" x2="8.3" y2="12.8"/>
		
			<line fill="none" stroke="#F4C389" stroke-linecap="round" stroke-linejoin="round" stroke-miterlimit="10" x1="10" y1="12.8" x2="8.3" y2="12.8"/>
		<line fill="#FEFEFE" x1="10.3" y1="11.4" x2="7.9" y2="10.1"/>
		
			<line fill="none" stroke="#F4C389" stroke-linecap="round" stroke-linejoin="round" stroke-miterlimit="10" x1="10.3" y1="11.4" x2="7.9" y2="10.1"/>
	</g>
</g>
<g id="anise_1_">
	<g>
		<path fill="none" stroke="#070606" stroke-linecap="round" stroke-linejoin="round" stroke-miterlimit="10" d="M10.5,23.5
			c3.8-7.1,2.3-16.4,2.3-16.4"/>
		<path fill="none" stroke="#070606" stroke-linecap="round" stroke-linejoin="round" stroke-miterlimit="10" d="M15.7,9.5
			c-0.6,1.1-1.6,2.7-2.5,3.6"/>
		<path fill="none" stroke="#070606" stroke-linecap="round" stroke-linejoin="round" stroke-miterlimit="10" d="M17.1,15.5
			c-1,1.3-2.5,2.7-4.7,3.3"/>
		<path fill="none" stroke="#070606" stroke-linecap="round" stroke-linejoin="round" stroke-miterlimit="10" d="M10.3,11.3
			c0,0,0.6,3.2,2.3,5"/>
		<path fill="none" stroke="#070606" stroke-linecap="round" stroke-linejoin="round" stroke-miterlimit="10" d="M7.7,17.3
			c0.7,2.4,2.1,3.6,3.4,4.9"/>
		<path fill="none" stroke="#070606" stroke-linecap="round" stroke-linejoin="round" stroke-miterlimit="10" d="M8.5,12.8
			c-0.2,0-0.4,0.1-0.6,0.2c-0.2-0.1-0.4-0.2-0.6-0.2c-0.6,0-1.1,0.4-1.2,1c0,0.2-0.1,0.9-0.1,1.1c0,0.4,0.2,0.8,0.5,1v0.3
			c0,0.6,0.4,1.1,1,1.2c0.2,0,0.4-0.1,0.6-0.2c0.3-0.2,0.5-0.5,0.6-0.9V16c0.4-0.2,0.7-0.5,0.7-0.9c0-0.2,0.1-0.9,0.1-1.1
			C9.6,13.3,9.1,12.8,8.5,12.8z"/>
		<path fill="none" stroke="#070606" stroke-linecap="round" stroke-linejoin="round" stroke-miterlimit="10" d="M19.1,11.2
			c-0.2-0.1-0.4,0-0.6,0.1c-0.1-0.2-0.3-0.3-0.5-0.3c-0.6-0.1-1.2,0.2-1.3,0.8c0,0.2-0.2,0.9-0.3,1.1c-0.1,0.4,0.1,0.8,0.3,1.1
			l-0.1,0.3c-0.1,0.6,0.2,1.2,0.8,1.3c0.2,0.1,0.4,0,0.6-0.1c0.3-0.1,0.6-0.4,0.7-0.8l0-0.3c0.4-0.1,0.7-0.4,0.8-0.8
			c0-0.2,0.2-0.9,0.3-1.1C20.1,11.9,19.7,11.3,19.1,11.2z"/>
		<path fill="none" stroke="#070606" stroke-linecap="round" stroke-linejoin="round" stroke-miterlimit="10" d="M18.2,5.6
			c-0.2-0.1-0.4-0.1-0.6-0.1c-0.1-0.2-0.3-0.3-0.5-0.4c-0.6-0.2-1.2,0-1.5,0.6c-0.1,0.2-0.4,0.8-0.4,1c-0.2,0.4-0.1,0.8,0.2,1.1
			l-0.1,0.3c-0.2,0.6,0,1.2,0.6,1.5c0.2,0.1,0.4,0.1,0.6,0.1c0.3-0.1,0.7-0.3,0.8-0.6l0.1-0.3c0.4,0,0.8-0.3,1-0.7
			c0.1-0.2,0.4-0.8,0.4-1C19,6.5,18.7,5.9,18.2,5.6z"/>
		<path fill="none" stroke="#070606" stroke-linecap="round" stroke-linejoin="round" stroke-miterlimit="10" d="M9.1,6.8
			C8.9,6.9,8.8,7.1,8.6,7.2c-0.2,0-0.4-0.1-0.6,0C7.4,7.5,7.2,8.2,7.4,8.7c0.1,0.2,0.3,0.8,0.4,1c0.2,0.4,0.5,0.6,0.9,0.7l0.1,0.3
			c0.2,0.6,0.9,0.8,1.4,0.6c0.2-0.1,0.4-0.2,0.5-0.4c0.2-0.3,0.3-0.7,0.1-1l-0.1-0.2C11,9.3,11.1,8.9,11,8.5c-0.1-0.2-0.3-0.8-0.4-1
			C10.3,6.9,9.7,6.6,9.1,6.8z"/>
		<path fill="none" stroke="#070606" stroke-linecap="round" stroke-linejoin="round" stroke-miterlimit="10" d="M12.8,2.5
			c-0.2,0-0.4,0.1-0.6,0.3c-0.2-0.1-0.4-0.2-0.6-0.1c-0.6,0.1-1,0.6-1,1.2c0,0.2,0.1,0.9,0.1,1.1c0.1,0.4,0.3,0.7,0.7,0.9l0.1,0.3
			c0.1,0.6,0.6,1,1.2,1c0.2,0,0.4-0.1,0.6-0.3c0.3-0.2,0.4-0.6,0.4-1l-0.1-0.3C14,5.4,14.2,5,14.1,4.6c0-0.2-0.1-0.9-0.1-1.1
			C13.9,2.9,13.4,2.4,12.8,2.5z"/>
	</g>
</g>
</svg>
