<?xml version="1.0" encoding="UTF-8" standalone="no"?>
<!-- Generator: Adobe Illustrator 19.1.0, SVG Export Plug-In . SVG Version: 6.00 Build 0)  -->

<svg
   version="1.2"
   x="0px"
   y="0px"
   viewBox="0 0 26 26"
   xml:space="preserve"
   id="svg348"
   sodipodi:docname="melon.svg"
   inkscape:version="1.4 (e7c3feb1, 2024-10-09)"
   xmlns:inkscape="http://www.inkscape.org/namespaces/inkscape"
   xmlns:sodipodi="http://sodipodi.sourceforge.net/DTD/sodipodi-0.dtd"
   xmlns="http://www.w3.org/2000/svg"
   xmlns:svg="http://www.w3.org/2000/svg"><defs
   id="defs348" /><sodipodi:namedview
   id="namedview348"
   pagecolor="#ffffff"
   bordercolor="#000000"
   borderopacity="0.25"
   inkscape:showpageshadow="2"
   inkscape:pageopacity="0.0"
   inkscape:pagecheckerboard="0"
   inkscape:deskcolor="#d1d1d1"
   inkscape:zoom="38.807692"
   inkscape:cx="13"
   inkscape:cy="13"
   inkscape:window-width="1200"
   inkscape:window-height="1186"
   inkscape:window-x="0"
   inkscape:window-y="25"
   inkscape:window-maximized="0"
   inkscape:current-layer="svg348" />

















































<g
   id="Layer_50">
	<g
   id="g348">
		<path
   fill="none"
   stroke="#95D164"
   stroke-miterlimit="10"
   d="M14.2,13c0,0.7-0.1,1.4-0.2,2.1c0.5,0.6,1.2,0.8,2,1    c0.4-1,0.6-1.9,0.6-3c0-4.6-3.5-8.2-7.8-8.2C11.8,4.8,14.2,8.4,14.2,13z"
   id="path341" />
		<path
   fill="none"
   stroke="#95D164"
   stroke-miterlimit="10"
   d="M8.9,21.2c1.4,0,2.6-0.4,3.7-1c-0.2-0.1-0.5-0.3-0.7-0.4    C11,20.7,10,21.2,8.9,21.2z"
   id="path342" />
		<path
   fill="none"
   stroke="#95D164"
   stroke-miterlimit="10"
   d="M3.5,13c0-4.6,2.4-8.2,5.4-8.2c-4.3,0-7.8,3.7-7.8,8.2    c0,4.6,3.5,8.2,7.8,8.2C5.9,21.2,3.5,17.6,3.5,13z"
   id="path343" />
		<path
   fill="none"
   stroke="#95D164"
   stroke-miterlimit="10"
   d="M11,13c0,0.2,0,0.3,0,0.5h2.4c0,0.6,0.2,0.9,0.6,1.3    c0.1-0.7,0.2-1.1,0.2-1.8c0-4.6-2.4-8.2-5.4-8.2C10.1,4.8,11,8.4,11,13z"
   id="path344" />
		<path
   fill="none"
   stroke="#95D164"
   stroke-miterlimit="10"
   d="M11.9,19.8c-0.5-0.4-1-0.8-1.4-1.2c-0.4,1.6-1,2.7-1.6,2.7    C10,21.2,11,20.7,11.9,19.8z"
   id="path345" />
		<path
   fill="none"
   stroke="#95D164"
   stroke-miterlimit="10"
   d="M6.7,13c0-4.6,1-8.2,2.2-8.2c-3,0-5.4,3.7-5.4,8.2    c0,4.6,2.4,8.2,5.4,8.2C7.7,21.2,6.7,17.6,6.7,13z"
   id="path346" />
		<path
   fill="none"
   stroke="#95D164"
   stroke-miterlimit="10"
   d="M10.5,18.6c-1.3-1.4-2-3.2-2-5.1H11c0-0.2,0-0.3,0-0.5    c0-4.6-1-8.2-2.2-8.2S6.7,8.4,6.7,13c0,4.6,1,8.2,2.2,8.2C9.5,21.2,10.1,20.2,10.5,18.6z"
   id="path347" />
		<path
   fill="none"
   stroke="#95D164"
   stroke-miterlimit="10"
   d="M19.9,13.5c0,1.5-1.4,2.8-3.2,2.8c-0.2,0-0.4,0-0.6-0.1    c-0.8-0.1-1.5-0.5-2-1.1c-0.4-0.5-0.6-1-0.6-1.6H11H8.4c0,2,0.8,3.8,2,5.1c0.4,0.5,0.9,0.9,1.4,1.2c0.2,0.2,0.5,0.3,0.7,0.4    c1.2,0.6,2.6,1,4.1,1c4.6,0,8.2-3.5,8.2-7.8H19.9z"
   id="path348" />
	</g>
</g>
</svg>
