<?xml version="1.0" encoding="UTF-8" standalone="no"?>
<!-- Generator: Adobe Illustrator 19.1.0, SVG Export Plug-In . SVG Version: 6.00 Build 0)  -->

<svg
   version="1.2"
   x="0px"
   y="0px"
   viewBox="0 0 26 26"
   xml:space="preserve"
   id="svg340"
   sodipodi:docname="yellow apple.svg"
   inkscape:version="1.4 (e7c3feb1, 2024-10-09)"
   xmlns:inkscape="http://www.inkscape.org/namespaces/inkscape"
   xmlns:sodipodi="http://sodipodi.sourceforge.net/DTD/sodipodi-0.dtd"
   xmlns="http://www.w3.org/2000/svg"
   xmlns:svg="http://www.w3.org/2000/svg"><defs
   id="defs340" /><sodipodi:namedview
   id="namedview340"
   pagecolor="#ffffff"
   bordercolor="#000000"
   borderopacity="0.25"
   inkscape:showpageshadow="2"
   inkscape:pageopacity="0.0"
   inkscape:pagecheckerboard="0"
   inkscape:deskcolor="#d1d1d1"
   inkscape:zoom="38.807692"
   inkscape:cx="13"
   inkscape:cy="13"
   inkscape:window-width="1200"
   inkscape:window-height="1186"
   inkscape:window-x="0"
   inkscape:window-y="25"
   inkscape:window-maximized="0"
   inkscape:current-layer="svg340" />
















































<g
   id="red_apple"
   style="display:inline">
	<g
   id="g340">
		<path
   fill="none"
   stroke="#efe40a"
   stroke-linecap="round"
   stroke-linejoin="round"
   stroke-miterlimit="10"
   d="M 20.9,14.1 C 20.7,11.4 18.4,9.2 15.6,9.2 14.6,9.2 13.7,9.5 13,9.9 12.2,9.5 11.3,9.2 10.4,9.2 c -2.8,0 -5.1,2.2 -5.3,4.9 -0.2,1.2 -0.1,2.7 0.3,4.3 0.2,0.9 0.5,1.7 0.8,2.5 0.4,0.8 0.7,1.6 1.2,2.1 0.5,0.6 1.3,0.9 2.1,1.1 0.3,0.1 0.6,0.1 1,0.1 1,0 1.9,-0.3 2.6,-0.9 0.7,0.5 1.6,0.9 2.6,0.9 0.3,0 0.7,-0.1 1,-0.1 0.8,-0.2 1.6,-0.5 2.1,-1.1 0.5,-0.5 0.8,-1.3 1.2,-2.1 0.3,-0.7 0.6,-1.6 0.8,-2.5 0.2,-1.5 0.3,-3.1 0.1,-4.3 z"
   id="path338" />
		<path
   fill="none"
   stroke="#efe40a"
   stroke-linecap="round"
   stroke-linejoin="round"
   stroke-miterlimit="10"
   d="M 17.8,6 C 19.4,4.3 19,1.8 19,1.7 v 0 0 C 19,1.7 16.5,1.4 14.7,2.9 14.6,3 14.3,3.3 14.2,3.4 12.7,5.2 13,7.7 13,7.7 v 0 0 c 0,0 2.5,0.3 4.3,-1.2 0.1,0 0.5,-0.4 0.5,-0.5 z"
   id="path339" />
		<path
   fill="none"
   stroke="#efe40a"
   stroke-linecap="round"
   stroke-linejoin="round"
   stroke-miterlimit="10"
   d="m 9.7,5.1 c 2.8,0 3.3,2.7 3.3,2.7 V 10"
   id="path340" />
	</g>
</g>
</svg>
