<svg viewBox="0 0 26 26" xmlns="http://www.w3.org/2000/svg"><g fill="none" stroke="#25004f" stroke-linecap="round" stroke-linejoin="round" stroke-miterlimit="10"><path d="m16.7 8.2 1.1-3.8-3.4 1.6-1.4-3.3-1.4 3.3-3.4-1.6 1.2 3.8"/><path d="m16.7 8.2 1.1-3.8-3.4 1.6-1.4-3.3-1.4 3.3-3.4-1.6 1.2 3.8"/><path d="m9.4 16.1c-1.1-.2-1.9-1.2-1.9-2.4 0-.1 0-.2 0-.2-1.1 0-2 .9-2 2.1s.9 2.1 2 2.1h.1c.3-.8 1-1.4 1.8-1.6"/><path d="m9.4 16.1c-1.1-.2-1.9-1.2-1.9-2.4 0-.1 0-.2 0-.2-1.1 0-2 .9-2 2.1s.9 2.1 2 2.1h.1c.3-.8 1-1.4 1.8-1.6z"/><path d="m10.8 16.6c0-.1 0-.1 0-.2-.3-.1-.5-.2-.8-.3-.1 0-.1 0-.2 0s-.1 0-.2 0h-.1c-.9.1-1.6.8-1.8 1.6-.1.2-.1.5-.1.7 0 1.3 1 2.4 2.3 2.4.5 0 .9-.1 1.2-.4.2-.3.4-.5.7-.7.1-.2.2-.5.3-.8-.9-.4-1.3-1.3-1.3-2.3"/><path d="m10.8 16.6c0-.1 0-.1 0-.2-.3-.1-.5-.2-.8-.3-.1 0-.1 0-.2 0s-.1 0-.2 0h-.1c-.9.1-1.6.8-1.8 1.6-.1.2-.1.5-.1.7 0 1.3 1 2.4 2.3 2.4.5 0 .9-.1 1.2-.4.2-.3.4-.5.7-.7.1-.2.2-.5.3-.8-.9-.4-1.3-1.3-1.3-2.3z"/><path d="m8.6 11.8c-.4-.4-.6-.9-.6-1.5 0-.3.1-.7.2-1-.1 0-.2 0-.2 0-1.1 0-2 .9-2 2.1 0 1 .7 1.8 1.6 2 .1-.7.5-1.2 1-1.6"/><path d="m8.6 11.8c-.4-.4-.6-.9-.6-1.5 0-.3.1-.7.2-1-.1 0-.2 0-.2 0-1.1 0-2 .9-2 2.1 0 1 .7 1.8 1.6 2 .1-.7.5-1.2 1-1.6z"/><path d="m11.5 8.9c-.4-.4-.9-.7-1.5-.7-.8 0-1.4.5-1.8 1.2-.1.2-.2.6-.2.9 0 .6.2 1.1.6 1.5.3.3.7.5 1.2.6.1 0 .2.1.2.1.4 0 .7-.1 1-.3-.1-.3-.2-.7-.2-1.1 0-.9.2-1.7.7-2.2"/><path d="m11.5 8.9c-.4-.4-.9-.7-1.5-.7-.8 0-1.4.5-1.8 1.2-.1.2-.2.6-.2.9 0 .6.2 1.1.6 1.5.3.3.7.5 1.2.6.1 0 .2.1.2.1.4 0 .7-.1 1-.3-.1-.3-.2-.7-.2-1.1 0-.9.2-1.7.7-2.2z"/><path d="m11 12.1c-.3.2-.6.3-1 .3-.1 0-.2 0-.2-.1-.4-.1-.9-.2-1.2-.6-.5.4-.9.9-1 1.6v.1.2c0 1.2.8 2.2 1.9 2.3h.1.2.2c.3 0 .6-.2.9-.3.2-.7.6-1.3 1.1-1.7 0-.1.1-.2.1-.3s0-.3 0-.4c-.6-.1-.9-.5-1.1-1.1"/><path d="m11 12.1c-.3.2-.6.3-1 .3-.1 0-.2 0-.2-.1-.4-.1-.9-.2-1.2-.6-.5.4-.9.9-1 1.6v.1.2c0 1.2.8 2.2 1.9 2.3h.1.2.2c.3 0 .6-.2.9-.3.2-.7.6-1.3 1.1-1.7 0-.1.1-.2.1-.3s0-.3 0-.4c-.6-.1-.9-.5-1.1-1.1z"/><path d="m13 8.2c-.6 0-1.1.3-1.5.7-.4.5-.7 1.2-.7 2 0 .4.1.8.2 1.1.2.6.6 1 1 1.3.3.2.7.4 1.1.4 1.2 0 2.3-1.2 2.3-2.8s-1.1-2.7-2.4-2.7"/><path d="m13 8.2c-.6 0-1.1.3-1.5.7-.4.5-.7 1.2-.7 2 0 .4.1.8.2 1.1.2.6.6 1 1 1.3.3.2.7.4 1.1.4 1.2 0 2.3-1.2 2.3-2.8s-1.1-2.7-2.4-2.7z"/><path d="m13 13.8c-.4 0-.8.1-1.1.4-.5.4-.9 1-1.1 1.7 0 .2-.1.4-.1.6v.2c0 1.1.5 2 1.2 2.4.3.2.7.4 1.1.4 1.2 0 2.3-1.2 2.3-2.8 0-1.7-1-2.9-2.3-2.9"/><path d="m13 13.8c-.4 0-.8.1-1.1.4-.5.4-.9 1-1.1 1.7 0 .2-.1.4-.1.6v.2c0 1.1.5 2 1.2 2.4.3.2.7.4 1.1.4 1.2 0 2.3-1.2 2.3-2.8 0-1.7-1-2.9-2.3-2.9z"/><path d="m13 19.3c-.5 0-1 .2-1.4.4-.3.2-.5.4-.7.7-.1.2-.2.5-.2.8 0 1.1 1 2 2.3 2 1.2 0 2.3-.9 2.3-2 0-1-1-1.9-2.3-1.9"/><path d="m13 19.3c-.5 0-1 .2-1.4.4-.3.2-.5.4-.7.7-.1.2-.2.5-.2.8 0 1.1 1 2 2.3 2 1.2 0 2.3-.9 2.3-2 0-1-1-1.9-2.3-1.9z"/><path d="m16.6 16.1c1.1-.2 1.9-1.2 1.9-2.4 0-.1 0-.2 0-.2 1.1 0 2 .9 2 2.1s-.9 2.1-2 2.1h-.1c-.3-.8-1-1.4-1.8-1.6"/><path d="m16.6 16.1c1.1-.2 1.9-1.2 1.9-2.4 0-.1 0-.2 0-.2 1.1 0 2 .9 2 2.1s-.9 2.1-2 2.1h-.1c-.3-.8-1-1.4-1.8-1.6z"/><path d="m15.2 16.6c0-.1 0-.1 0-.2.3-.1.5-.2.8-.3h.2.2.1c.9.1 1.6.8 1.8 1.6.1.2.1.5.1.7 0 1.3-1 2.4-2.3 2.4-.5 0-.9-.1-1.2-.4-.2-.3-.4-.5-.7-.7-.1-.2-.2-.5-.3-.8.9-.4 1.3-1.3 1.3-2.3"/><path d="m15.2 16.6c0-.1 0-.1 0-.2.3-.1.5-.2.8-.3h.2.2.1c.9.1 1.6.8 1.8 1.6.1.2.1.5.1.7 0 1.3-1 2.4-2.3 2.4-.5 0-.9-.1-1.2-.4-.2-.3-.4-.5-.7-.7-.1-.2-.2-.5-.3-.8.9-.4 1.3-1.3 1.3-2.3z"/><path d="m17.4 11.8c.4-.4.6-.9.6-1.5 0-.3-.1-.7-.2-1h.2c1.1 0 2 .9 2 2.1 0 1-.7 1.8-1.6 2-.1-.7-.5-1.2-1-1.6"/><path d="m17.4 11.8c.4-.4.6-.9.6-1.5 0-.3-.1-.7-.2-1h.2c1.1 0 2 .9 2 2.1 0 1-.7 1.8-1.6 2-.1-.7-.5-1.2-1-1.6z"/><path d="m14.5 8.9c.4-.4.9-.7 1.5-.7.8 0 1.4.5 1.8 1.2.1.3.2.6.2 1 0 .6-.2 1.1-.6 1.5-.3.3-.7.5-1.2.6-.1 0-.2.1-.2.1-.4 0-.7-.1-1-.3.1-.3.2-.7.2-1.1 0-1-.2-1.8-.7-2.3"/><path d="m14.5 8.9c.4-.4.9-.7 1.5-.7.8 0 1.4.5 1.8 1.2.1.3.2.6.2 1 0 .6-.2 1.1-.6 1.5-.3.3-.7.5-1.2.6-.1 0-.2.1-.2.1-.4 0-.7-.1-1-.3.1-.3.2-.7.2-1.1 0-1-.2-1.8-.7-2.3z"/><path d="m15 12.1c.3.2.6.3 1 .3.1 0 .2 0 .2-.1.4-.1.9-.2 1.2-.6.5.4.9.9 1 1.6v.1.2c0 1.2-.8 2.2-1.9 2.3h-.1c-.1 0-.1 0-.2 0s-.1 0-.2 0c-.3 0-.6-.2-.9-.3-.2-.7-.6-1.3-1.1-1.7 0-.1-.1-.2-.1-.3s0-.3 0-.4c.6-.1.9-.5 1.1-1.1"/><path d="m15 12.1c.3.2.6.3 1 .3.1 0 .2 0 .2-.1.4-.1.9-.2 1.2-.6.5.4.9.9 1 1.6v.1.2c0 1.2-.8 2.2-1.9 2.3h-.1c-.1 0-.1 0-.2 0s-.1 0-.2 0c-.3 0-.6-.2-.9-.3-.2-.7-.6-1.3-1.1-1.7 0-.1-.1-.2-.1-.3s0-.3 0-.4c.6-.1.9-.5 1.1-1.1z"/></g></svg>