<?xml version="1.0" encoding="UTF-8" standalone="no"?>
<!-- Generator: Adobe Illustrator 19.1.0, SVG Export Plug-In . SVG Version: 6.00 Build 0)  -->

<svg
   version="1.2"
   x="0px"
   y="0px"
   viewBox="0 0 26 26"
   xml:space="preserve"
   id="svg683"
   sodipodi:docname="earth.svg"
   inkscape:version="1.4 (e7c3feb1, 2024-10-09)"
   xmlns:inkscape="http://www.inkscape.org/namespaces/inkscape"
   xmlns:sodipodi="http://sodipodi.sourceforge.net/DTD/sodipodi-0.dtd"
   xmlns="http://www.w3.org/2000/svg"
   xmlns:svg="http://www.w3.org/2000/svg"><defs
   id="defs683" /><sodipodi:namedview
   id="namedview683"
   pagecolor="#ffffff"
   bordercolor="#000000"
   borderopacity="0.25"
   inkscape:showpageshadow="2"
   inkscape:pageopacity="0.0"
   inkscape:pagecheckerboard="0"
   inkscape:deskcolor="#d1d1d1"
   inkscape:zoom="38.807692"
   inkscape:cx="12.948464"
   inkscape:cy="13"
   inkscape:window-width="1200"
   inkscape:window-height="1186"
   inkscape:window-x="0"
   inkscape:window-y="25"
   inkscape:window-maximized="0"
   inkscape:current-layer="svg683" />














































































































<g
   id="Layer_111">
	<g
   id="g683">
		<path
   fill="none"
   stroke="#9C6B43"
   stroke-linecap="round"
   stroke-linejoin="round"
   stroke-miterlimit="10"
   d="M17.4,14.7    c1.4,0,2.7-0.5,2.7-0.5c2.8-1.3-1-5.7-2.6-4.1c-1.6,1.6,0.3,11.3,0.3,11.3H13H8.4c0,0,1.9-9.7,0.3-11.3C7,8.5,3.2,13,6,14.2    c0,0,1.3,0.5,2.7,0.5"
   id="path679" />
		<path
   fill="none"
   stroke="#9C6B43"
   stroke-linecap="round"
   stroke-linejoin="round"
   stroke-miterlimit="10"
   d="M17.4,14.7    c4,0,5.3-1.6,5.3-5c0-4.7-6.9-5.1-9.6-5.1c-2.7,0-9.6,0.5-9.6,5.1c0,3.4,1.3,5,5.3,5"
   id="path680" />
		
			<line
   fill="none"
   stroke="#9C6B43"
   stroke-linecap="round"
   stroke-linejoin="round"
   stroke-miterlimit="10"
   x1="8.6"
   y1="10.1"
   x2="5.4"
   y2="13.8"
   id="line680" />
		
			<line
   fill="none"
   stroke="#9C6B43"
   stroke-linecap="round"
   stroke-linejoin="round"
   stroke-miterlimit="10"
   x1="9.1"
   y1="11.5"
   x2="6.9"
   y2="14.5"
   id="line681" />
		
			<line
   fill="none"
   stroke="#9C6B43"
   stroke-linecap="round"
   stroke-linejoin="round"
   stroke-miterlimit="10"
   x1="17.4"
   y1="10.1"
   x2="20.6"
   y2="13.8"
   id="line682" />
		
			<line
   fill="none"
   stroke="#9C6B43"
   stroke-linecap="round"
   stroke-linejoin="round"
   stroke-miterlimit="10"
   x1="16.9"
   y1="11.5"
   x2="19.1"
   y2="14.5"
   id="line683" />
	</g>
</g>
</svg>
