<svg viewBox="0 0 26 26" xmlns="http://www.w3.org/2000/svg"><g fill="none" stroke="#f99c07" stroke-linecap="round" stroke-linejoin="round" stroke-miterlimit="10"><path d="m17.6 6.3c.1-.1.1-.2.2-.3 1.6-1.8 1.2-4.2 1.2-4.3s-2.5-.3-4.3 1.2c-.1.1-.2.1-.2.2-.1.1-.1.2-.2.3-1.6 1.8-1.3 4.3-1.3 4.3s2.5.3 4.3-1.2c.1-.1.2-.1.3-.2z"/><path d="m9.7 5.1c2.8 0 3.3 2.7 3.3 2.7v2.2"/><path d="m13 10.3c-.7-.6-1.5-1-2.3-1-2.6-.1-4.7 3.3-4.7 7.5s2.1 7.5 4.7 7.5c.9 0 1.6-.4 2.3-1"/><path d="m15.2 18.8c-.3 1.9-1.1 3.5-2.2 4.5"/><path d="m13 10.3c.3.3.7.7.9 1.2"/><path d="m13 10.3c.7-.6 1.5-1 2.3-1 2.6 0 4.7 3.4 4.7 7.5 0 4.2-2.1 7.5-4.7 7.5-.9 0-1.6-.4-2.3-1"/></g></svg>