<svg viewBox="0 0 26 26" xmlns="http://www.w3.org/2000/svg"><g fill="none" stroke="#c23c02" stroke-linecap="round" stroke-linejoin="round" stroke-miterlimit="10"><path d="m13.7 20.6v-15.2"/><path d="m16.3 5.4v15.2"/><path d="m9.7 20.6v-15.2"/><path d="m12.3 5.4v15.2"/><path d="m12.3 5.3c0 .7-.6 1.3-1.3 1.3s-1.3-.6-1.3-1.3.6-1.3 1.3-1.3h4c.7 0 1.3.6 1.3 1.3s-.6 1.3-1.3 1.3-1.3-.6-1.3-1.3"/><path d="m16.3 20.7c0 .7-.6 1.3-1.3 1.3s-1.3-.6-1.3-1.3"/><path d="m12.3 20.7c0 .7-.6 1.3-1.3 1.3s-1.3-.6-1.3-1.3"/><path d="m12.3 20.1h1.4"/></g></svg>