<?xml version="1.0" encoding="UTF-8" standalone="no"?>
<!-- Generator: Adobe Illustrator 19.1.0, SVG Export Plug-In . SVG Version: 6.00 Build 0)  -->

<svg
   version="1.2"
   x="0px"
   y="0px"
   viewBox="0 0 26 26"
   xml:space="preserve"
   id="svg572"
   sodipodi:docname="prune.svg"
   inkscape:version="1.4 (e7c3feb1, 2024-10-09)"
   xmlns:inkscape="http://www.inkscape.org/namespaces/inkscape"
   xmlns:sodipodi="http://sodipodi.sourceforge.net/DTD/sodipodi-0.dtd"
   xmlns="http://www.w3.org/2000/svg"
   xmlns:svg="http://www.w3.org/2000/svg"><defs
   id="defs572" /><sodipodi:namedview
   id="namedview572"
   pagecolor="#ffffff"
   bordercolor="#000000"
   borderopacity="0.25"
   inkscape:showpageshadow="2"
   inkscape:pageopacity="0.0"
   inkscape:pagecheckerboard="0"
   inkscape:deskcolor="#d1d1d1"
   inkscape:zoom="38.807692"
   inkscape:cx="13"
   inkscape:cy="13"
   inkscape:window-width="1200"
   inkscape:window-height="1186"
   inkscape:window-x="0"
   inkscape:window-y="25"
   inkscape:window-maximized="0"
   inkscape:current-layer="svg572" />



















































































<g
   id="sugarplum">
	<g
   id="g572">
		<path
   fill="none"
   stroke="#550D81"
   stroke-linecap="round"
   stroke-linejoin="round"
   stroke-miterlimit="10"
   d="M9.7,3.1    c2.8,0,3.3,2.7,3.3,2.7v2.2"
   id="path570" />
		<path
   fill="none"
   stroke="#550D81"
   stroke-linecap="round"
   stroke-linejoin="round"
   stroke-miterlimit="10"
   d="M10.6,15.1    c0-3,0.9-5.6,2.2-7.2C10.1,8.1,8,11.4,8,15.4c0,4.1,2.2,7.5,5,7.5c0.1,0,0.3,0,0.4,0C11.7,21.5,10.6,18.5,10.6,15.1z"
   id="path571" />
		<path
   fill="none"
   stroke="#550D81"
   stroke-linecap="round"
   stroke-linejoin="round"
   stroke-miterlimit="10"
   d="M18,15.4    c0-2.6-0.9-4.9-2.2-6.3C15,8.4,14,7.9,13,7.9c-0.1,0-0.1,0-0.2,0c-1.3,1.6-2.2,4.2-2.2,7.2c0,3.4,1.1,6.3,2.8,7.8    c0.9-0.1,1.7-0.5,2.4-1.2C17.1,20.3,18,18,18,15.4z"
   id="path572" />
	</g>
</g>
</svg>
