<?xml version="1.0" encoding="utf-8"?>
<!-- Generator: Adobe Illustrator 19.1.0, SVG Export Plug-In . SVG Version: 6.00 Build 0)  -->
<svg version="1.2" baseProfile="tiny" xmlns="http://www.w3.org/2000/svg" xmlns:xlink="http://www.w3.org/1999/xlink" x="0px"
	 y="0px" viewBox="0 0 26 26" xml:space="preserve">
<g id="ruler">
</g>
<g id="lilac_1_" display="none">
	<g display="inline">
		<g>
			<path fill="none" stroke="#C48BC3" stroke-linecap="round" stroke-linejoin="round" stroke-miterlimit="10" d="M5.7,24.4
				c12.8,0,10.1-19,10.1-19"/>
			<path fill="none" stroke="#C48BC3" stroke-linecap="round" stroke-linejoin="round" stroke-miterlimit="10" d="M15.1,20.9
				c-1.2,1-1.7,1.8-4,2"/>
			<path fill="none" stroke="#C48BC3" stroke-linecap="round" stroke-linejoin="round" stroke-miterlimit="10" d="M8,17.8
				c0,0-1.6,4.1,1.3,6"/>
			<path fill="none" stroke="#C48BC3" stroke-linecap="round" stroke-linejoin="round" stroke-miterlimit="10" d="M11.5,11.6
				c0.7,2.4,2.1,3.6,3.4,4.9"/>
			<path fill="#FEFEFE" d="M12,15.2c-0.5,0-1,0.1-1.5,0.3c0.2-0.5,0.3-1,0.3-1.5c0-0.7-0.1-1.1-1-1.7c-0.9,0.6-1,1-1,1.7
				c0,0.5,0.1,1,0.3,1.5c-0.5-0.2-1-0.3-1.5-0.3c-0.7,0-1.1,0.1-1.7,1c0.6,0.9,1,1,1.7,1c0.5,0,1-0.1,1.5-0.3
				c-0.2,0.5-0.3,1-0.3,1.5c0,0.7,0.1,1.1,1,1.7c0.9-0.6,1-1,1-1.7c0-0.5-0.1-1-0.3-1.5c0.5,0.2,1,0.3,1.5,0.3c0.7,0,1.1-0.1,1.7-1
				C13.1,15.3,12.7,15.2,12,15.2"/>
			<path fill="none" stroke="#C48BC3" stroke-linecap="round" stroke-linejoin="round" stroke-miterlimit="10" d="M12,15.2
				c-0.5,0-1,0.1-1.5,0.3c0.2-0.5,0.3-1,0.3-1.5c0-0.7-0.1-1.1-1-1.7c-0.9,0.6-1,1-1,1.7c0,0.5,0.1,1,0.3,1.5
				c-0.5-0.2-1-0.3-1.5-0.3c-0.7,0-1.1,0.1-1.7,1c0.6,0.9,1,1,1.7,1c0.5,0,1-0.1,1.5-0.3c-0.2,0.5-0.3,1-0.3,1.5
				c0,0.7,0.1,1.1,1,1.7c0.9-0.6,1-1,1-1.7c0-0.5-0.1-1-0.3-1.5c0.5,0.2,1,0.3,1.5,0.3c0.7,0,1.1-0.1,1.7-1
				C13.1,15.3,12.7,15.2,12,15.2z"/>
			<path fill="#FEFEFE" d="M18.7,18.1c-0.5,0-1,0.1-1.5,0.3c0.2-0.5,0.3-1,0.3-1.5c0-0.7-0.1-1.1-1-1.7c-0.9,0.6-1,1-1,1.7
				c0,0.5,0.1,1,0.3,1.5c-0.5-0.2-1-0.3-1.5-0.3c-0.7,0-1.1,0.1-1.7,1c0.6,0.9,1,1,1.7,1c0.5,0,1-0.1,1.5-0.3
				c-0.2,0.5-0.3,1-0.3,1.5c0,0.7,0.1,1.1,1,1.7c0.9-0.6,1-1,1-1.7c0-0.5-0.1-1-0.3-1.5c0.5,0.2,1,0.3,1.5,0.3c0.7,0,1.1-0.1,1.7-1
				C19.8,18.2,19.4,18.1,18.7,18.1"/>
			<path fill="none" stroke="#C48BC3" stroke-linecap="round" stroke-linejoin="round" stroke-miterlimit="10" d="M18.7,18.1
				c-0.5,0-1,0.1-1.5,0.3c0.2-0.5,0.3-1,0.3-1.5c0-0.7-0.1-1.1-1-1.7c-0.9,0.6-1,1-1,1.7c0,0.5,0.1,1,0.3,1.5
				c-0.5-0.2-1-0.3-1.5-0.3c-0.7,0-1.1,0.1-1.7,1c0.6,0.9,1,1,1.7,1c0.5,0,1-0.1,1.5-0.3c-0.2,0.5-0.3,1-0.3,1.5
				c0,0.7,0.1,1.1,1,1.7c0.9-0.6,1-1,1-1.7c0-0.5-0.1-1-0.3-1.5c0.5,0.2,1,0.3,1.5,0.3c0.7,0,1.1-0.1,1.7-1
				C19.8,18.2,19.4,18.1,18.7,18.1z"/>
			<path fill="#FEFEFE" d="M17.4,9.1c-0.4,0.4-0.7,0.8-0.9,1.3c-0.3-0.5-0.6-1-0.9-1.3c-0.5-0.5-0.9-0.7-2-0.5c-0.2,1,0,1.5,0.5,2
				c0.4,0.4,0.8,0.7,1.3,0.9c-0.5,0.3-1,0.6-1.3,0.9c-0.5,0.5-0.7,0.9-0.5,2c1,0.2,1.4,0,2-0.5c0.4-0.4,0.7-0.8,0.9-1.3
				c0.3,0.5,0.6,1,0.9,1.3c0.5,0.5,0.9,0.7,2,0.5c0.2-1,0-1.4-0.5-2c-0.4-0.4-0.8-0.7-1.3-0.9c0.5-0.3,1-0.6,1.3-0.9
				c0.5-0.5,0.7-0.9,0.5-2C18.3,8.3,17.9,8.5,17.4,9.1"/>
			<path fill="none" stroke="#C48BC3" stroke-linecap="round" stroke-linejoin="round" stroke-miterlimit="10" d="M17.4,9.1
				c-0.4,0.4-0.7,0.8-0.9,1.3c-0.3-0.5-0.6-1-0.9-1.3c-0.5-0.5-0.9-0.7-2-0.5c-0.2,1,0,1.5,0.5,2c0.4,0.4,0.8,0.7,1.3,0.9
				c-0.5,0.3-1,0.6-1.3,0.9c-0.5,0.5-0.7,0.9-0.5,2c1,0.2,1.4,0,2-0.5c0.4-0.4,0.7-0.8,0.9-1.3c0.3,0.5,0.6,1,0.9,1.3
				c0.5,0.5,0.9,0.7,2,0.5c0.2-1,0-1.4-0.5-2c-0.4-0.4-0.8-0.7-1.3-0.9c0.5-0.3,1-0.6,1.3-0.9c0.5-0.5,0.7-0.9,0.5-2
				C18.3,8.3,17.9,8.5,17.4,9.1z"/>
			<path fill="#FEFEFE" d="M15.6,2.8c0,0.4,0.1,0.9,0.2,1.3c-0.4-0.1-0.9-0.2-1.3-0.2c-0.6,0-1,0.1-1.5,0.9c0.5,0.7,0.8,0.9,1.5,0.9
				c0.4,0,0.9-0.1,1.3-0.2c-0.1,0.4-0.2,0.9-0.2,1.3c0,0.6,0.1,1,0.9,1.5c0.7-0.5,0.9-0.8,0.9-1.5c0-0.4-0.1-0.9-0.2-1.3
				c0.4,0.1,0.9,0.2,1.3,0.2c0.6,0,1-0.1,1.5-0.9C19.4,4,19,3.9,18.4,3.9c-0.4,0-0.9,0.1-1.3,0.2c0.1-0.4,0.2-0.9,0.2-1.3
				c0-0.6-0.1-1-0.9-1.5C15.7,1.8,15.6,2.1,15.6,2.8"/>
			<path fill="none" stroke="#C48BC3" stroke-linecap="round" stroke-linejoin="round" stroke-miterlimit="10" d="M15.6,2.8
				c0,0.4,0.1,0.9,0.2,1.3c-0.4-0.1-0.9-0.2-1.3-0.2c-0.6,0-1,0.1-1.5,0.9c0.5,0.7,0.8,0.9,1.5,0.9c0.4,0,0.9-0.1,1.3-0.2
				c-0.1,0.4-0.2,0.9-0.2,1.3c0,0.6,0.1,1,0.9,1.5c0.7-0.5,0.9-0.8,0.9-1.5c0-0.4-0.1-0.9-0.2-1.3c0.4,0.1,0.9,0.2,1.3,0.2
				c0.6,0,1-0.1,1.5-0.9C19.4,4,19,3.9,18.4,3.9c-0.4,0-0.9,0.1-1.3,0.2c0.1-0.4,0.2-0.9,0.2-1.3c0-0.6-0.1-1-0.9-1.5
				C15.7,1.8,15.6,2.1,15.6,2.8z"/>
			<path fill="#FEFEFE" d="M10.4,7C10.2,7.3,9.9,7.6,9.7,8C9.5,7.6,9.2,7.2,8.9,7C8.4,6.5,8.1,6.3,7.2,6.5c-0.2,0.9,0,1.2,0.4,1.7
				C8,8.5,8.4,8.7,8.8,8.9C8.4,9.2,8,9.4,7.7,9.7c-0.4,0.4-0.6,0.8-0.4,1.7c0.9,0.2,1.2,0,1.7-0.4c0.3-0.3,0.6-0.7,0.8-1.1
				c0.2,0.4,0.5,0.8,0.8,1.1c0.5,0.5,0.8,0.6,1.7,0.4c0.2-0.9,0-1.2-0.4-1.7c-0.3-0.3-0.7-0.6-1.1-0.8c0.4-0.2,0.8-0.5,1.1-0.8
				c0.4-0.5,0.6-0.8,0.4-1.7C11.2,6.3,10.9,6.5,10.4,7"/>
			<path fill="none" stroke="#C48BC3" stroke-linecap="round" stroke-linejoin="round" stroke-miterlimit="10" d="M10.4,7
				C10.2,7.3,9.9,7.6,9.7,8C9.5,7.6,9.2,7.2,8.9,7C8.4,6.5,8.1,6.3,7.2,6.5c-0.2,0.9,0,1.2,0.4,1.7C8,8.5,8.4,8.7,8.8,8.9
				C8.4,9.2,8,9.4,7.7,9.7c-0.4,0.4-0.6,0.8-0.4,1.7c0.9,0.2,1.2,0,1.7-0.4c0.3-0.3,0.6-0.7,0.8-1.1c0.2,0.4,0.5,0.8,0.8,1.1
				c0.5,0.5,0.8,0.6,1.7,0.4c0.2-0.9,0-1.2-0.4-1.7c-0.3-0.3-0.7-0.6-1.1-0.8c0.4-0.2,0.8-0.5,1.1-0.8c0.4-0.5,0.6-0.8,0.4-1.7
				C11.2,6.3,10.9,6.5,10.4,7z"/>
		</g>
		<g>
			<path fill="#C48BC3" d="M10,16.2c0,0.2-0.2,0.4-0.4,0.4c-0.2,0-0.3-0.2-0.3-0.4c0-0.2,0.2-0.3,0.3-0.3C9.9,15.8,10,16,10,16.2"/>
			<path fill="#C48BC3" d="M16.8,19.1c0,0.2-0.2,0.4-0.4,0.4c-0.2,0-0.3-0.2-0.3-0.4c0-0.2,0.2-0.3,0.3-0.3
				C16.6,18.7,16.8,18.9,16.8,19.1"/>
			<path fill="#C48BC3" d="M16.7,11.2c0.1,0.1,0.1,0.4,0,0.5c-0.1,0.1-0.4,0.1-0.5,0c-0.1-0.1-0.1-0.4,0-0.5
				C16.3,11,16.5,11,16.7,11.2"/>
			<path fill="#C48BC3" d="M16.6,4.7c0,0.1-0.1,0.2-0.2,0.2c-0.1,0-0.2-0.1-0.2-0.2c0-0.1,0.1-0.2,0.2-0.2
				C16.5,4.5,16.6,4.6,16.6,4.7"/>
			<path fill="#C48BC3" d="M9.9,8.9c0,0.1-0.1,0.2-0.2,0.2S9.5,9,9.5,8.9c0-0.1,0.1-0.2,0.2-0.2S9.9,8.8,9.9,8.9"/>
		</g>
	</g>
</g>
<g id="violet" display="none">
	<g display="inline">
		<path fill="#FEFEFE" d="M18.3,9.6L13,13L7.7,9.7C7.3,9.1,7,8.5,7,7.8c0-1.7,1.3-3,3-3c1,0,2,0.5,2.5,1.3c0,0,0.2,0.4,0.5,0.4
			c0.3,0,0.5-0.4,0.5-0.4C14,5.3,15,4.8,16,4.8c1.7,0,3,1.3,3,3C19,8.5,18.7,9.1,18.3,9.6"/>
		<path fill="none" stroke="#9A72D3" stroke-linecap="round" stroke-linejoin="round" stroke-miterlimit="10" d="M18.3,9.6L13,13
			L7.7,9.7C7.3,9.1,7,8.5,7,7.8c0-1.7,1.3-3,3-3c1,0,2,0.5,2.5,1.3c0,0,0.2,0.4,0.5,0.4c0.3,0,0.5-0.4,0.5-0.4C14,5.3,15,4.8,16,4.8
			c1.7,0,3,1.3,3,3C19,8.5,18.7,9.1,18.3,9.6z"/>
		<path fill="#FEFEFE" d="M9.9,18.3l3.4-5.3L9.9,7.7C9.4,7.3,8.7,7,8,7c-1.7,0-3,1.3-3,3c0,1,0.5,2,1.3,2.5c0,0,0.4,0.2,0.4,0.5
			c0,0.3-0.4,0.5-0.4,0.5C5.5,14,5,15,5,16c0,1.7,1.3,3,3,3C8.7,19,9.4,18.7,9.9,18.3"/>
		<path fill="none" stroke="#9A72D3" stroke-linecap="round" stroke-linejoin="round" stroke-miterlimit="10" d="M9.9,18.3l3.4-5.3
			L9.9,7.7C9.4,7.3,8.7,7,8,7c-1.7,0-3,1.3-3,3c0,1,0.5,2,1.3,2.5c0,0,0.4,0.2,0.4,0.5c0,0.3-0.4,0.5-0.4,0.5C5.5,14,5,15,5,16
			c0,1.7,1.3,3,3,3C8.7,19,9.4,18.7,9.9,18.3z"/>
		<path fill="#FEFEFE" d="M16.4,18.3L13,13l3.3-5.3C16.9,7.3,17.5,7,18.2,7c1.7,0,3,1.3,3,3c0,1-0.5,2-1.3,2.5c0,0-0.4,0.2-0.4,0.5
			c0,0.3,0.4,0.5,0.4,0.5c0.8,0.5,1.3,1.5,1.3,2.5c0,1.7-1.3,3-3,3C17.5,19,16.9,18.7,16.4,18.3"/>
		<path fill="none" stroke="#9A72D3" stroke-linecap="round" stroke-linejoin="round" stroke-miterlimit="10" d="M16.4,18.3L13,13
			l3.3-5.3C16.9,7.3,17.5,7,18.2,7c1.7,0,3,1.3,3,3c0,1-0.5,2-1.3,2.5c0,0-0.4,0.2-0.4,0.5c0,0.3,0.4,0.5,0.4,0.5
			c0.8,0.5,1.3,1.5,1.3,2.5c0,1.7-1.3,3-3,3C17.5,19,16.9,18.7,16.4,18.3z"/>
		<path fill="#FEFEFE" d="M18.3,16.1L13,12.8l-5.3,3.3C7.3,16.6,7,17.3,7,18c0,1.7,1.3,3,3,3c1,0,2-0.5,2.5-1.3c0,0,0.2-0.4,0.5-0.4
			c0.3,0,0.5,0.4,0.5,0.4C14,20.5,15,21,16,21c1.7,0,3-1.3,3-3C19,17.3,18.7,16.6,18.3,16.1"/>
		<path fill="none" stroke="#9A72D3" stroke-linecap="round" stroke-linejoin="round" stroke-miterlimit="10" d="M18.3,16.1L13,12.8
			l-5.3,3.3C7.3,16.6,7,17.3,7,18c0,1.7,1.3,3,3,3c1,0,2-0.5,2.5-1.3c0,0,0.2-0.4,0.5-0.4c0.3,0,0.5,0.4,0.5,0.4
			C14,20.5,15,21,16,21c1.7,0,3-1.3,3-3C19,17.3,18.7,16.6,18.3,16.1z"/>
		<path fill="#FEFEFE" d="M14.1,12.8c0,0.6-0.5,1.1-1.1,1.1s-1.1-0.5-1.1-1.1c0-0.6,0.5-1.1,1.1-1.1S14.1,12.2,14.1,12.8"/>
		
			<circle fill="none" stroke="#9A72D3" stroke-linecap="round" stroke-linejoin="round" stroke-miterlimit="10" cx="13" cy="12.8" r="1.1"/>
		<line fill="#FEFEFE" x1="13" y1="15.9" x2="13" y2="17.6"/>
		
			<line fill="none" stroke="#9A72D3" stroke-linecap="round" stroke-linejoin="round" stroke-miterlimit="10" x1="13" y1="15.9" x2="13" y2="17.6"/>
		<line fill="#FEFEFE" x1="14.3" y1="15.5" x2="15.6" y2="18"/>
		
			<line fill="none" stroke="#9A72D3" stroke-linecap="round" stroke-linejoin="round" stroke-miterlimit="10" x1="14.3" y1="15.5" x2="15.6" y2="18"/>
		<line fill="#FEFEFE" x1="11.7" y1="15.5" x2="10.4" y2="18"/>
		
			<line fill="none" stroke="#9A72D3" stroke-linecap="round" stroke-linejoin="round" stroke-miterlimit="10" x1="11.7" y1="15.5" x2="10.4" y2="18"/>
		<line fill="#FEFEFE" x1="13" y1="9.6" x2="13" y2="7.9"/>
		
			<line fill="none" stroke="#9A72D3" stroke-linecap="round" stroke-linejoin="round" stroke-miterlimit="10" x1="13" y1="9.6" x2="13" y2="7.9"/>
		<line fill="#FEFEFE" x1="16.1" y1="12.8" x2="17.8" y2="12.8"/>
		
			<line fill="none" stroke="#9A72D3" stroke-linecap="round" stroke-linejoin="round" stroke-miterlimit="10" x1="16.1" y1="12.8" x2="17.8" y2="12.8"/>
		<line fill="#FEFEFE" x1="15.7" y1="11.4" x2="18.2" y2="10.1"/>
		
			<line fill="none" stroke="#9A72D3" stroke-linecap="round" stroke-linejoin="round" stroke-miterlimit="10" x1="15.7" y1="11.4" x2="18.2" y2="10.1"/>
		<line fill="#FEFEFE" x1="10" y1="12.8" x2="8.3" y2="12.8"/>
		
			<line fill="none" stroke="#9A72D3" stroke-linecap="round" stroke-linejoin="round" stroke-miterlimit="10" x1="10" y1="12.8" x2="8.3" y2="12.8"/>
		<line fill="#FEFEFE" x1="10.3" y1="11.4" x2="7.9" y2="10.1"/>
		
			<line fill="none" stroke="#9A72D3" stroke-linecap="round" stroke-linejoin="round" stroke-miterlimit="10" x1="10.3" y1="11.4" x2="7.9" y2="10.1"/>
	</g>
</g>
<g id="violet_copy" display="none">
	<g display="inline">
		<path fill="#FEFEFE" d="M18.3,9.6L13,13L7.7,9.7C7.3,9.1,7,8.5,7,7.8c0-1.7,1.3-3,3-3c1,0,2,0.5,2.5,1.3c0,0,0.2,0.4,0.5,0.4
			c0.3,0,0.5-0.4,0.5-0.4C14,5.3,15,4.8,16,4.8c1.7,0,3,1.3,3,3C19,8.5,18.7,9.1,18.3,9.6"/>
		<path fill="none" stroke="#F4C389" stroke-linecap="round" stroke-linejoin="round" stroke-miterlimit="10" d="M18.3,9.6L13,13
			L7.7,9.7C7.3,9.1,7,8.5,7,7.8c0-1.7,1.3-3,3-3c1,0,2,0.5,2.5,1.3c0,0,0.2,0.4,0.5,0.4c0.3,0,0.5-0.4,0.5-0.4C14,5.3,15,4.8,16,4.8
			c1.7,0,3,1.3,3,3C19,8.5,18.7,9.1,18.3,9.6z"/>
		<path fill="#FEFEFE" d="M9.9,18.3l3.4-5.3L9.9,7.7C9.4,7.3,8.7,7,8,7c-1.7,0-3,1.3-3,3c0,1,0.5,2,1.3,2.5c0,0,0.4,0.2,0.4,0.5
			c0,0.3-0.4,0.5-0.4,0.5C5.5,14,5,15,5,16c0,1.7,1.3,3,3,3C8.7,19,9.4,18.7,9.9,18.3"/>
		<path fill="none" stroke="#F4C389" stroke-linecap="round" stroke-linejoin="round" stroke-miterlimit="10" d="M9.9,18.3l3.4-5.3
			L9.9,7.7C9.4,7.3,8.7,7,8,7c-1.7,0-3,1.3-3,3c0,1,0.5,2,1.3,2.5c0,0,0.4,0.2,0.4,0.5c0,0.3-0.4,0.5-0.4,0.5C5.5,14,5,15,5,16
			c0,1.7,1.3,3,3,3C8.7,19,9.4,18.7,9.9,18.3z"/>
		<path fill="#FEFEFE" d="M16.4,18.3L13,13l3.3-5.3C16.9,7.3,17.5,7,18.2,7c1.7,0,3,1.3,3,3c0,1-0.5,2-1.3,2.5c0,0-0.4,0.2-0.4,0.5
			c0,0.3,0.4,0.5,0.4,0.5c0.8,0.5,1.3,1.5,1.3,2.5c0,1.7-1.3,3-3,3C17.5,19,16.9,18.7,16.4,18.3"/>
		<path fill="none" stroke="#F4C389" stroke-linecap="round" stroke-linejoin="round" stroke-miterlimit="10" d="M16.4,18.3L13,13
			l3.3-5.3C16.9,7.3,17.5,7,18.2,7c1.7,0,3,1.3,3,3c0,1-0.5,2-1.3,2.5c0,0-0.4,0.2-0.4,0.5c0,0.3,0.4,0.5,0.4,0.5
			c0.8,0.5,1.3,1.5,1.3,2.5c0,1.7-1.3,3-3,3C17.5,19,16.9,18.7,16.4,18.3z"/>
		<path fill="#FEFEFE" d="M18.3,16.1L13,12.8l-5.3,3.3C7.3,16.6,7,17.3,7,18c0,1.7,1.3,3,3,3c1,0,2-0.5,2.5-1.3c0,0,0.2-0.4,0.5-0.4
			c0.3,0,0.5,0.4,0.5,0.4C14,20.5,15,21,16,21c1.7,0,3-1.3,3-3C19,17.3,18.7,16.6,18.3,16.1"/>
		<path fill="none" stroke="#F4C389" stroke-linecap="round" stroke-linejoin="round" stroke-miterlimit="10" d="M18.3,16.1L13,12.8
			l-5.3,3.3C7.3,16.6,7,17.3,7,18c0,1.7,1.3,3,3,3c1,0,2-0.5,2.5-1.3c0,0,0.2-0.4,0.5-0.4c0.3,0,0.5,0.4,0.5,0.4
			C14,20.5,15,21,16,21c1.7,0,3-1.3,3-3C19,17.3,18.7,16.6,18.3,16.1z"/>
		<path fill="#FEFEFE" d="M14.1,12.8c0,0.6-0.5,1.1-1.1,1.1s-1.1-0.5-1.1-1.1c0-0.6,0.5-1.1,1.1-1.1S14.1,12.2,14.1,12.8"/>
		
			<circle fill="none" stroke="#F4C389" stroke-linecap="round" stroke-linejoin="round" stroke-miterlimit="10" cx="13" cy="12.8" r="1.1"/>
		<line fill="#FEFEFE" x1="13" y1="15.9" x2="13" y2="17.6"/>
		
			<line fill="none" stroke="#F4C389" stroke-linecap="round" stroke-linejoin="round" stroke-miterlimit="10" x1="13" y1="15.9" x2="13" y2="17.6"/>
		<line fill="#FEFEFE" x1="14.3" y1="15.5" x2="15.6" y2="18"/>
		
			<line fill="none" stroke="#F4C389" stroke-linecap="round" stroke-linejoin="round" stroke-miterlimit="10" x1="14.3" y1="15.5" x2="15.6" y2="18"/>
		<line fill="#FEFEFE" x1="11.7" y1="15.5" x2="10.4" y2="18"/>
		
			<line fill="none" stroke="#F4C389" stroke-linecap="round" stroke-linejoin="round" stroke-miterlimit="10" x1="11.7" y1="15.5" x2="10.4" y2="18"/>
		<line fill="#FEFEFE" x1="13" y1="9.6" x2="13" y2="7.9"/>
		
			<line fill="none" stroke="#F4C389" stroke-linecap="round" stroke-linejoin="round" stroke-miterlimit="10" x1="13" y1="9.6" x2="13" y2="7.9"/>
		<line fill="#FEFEFE" x1="16.1" y1="12.8" x2="17.8" y2="12.8"/>
		
			<line fill="none" stroke="#F4C389" stroke-linecap="round" stroke-linejoin="round" stroke-miterlimit="10" x1="16.1" y1="12.8" x2="17.8" y2="12.8"/>
		<line fill="#FEFEFE" x1="15.7" y1="11.4" x2="18.2" y2="10.1"/>
		
			<line fill="none" stroke="#F4C389" stroke-linecap="round" stroke-linejoin="round" stroke-miterlimit="10" x1="15.7" y1="11.4" x2="18.2" y2="10.1"/>
		<line fill="#FEFEFE" x1="10" y1="12.8" x2="8.3" y2="12.8"/>
		
			<line fill="none" stroke="#F4C389" stroke-linecap="round" stroke-linejoin="round" stroke-miterlimit="10" x1="10" y1="12.8" x2="8.3" y2="12.8"/>
		<line fill="#FEFEFE" x1="10.3" y1="11.4" x2="7.9" y2="10.1"/>
		
			<line fill="none" stroke="#F4C389" stroke-linecap="round" stroke-linejoin="round" stroke-miterlimit="10" x1="10.3" y1="11.4" x2="7.9" y2="10.1"/>
	</g>
</g>
<g id="anise_1_" display="none">
	<g display="inline">
		<path fill="none" stroke="#070606" stroke-linecap="round" stroke-linejoin="round" stroke-miterlimit="10" d="M10.5,23.5
			c3.8-7.1,2.3-16.4,2.3-16.4"/>
		<path fill="none" stroke="#070606" stroke-linecap="round" stroke-linejoin="round" stroke-miterlimit="10" d="M15.7,9.5
			c-0.6,1.1-1.6,2.7-2.5,3.6"/>
		<path fill="none" stroke="#070606" stroke-linecap="round" stroke-linejoin="round" stroke-miterlimit="10" d="M17.1,15.5
			c-1,1.3-2.5,2.7-4.7,3.3"/>
		<path fill="none" stroke="#070606" stroke-linecap="round" stroke-linejoin="round" stroke-miterlimit="10" d="M10.3,11.3
			c0,0,0.6,3.2,2.3,5"/>
		<path fill="none" stroke="#070606" stroke-linecap="round" stroke-linejoin="round" stroke-miterlimit="10" d="M7.7,17.3
			c0.7,2.4,2.1,3.6,3.4,4.9"/>
		<path fill="none" stroke="#070606" stroke-linecap="round" stroke-linejoin="round" stroke-miterlimit="10" d="M8.5,12.8
			c-0.2,0-0.4,0.1-0.6,0.2c-0.2-0.1-0.4-0.2-0.6-0.2c-0.6,0-1.1,0.4-1.2,1c0,0.2-0.1,0.9-0.1,1.1c0,0.4,0.2,0.8,0.5,1v0.3
			c0,0.6,0.4,1.1,1,1.2c0.2,0,0.4-0.1,0.6-0.2c0.3-0.2,0.5-0.5,0.6-0.9V16c0.4-0.2,0.7-0.5,0.7-0.9c0-0.2,0.1-0.9,0.1-1.1
			C9.6,13.3,9.1,12.8,8.5,12.8z"/>
		<path fill="none" stroke="#070606" stroke-linecap="round" stroke-linejoin="round" stroke-miterlimit="10" d="M19.1,11.2
			c-0.2-0.1-0.4,0-0.6,0.1c-0.1-0.2-0.3-0.3-0.5-0.3c-0.6-0.1-1.2,0.2-1.3,0.8c0,0.2-0.2,0.9-0.3,1.1c-0.1,0.4,0.1,0.8,0.3,1.1
			l-0.1,0.3c-0.1,0.6,0.2,1.2,0.8,1.3c0.2,0.1,0.4,0,0.6-0.1c0.3-0.1,0.6-0.4,0.7-0.8l0-0.3c0.4-0.1,0.7-0.4,0.8-0.8
			c0-0.2,0.2-0.9,0.3-1.1C20.1,11.9,19.7,11.3,19.1,11.2z"/>
		<path fill="none" stroke="#070606" stroke-linecap="round" stroke-linejoin="round" stroke-miterlimit="10" d="M18.2,5.6
			c-0.2-0.1-0.4-0.1-0.6-0.1c-0.1-0.2-0.3-0.3-0.5-0.4c-0.6-0.2-1.2,0-1.5,0.6c-0.1,0.2-0.4,0.8-0.4,1c-0.2,0.4-0.1,0.8,0.2,1.1
			l-0.1,0.3c-0.2,0.6,0,1.2,0.6,1.5c0.2,0.1,0.4,0.1,0.6,0.1c0.3-0.1,0.7-0.3,0.8-0.6l0.1-0.3c0.4,0,0.8-0.3,1-0.7
			c0.1-0.2,0.4-0.8,0.4-1C19,6.5,18.7,5.9,18.2,5.6z"/>
		<path fill="none" stroke="#070606" stroke-linecap="round" stroke-linejoin="round" stroke-miterlimit="10" d="M9.1,6.8
			C8.9,6.9,8.8,7.1,8.6,7.2c-0.2,0-0.4-0.1-0.6,0C7.4,7.5,7.2,8.2,7.4,8.7c0.1,0.2,0.3,0.8,0.4,1c0.2,0.4,0.5,0.6,0.9,0.7l0.1,0.3
			c0.2,0.6,0.9,0.8,1.4,0.6c0.2-0.1,0.4-0.2,0.5-0.4c0.2-0.3,0.3-0.7,0.1-1l-0.1-0.2C11,9.3,11.1,8.9,11,8.5c-0.1-0.2-0.3-0.8-0.4-1
			C10.3,6.9,9.7,6.6,9.1,6.8z"/>
		<path fill="none" stroke="#070606" stroke-linecap="round" stroke-linejoin="round" stroke-miterlimit="10" d="M12.8,2.5
			c-0.2,0-0.4,0.1-0.6,0.3c-0.2-0.1-0.4-0.2-0.6-0.1c-0.6,0.1-1,0.6-1,1.2c0,0.2,0.1,0.9,0.1,1.1c0.1,0.4,0.3,0.7,0.7,0.9l0.1,0.3
			c0.1,0.6,0.6,1,1.2,1c0.2,0,0.4-0.1,0.6-0.3c0.3-0.2,0.4-0.6,0.4-1l-0.1-0.3C14,5.4,14.2,5,14.1,4.6c0-0.2-0.1-0.9-0.1-1.1
			C13.9,2.9,13.4,2.4,12.8,2.5z"/>
	</g>
</g>
<g id="_x35_-spice_1_" display="none">
	<g display="inline">
		<path fill="#FEFFFF" stroke="#AF563A" stroke-miterlimit="10" d="M6,13c0.9-0.4,2.2-0.7,3.3-0.7c0.8,0,1.2,0.1,1.8,0.7
			c-0.6,0.6-1,0.7-1.8,0.7C8.1,13.7,6.9,13.4,6,13"/>
		<path fill="none" stroke="#AF563A" stroke-linecap="round" stroke-linejoin="round" stroke-miterlimit="10" d="M6,13
			c0.9-0.4,2.2-0.7,3.3-0.7c0.8,0,1.2,0.1,1.8,0.7c-0.6,0.6-1,0.7-1.8,0.7C8.1,13.7,6.9,13.4,6,13z"/>
		<path fill="#FEFFFF" stroke="#AF563A" stroke-miterlimit="10" d="M8,18c0.4-0.9,1.1-2,1.8-2.8c0.5-0.5,0.9-0.8,1.7-0.8
			c0,0.8-0.2,1.2-0.8,1.7C10,16.9,8.9,17.6,8,18"/>
		<path fill="none" stroke="#AF563A" stroke-linecap="round" stroke-linejoin="round" stroke-miterlimit="10" d="M8,18
			c0.4-0.9,1.1-2,1.8-2.8c0.5-0.5,0.9-0.8,1.7-0.8c0,0.8-0.2,1.2-0.8,1.7C10,16.9,8.9,17.6,8,18z"/>
		<path fill="#FEFFFF" stroke="#AF563A" stroke-miterlimit="10" d="M13,20.3c-0.4-0.9-0.7-2.2-0.7-3.3c0-0.8,0.1-1.2,0.7-1.8
			c0.6,0.6,0.7,1,0.7,1.8C13.7,18.1,13.4,19.4,13,20.3"/>
		<path fill="none" stroke="#AF563A" stroke-linecap="round" stroke-linejoin="round" stroke-miterlimit="10" d="M13,20.3
			c-0.4-0.9-0.7-2.2-0.7-3.3c0-0.8,0.1-1.2,0.7-1.8c0.6,0.6,0.7,1,0.7,1.8C13.7,18.1,13.4,19.4,13,20.3z"/>
		<path fill="#FEFFFF" stroke="#AF563A" stroke-miterlimit="10" d="M18.2,18.2c-0.9-0.4-2-1.1-2.8-1.8c-0.5-0.5-0.8-0.9-0.8-1.7
			c0.8,0,1.2,0.2,1.7,0.8C17.1,16.1,17.8,17.2,18.2,18.2"/>
		<path fill="none" stroke="#AF563A" stroke-linecap="round" stroke-linejoin="round" stroke-miterlimit="10" d="M18.2,18.2
			c-0.9-0.4-2-1.1-2.8-1.8c-0.5-0.5-0.8-0.9-0.8-1.7c0.8,0,1.2,0.2,1.7,0.8C17.1,16.1,17.8,17.2,18.2,18.2z"/>
		<path fill="#FEFFFF" stroke="#AF563A" stroke-miterlimit="10" d="M20.3,13c-0.9,0.4-2.2,0.7-3.2,0.7c-0.8,0-1.2-0.1-1.8-0.7
			c0.6-0.6,1-0.7,1.8-0.7C18.1,12.3,19.4,12.6,20.3,13"/>
		<path fill="none" stroke="#AF563A" stroke-linecap="round" stroke-linejoin="round" stroke-miterlimit="10" d="M20.3,13
			c-0.9,0.4-2.2,0.7-3.2,0.7c-0.8,0-1.2-0.1-1.8-0.7c0.6-0.6,1-0.7,1.8-0.7C18.1,12.3,19.4,12.6,20.3,13z"/>
		<path fill="#FEFFFF" stroke="#AF563A" stroke-miterlimit="10" d="M18.2,7.8c-0.4,0.9-1.1,2-1.8,2.8c-0.5,0.5-0.9,0.8-1.7,0.8
			c0-0.8,0.2-1.2,0.8-1.7C16.1,8.9,17.2,8.2,18.2,7.8"/>
		<path fill="none" stroke="#AF563A" stroke-linecap="round" stroke-linejoin="round" stroke-miterlimit="10" d="M18.2,7.8
			c-0.4,0.9-1.1,2-1.8,2.8c-0.5,0.5-0.9,0.8-1.7,0.8c0-0.8,0.2-1.2,0.8-1.7C16.1,8.9,17.2,8.2,18.2,7.8z"/>
		<path fill="#FEFFFF" stroke="#AF563A" stroke-miterlimit="10" d="M8,8c0.9,0.4,2,1.1,2.8,1.8c0.5,0.5,0.8,0.9,0.8,1.7
			c-0.8,0-1.2-0.2-1.7-0.8C9.1,10,8.4,8.9,8,8"/>
		<path fill="none" stroke="#AF563A" stroke-linecap="round" stroke-linejoin="round" stroke-miterlimit="10" d="M8,8
			c0.9,0.4,2,1.1,2.8,1.8c0.5,0.5,0.8,0.9,0.8,1.7c-0.8,0-1.2-0.2-1.7-0.8C9.1,10,8.4,8.9,8,8z"/>
		<path fill="none" stroke="#AF563A" stroke-linecap="round" stroke-linejoin="round" stroke-miterlimit="10" d="M17.8,15
			c2-0.2,4.4-0.9,5.2-2c-0.9-1.1-3.2-1.8-5.2-2c1.3-1.5,2.4-3.7,2.3-5.1c-1.4-0.1-3.6,1-5.1,2.3c-0.2-2-0.9-4.4-2-5.2
			c-1.1,0.9-1.8,3.2-2,5.2C9.5,6.9,7.3,5.8,5.9,5.9c-0.1,1.4,1,3.6,2.3,5.1c-2,0.2-4.4,0.9-5.2,2c0.9,1.1,3.2,1.8,5.2,2
			c-1.3,1.5-2.4,3.7-2.3,5.1c1.4,0.1,3.6-1,5.1-2.3c0.2,2,0.9,4.4,2,5.2c1.1-0.9,1.8-3.2,2-5.2c1.5,1.3,3.7,2.4,5.1,2.3
			C20.2,18.7,19.1,16.5,17.8,15z M13,13L13,13L13,13L13,13L13,13L13,13L13,13L13,13L13,13L13,13L13,13L13,13L13,13L13,13L13,13
			C13,13,13,13,13,13z"/>
		<path fill="#FEFFFF" stroke="#AF563A" stroke-miterlimit="10" d="M13,6c0.4,0.9,0.7,2.2,0.7,3.2c0,0.8-0.1,1.2-0.7,1.8
			c-0.6-0.6-0.7-1-0.7-1.8C12.3,8.1,12.6,6.9,13,6"/>
		<path fill="none" stroke="#AF563A" stroke-linecap="round" stroke-linejoin="round" stroke-miterlimit="10" d="M13,6
			c0.4,0.9,0.7,2.2,0.7,3.2c0,0.8-0.1,1.2-0.7,1.8c-0.6-0.6-0.7-1-0.7-1.8C12.3,8.1,12.6,6.9,13,6z"/>
	</g>
</g>
<g id="rose" display="none">
	<g display="inline">
		<path fill="none" stroke="#F44573" stroke-linecap="round" stroke-linejoin="round" stroke-miterlimit="10" d="M8.3,12.7
			c0,0,0.4-2.3,1.6-2.2c1.1,0.1,2.7,0.3,3.5,0c0.7-0.3,1.3-1.3,2-1.5c1.1-0.2,2.3,0.3,2.2,1.5c0,0,0.4,2-1.6,2"/>
		<path fill="none" stroke="#F44573" stroke-linecap="round" stroke-linejoin="round" stroke-miterlimit="10" d="M16.1,7.6
			c0,0-1.3-4-5-3.1c-1,0.3-2.2,0.8-2.2,3.1"/>
		<path fill="none" stroke="#F44573" stroke-linecap="round" stroke-linejoin="round" stroke-miterlimit="10" d="M9,6.5
			c0,0-2.1-1.1-3.2,1.9c-0.7,2-1.5,3.2,1.3,4c3.1,0.8,3.8,1.2,5.5,2.5"/>
		<path fill="none" stroke="#F44573" stroke-linecap="round" stroke-linejoin="round" stroke-miterlimit="10" d="M12.3,16.2
			c0,0,0.2-3.8,4.4-3.8c3.4,0,4.3-2.5,3.7-3.9c-0.6-1.4-3.5-3.4-4.6,0.3"/>
		<path fill="none" stroke="#F44573" stroke-linecap="round" stroke-linejoin="round" stroke-miterlimit="10" d="M14.3,5.1
			c0,0,3.5-1.5,3.7,1.6"/>
		<path fill="none" stroke="#F44573" stroke-linecap="round" stroke-linejoin="round" stroke-miterlimit="10" d="M20.5,9.9
			c0,0,2.9,0.2,2.8,2.2c-0.1,2-3,3.4-3,3.4"/>
		<path fill="none" stroke="#F44573" stroke-linecap="round" stroke-linejoin="round" stroke-miterlimit="10" d="M5.5,9
			c0,0-2.4,0.1-2.8,2.8c-0.2,1.4,0.5,3.5,2.1,3.8c1.8,0.4,2.4,0,2.4,0s0.8-0.6,3.1,0.4"/>
		<path fill="none" stroke="#F44573" stroke-linecap="round" stroke-linejoin="round" stroke-miterlimit="10" d="M6.6,16.5
			c0,0-0.1-1.3,1.5-1.2c1.6,0.1,2.2,1.1,4.3,0.9c2.1-0.2,3.6-1.4,4.9-1.5c1.3,0,2.9-0.8,2.8,0.4c-0.1,1.2-0.1,2.3-2,2.4
			c-1.9,0.1-4.2,1.8-5.7,1.8C10.9,19.2,6.5,18.2,6.6,16.5z"/>
		<path fill="none" stroke="#F44573" stroke-linecap="round" stroke-linejoin="round" stroke-miterlimit="10" d="M19,17.3
			c0,0-0.3,2.4-2.6,3.6c-1.5,0.8-5,0.8-6.2,0.5C8,21,4.9,18.1,4.9,15.9"/>
		<path fill="none" stroke="#F44573" stroke-linecap="round" stroke-linejoin="round" stroke-miterlimit="10" d="M12,10.7
			c0,0-1.1-3.1-3.1-3c-1.5,0-1.4,2.2-1.4,2.2s-0.1,1.6,1.2,1.6"/>
		<path fill="none" stroke="#F44573" stroke-linecap="round" stroke-linejoin="round" stroke-miterlimit="10" d="M11.4,9.4
			c0,0,0.4-2.2,1.7-1.5c1.4,0.8,1.4,1.4,1.4,1.4"/>
	</g>
</g>
<g id="hibiscus_1_" display="none">
	<g display="inline">
		<path fill="none" stroke="#E32056" stroke-linecap="round" stroke-linejoin="round" stroke-miterlimit="10" d="M22.9,10.8
			c0,0-3.9-3.6-7.7,0C17.6,6,13,3.4,13,3.4S8.4,6,10.8,10.8c-3.8-3.6-7.7,0-7.7,0s1.2,5.1,6.3,4.3c-4.4,2.7-1.9,7.4-1.9,7.4
			s4.2,0.2,5.5-3.5c1.3,3.7,5.5,3.5,5.5,3.5s2.5-4.6-1.9-7.4C21.7,15.9,22.9,10.8,22.9,10.8z M13,13.7C13,13.7,13,13.7,13,13.7
			C13,13.7,13,13.7,13,13.7C13,13.7,12.9,13.7,13,13.7c-0.1,0-0.1-0.1-0.1-0.1C12.9,13.6,12.9,13.7,13,13.7c0,0,0.1-0.1,0.1-0.1
			C13.1,13.6,13.1,13.7,13,13.7C13,13.7,13,13.7,13,13.7z"/>
		
			<line fill="none" stroke="#E32056" stroke-linecap="round" stroke-linejoin="round" stroke-miterlimit="10" x1="13" y1="13.7" x2="13" y2="11.1"/>
		
			<line fill="none" stroke="#E32056" stroke-linecap="round" stroke-linejoin="round" stroke-miterlimit="10" x1="13" y1="13.7" x2="10.6" y2="13.1"/>
		
			<line fill="none" stroke="#E32056" stroke-linecap="round" stroke-linejoin="round" stroke-miterlimit="10" x1="13" y1="13.7" x2="11.4" y2="16"/>
		
			<line fill="none" stroke="#E32056" stroke-linecap="round" stroke-linejoin="round" stroke-miterlimit="10" x1="13" y1="13.7" x2="15.4" y2="13.1"/>
		
			<line fill="none" stroke="#E32056" stroke-linecap="round" stroke-linejoin="round" stroke-miterlimit="10" x1="13" y1="13.7" x2="14.6" y2="16"/>
	</g>
</g>
<g id="acacia_1_" display="none">
	<g display="inline">
		<path fill="none" stroke="#FFE10B" stroke-linecap="round" stroke-linejoin="round" stroke-miterlimit="10" d="M12.5,23.4
			C16.3,16.3,14.8,7,14.8,7"/>
		<path fill="none" stroke="#FFE10B" stroke-linecap="round" stroke-linejoin="round" stroke-miterlimit="10" d="M18.3,10.6
			c-0.4,3-1.8,5.5-3.7,6.9"/>
		<path fill="none" stroke="#FFE10B" stroke-linecap="round" stroke-linejoin="round" stroke-miterlimit="10" d="M10.1,8.6
			c0,0,2.1,7.5,4.6,9"/>
		
			<circle fill="none" stroke="#FFE10B" stroke-linecap="round" stroke-linejoin="round" stroke-miterlimit="10" cx="19.1" cy="8.6" r="2"/>
		
			<circle fill="none" stroke="#FFE10B" stroke-linecap="round" stroke-linejoin="round" stroke-miterlimit="10" cx="8.9" cy="7" r="2"/>
		<path fill="none" stroke="#FFE10B" stroke-linecap="round" stroke-linejoin="round" stroke-miterlimit="10" d="M8.3,14.6
			c0,0,2.6,3.3,6,4"/>
		
			<circle fill="none" stroke="#FFE10B" stroke-linecap="round" stroke-linejoin="round" stroke-miterlimit="10" cx="6.9" cy="13.2" r="2"/>
		
			<circle fill="none" stroke="#FFE10B" stroke-linecap="round" stroke-linejoin="round" stroke-miterlimit="10" cx="14.3" cy="4.6" r="2"/>
	</g>
</g>
<g id="sage" display="none">
	<g display="inline">
		<path fill="none" stroke="#A7C288" stroke-linecap="round" stroke-linejoin="round" stroke-miterlimit="10" d="M12.1,24.4
			c-5.7-7.3-3-18-3-18"/>
		<path fill="none" stroke="#A7C288" stroke-linecap="round" stroke-linejoin="round" stroke-miterlimit="10" d="M13.2,15.1
			c0.1-0.2,0.1-0.4,0.2-0.5c1-3.3,0.9-5.9,0.9-5.9"/>
		<path fill="none" stroke="#A7C288" stroke-linecap="round" stroke-linejoin="round" stroke-miterlimit="10" d="M11.3,14
			c0-0.3-0.1-0.6-0.1-1c-0.3-1.6-1.3-1.7-0.4-6.4c1-4.9-0.7-7-3.3-2.6c-2.4,4-1.3,7.3-1.4,8.5c0,1.2,0.9,6.3,3.5,6.4
			c0,0,0.6-0.4,1.1-1.4C11.1,16.7,11.4,15.6,11.3,14z"/>
		<path fill="none" stroke="#A7C288" stroke-linecap="round" stroke-linejoin="round" stroke-miterlimit="10" d="M15.6,14.2
			c0.4-1.1,1.6-3.6,0.6-7.3c-1.2-4.3-3-2.9-3.2,1.5c-0.2,4.2-1.1,4.1-1.6,5.3c0,0.1-0.1,0.2-0.1,0.2c0.1,1.6-0.2,2.7-0.5,3.5
			c0.2,1,0.7,1.6,0.7,1.6c0,0,0,0,0,0C11.6,17.5,12.4,14.8,15.6,14.2z"/>
		<path fill="none" stroke="#A7C288" stroke-linecap="round" stroke-linejoin="round" stroke-miterlimit="10" d="M19.3,13.3
			c-0.8,0.8-2.4,0.8-2.4,0.8c-0.5,0-0.9,0-1.3,0.1c-3.2,0.6-4,3.3-4.2,4.9c-0.1,0.7-0.1,1.2-0.1,1.2c0.9,0,4.4,0.3,4.4-1.6
			c0-1.9,2.2-2.6,3.5-4C20.7,13.3,20.1,12.5,19.3,13.3z"/>
		<path fill="none" stroke="#A7C288" stroke-linecap="round" stroke-linejoin="round" stroke-miterlimit="10" d="M15.8,15.7
			c0,0-6.2,3.2-4.5,7.5"/>
		<path fill="none" stroke="#A7C288" stroke-linecap="round" stroke-linejoin="round" stroke-miterlimit="10" d="M11.6,23.7
			c0,0-3.1-4.1-5.5-4.8"/>
	</g>
</g>
<g id="pepper_black" display="none">
	<g display="inline">
		<path fill="#070606" d="M15.7,17.7c-1.3-3.6-1.3-3.9-0.2-4.9c0,0-0.1-0.9-0.9-0.9l-0.1-0.4c1-0.5,1.7-1.6,1.7-2.8
			c0-1.8-1.5-3.2-3.2-3.2c-1.8,0-3.2,1.4-3.2,3.2c0,1.2,0.7,2.3,1.7,2.8l-0.1,0.4c-0.8,0-0.9,0.9-0.9,0.9c1,1,1.1,1.3-0.2,4.9
			c-1.3,3.6,0,5.7,0,5.7H13h2.7C15.7,23.3,17,21.2,15.7,17.7"/>
		<path fill="none" stroke="#070606" stroke-linecap="round" stroke-linejoin="round" stroke-miterlimit="10" d="M15.7,17.7
			c-1.3-3.6-1.3-3.9-0.2-4.9c0,0-0.1-0.9-0.9-0.9l-0.1-0.4c1-0.5,1.7-1.6,1.7-2.8c0-1.8-1.5-3.2-3.2-3.2c-1.8,0-3.2,1.4-3.2,3.2
			c0,1.2,0.7,2.3,1.7,2.8l-0.1,0.4c-0.8,0-0.9,0.9-0.9,0.9c1,1,1.1,1.3-0.2,4.9c-1.3,3.6,0,5.7,0,5.7H13h2.7
			C15.7,23.3,17,21.2,15.7,17.7z"/>
		
			<line fill="none" stroke="#070606" stroke-linecap="round" stroke-linejoin="round" stroke-miterlimit="10" x1="13" y1="6.1" x2="13" y2="2.7"/>
		
			<circle fill="none" stroke="#070606" stroke-linecap="round" stroke-linejoin="round" stroke-miterlimit="10" cx="13" cy="4.3" r="0.6"/>
	</g>
</g>
<g id="pepper_white" display="none">
	<path display="inline" fill="none" stroke="#807F7B" stroke-linecap="round" stroke-linejoin="round" stroke-miterlimit="10" d="
		M15.7,17.7c-1.3-3.6-1.3-3.9-0.2-4.9c0,0-0.1-0.9-0.9-0.9l-0.1-0.4c1-0.5,1.7-1.6,1.7-2.8c0-1.8-1.5-3.2-3.2-3.2
		c-1.8,0-3.2,1.4-3.2,3.2c0,1.2,0.7,2.3,1.7,2.8l-0.1,0.4c-0.8,0-0.9,0.9-0.9,0.9c1,1,1.1,1.3-0.2,4.9c-1.3,3.6,0,5.7,0,5.7H13h2.7
		C15.7,23.3,17,21.2,15.7,17.7z"/>
</g>
<g id="bell_pepper" display="none">
	<g display="inline">
		<path fill="none" stroke="#73B540" stroke-linecap="round" stroke-linejoin="round" stroke-miterlimit="10" d="M16.4,6.4
			c-0.6,0-1.2,0.1-1.7,0.4c1.4,0.6,2.3,2,2.3,3.6v8.9c0,1.6-1,3-2.3,3.6c0.5,0.2,1.1,0.4,1.7,0.4c2.2,0,3-1.8,3-4l1-8.9
			C20.4,8.2,18.6,6.4,16.4,6.4z"/>
		<path fill="none" stroke="#73B540" stroke-linecap="round" stroke-linejoin="round" stroke-miterlimit="10" d="M9.6,6.4
			c0.6,0,1.2,0.1,1.7,0.4C9.9,7.4,9,8.8,9,10.4v8.9c0,1.6,1,3,2.3,3.6c-0.5,0.2-1.1,0.4-1.7,0.4c-2.2,0-3-1.8-3-4l-1-8.9
			C5.6,8.2,7.4,6.4,9.6,6.4z"/>
		<path fill="none" stroke="#73B540" stroke-linecap="round" stroke-linejoin="round" stroke-miterlimit="10" d="M14.7,6.8
			c-0.5-0.2-1.1-0.4-1.7-0.4c-2.2,0-4,1.8-4,4v8.9c0,2.2,1.8,4,4,4c0.6,0,1.2-0.1,1.7-0.4c1.4-0.6,2.3-2,2.3-3.6v-8.9
			C17,8.8,16.1,7.4,14.7,6.8z"/>
		<path fill="none" stroke="#73B540" stroke-linecap="round" stroke-linejoin="round" stroke-miterlimit="10" d="M11.6,2.7
			c0.8,0,1.5,0.7,1.5,1.5v2.2"/>
	</g>
</g>
<g id="cinnamon" display="none">
	<g display="inline">
		
			<line fill="none" stroke="#C23C02" stroke-linecap="round" stroke-linejoin="round" stroke-miterlimit="10" x1="13.7" y1="20.6" x2="13.7" y2="5.4"/>
		
			<line fill="none" stroke="#C23C02" stroke-linecap="round" stroke-linejoin="round" stroke-miterlimit="10" x1="16.3" y1="5.4" x2="16.3" y2="20.6"/>
		
			<line fill="none" stroke="#C23C02" stroke-linecap="round" stroke-linejoin="round" stroke-miterlimit="10" x1="9.7" y1="20.6" x2="9.7" y2="5.4"/>
		
			<line fill="none" stroke="#C23C02" stroke-linecap="round" stroke-linejoin="round" stroke-miterlimit="10" x1="12.3" y1="5.4" x2="12.3" y2="20.6"/>
		<path fill="none" stroke="#C23C02" stroke-linecap="round" stroke-linejoin="round" stroke-miterlimit="10" d="M12.3,5.3
			c0,0.7-0.6,1.3-1.3,1.3c-0.7,0-1.3-0.6-1.3-1.3C9.7,4.6,10.3,4,11,4h4c0.7,0,1.3,0.6,1.3,1.3c0,0.7-0.6,1.3-1.3,1.3
			c-0.7,0-1.3-0.6-1.3-1.3"/>
		<path fill="none" stroke="#C23C02" stroke-linecap="round" stroke-linejoin="round" stroke-miterlimit="10" d="M16.3,20.7
			c0,0.7-0.6,1.3-1.3,1.3c-0.7,0-1.3-0.6-1.3-1.3"/>
		<path fill="none" stroke="#C23C02" stroke-linecap="round" stroke-linejoin="round" stroke-miterlimit="10" d="M12.3,20.7
			c0,0.7-0.6,1.3-1.3,1.3c-0.7,0-1.3-0.6-1.3-1.3"/>
		
			<line fill="none" stroke="#C23C02" stroke-linecap="round" stroke-linejoin="round" stroke-miterlimit="10" x1="12.3" y1="20.1" x2="13.7" y2="20.1"/>
	</g>
</g>
<g id="dill" display="none">
	<g display="inline">
		<path fill="none" stroke="#65BA44" stroke-linecap="round" stroke-linejoin="round" stroke-miterlimit="10" d="M2.8,24.1
			c7.3-2.7,11.9-15,11.9-15"/>
		<path fill="none" stroke="#65BA44" stroke-linecap="round" stroke-linejoin="round" stroke-miterlimit="10" d="M20.4,7.6
			c-4,7.5-9,8.7-9,8.7s5.7,3.5,8.7-1.5"/>
		<path fill="none" stroke="#65BA44" stroke-linecap="round" stroke-linejoin="round" stroke-miterlimit="10" d="M20.1,4.8
			c0,0-0.2,1,0.2,2.5c0,0-1.8-0.2-2-1.1"/>
		<path fill="none" stroke="#65BA44" stroke-linecap="round" stroke-linejoin="round" stroke-miterlimit="10" d="M23.2,6.4
			c0,0-0.7,0.7-2.2,1.2c0,0,1.2,1.4,2,1.1"/>
		
			<line fill="none" stroke="#65BA44" stroke-linecap="round" stroke-linejoin="round" stroke-miterlimit="10" x1="20.7" y1="7.3" x2="22.3" y2="4.4"/>
		<path fill="none" stroke="#65BA44" stroke-linecap="round" stroke-linejoin="round" stroke-miterlimit="10" d="M20.1,12.4
			c0,0-0.9,0.9,0,2"/>
		<path fill="none" stroke="#65BA44" stroke-linecap="round" stroke-linejoin="round" stroke-miterlimit="10" d="M22.7,14.4
			c0,0-1,1-2.1,0.4"/>
		
			<line fill="none" stroke="#65BA44" stroke-linecap="round" stroke-linejoin="round" stroke-miterlimit="10" x1="20.5" y1="14.5" x2="22" y2="12.6"/>
		<path fill="none" stroke="#65BA44" stroke-linecap="round" stroke-linejoin="round" stroke-miterlimit="10" d="M13.3,9.3
			c0,0-0.4,0.9,0.5,1.6"/>
		<path fill="none" stroke="#65BA44" stroke-linecap="round" stroke-linejoin="round" stroke-miterlimit="10" d="M15.9,10.2
			c0,0-0.5,1-1.6,0.8"/>
		<path fill="none" stroke="#65BA44" stroke-linecap="round" stroke-linejoin="round" stroke-miterlimit="10" d="M13.1,5.2
			c-4,7.5-1.7,11.2-1.7,11.2s-6.1-2.8-3.6-8"/>
		<path fill="none" stroke="#65BA44" stroke-linecap="round" stroke-linejoin="round" stroke-miterlimit="10" d="M15.6,3.8
			c0,0-0.7,0.7-2.2,1.2c0,0,1.2,1.4,2,1.1"/>
		<path fill="none" stroke="#65BA44" stroke-linecap="round" stroke-linejoin="round" stroke-miterlimit="10" d="M12.6,2.2
			c0,0-0.2,1,0.2,2.5c0,0-1.8-0.2-2-1.1"/>
		
			<line fill="none" stroke="#65BA44" stroke-linecap="round" stroke-linejoin="round" stroke-miterlimit="10" x1="13.2" y1="4.7" x2="14.7" y2="1.9"/>
		<path fill="none" stroke="#65BA44" stroke-linecap="round" stroke-linejoin="round" stroke-miterlimit="10" d="M9.9,7
			c0,0-0.3,1.2-1.7,1.1"/>
		<path fill="none" stroke="#65BA44" stroke-linecap="round" stroke-linejoin="round" stroke-miterlimit="10" d="M6.7,5.9
			c0,0-0.2,1.4,0.9,2"/>
		
			<line fill="none" stroke="#65BA44" stroke-linecap="round" stroke-linejoin="round" stroke-miterlimit="10" x1="8" y1="7.8" x2="8.7" y2="5.5"/>
	</g>
</g>
<g id="perfume" display="none">
	<g display="inline">
		<path fill="none" stroke="#E8AA4C" stroke-linecap="round" stroke-linejoin="round" stroke-miterlimit="10" d="M15.9,12.2
			l-1.8-0.8V9c0.5-0.1,0.7-0.2,0.7-0.3c0-0.2-0.8-0.4-1.9-0.4s-1.8,0.2-1.8,0.4c0,0.1,0,0.3,0.5,0.3v2.5l-1.9,0.8l-3.9,7.6L8.6,23
			h8.9l2.7-3.2L15.9,12.2z"/>
		<path fill="none" stroke="#E8AA4C" stroke-linecap="round" stroke-linejoin="round" stroke-miterlimit="10" d="M14.1,11.4
			c-0.3,0-0.8,0.1-1.3,0.1s-0.9,0-1.3-0.1"/>
		<path fill="none" stroke="#E8AA4C" stroke-linecap="round" stroke-linejoin="round" stroke-miterlimit="10" d="M11.7,7.3
			C11.8,7.6,12,8,12.2,8.3c0.2,0,0.4,0,0.7,0c0.3,0,0.5,0,0.7,0c0.2-0.3,0.3-0.6,0.5-0.9h0.3l0.9-2.7L12.9,3l-2.4,1.7l0.9,2.7H11.7z
			"/>
	</g>
</g>
<g id="pepper_red">
	<g>
		<path fill="none" stroke="#AC0000" stroke-linecap="round" stroke-linejoin="round" stroke-miterlimit="10" d="M18.7,2.6
			c-0.8-0.1-1.6,0.4-1.7,1.2L16.6,6"/>
		<path fill="none" stroke="#AC0000" stroke-linecap="round" stroke-linejoin="round" stroke-miterlimit="10" d="M18.9,7.6
			c0,0.6-0.3,1.1-0.4,1.9c-0.9,4.1-4.1,10.3-11.4,13.9c0,0,5.9-8.2,6.5-15.3c0-0.5,0.1-1.2,0.7-2c0.9-1,1.9,0.2,3,0.2
			C18.5,6.2,19,7.3,18.9,7.6z"/>
	</g>
</g>
</svg>
