<svg viewBox="0 0 26 26" xmlns="http://www.w3.org/2000/svg"><g fill="none" stroke="#070606" stroke-linecap="round" stroke-linejoin="round" stroke-miterlimit="10"><path d="m10.5 23.5c3.8-7.1 2.3-16.4 2.3-16.4"/><path d="m15.7 9.5c-.6 1.1-1.6 2.7-2.5 3.6"/><path d="m17.1 15.5c-1 1.3-2.5 2.7-4.7 3.3"/><path d="m10.3 11.3s.6 3.2 2.3 5"/><path d="m7.7 17.3c.7 2.4 2.1 3.6 3.4 4.9"/><path d="m8.5 12.8c-.2 0-.4.1-.6.2-.2-.1-.4-.2-.6-.2-.6 0-1.1.4-1.2 1 0 .2-.1.9-.1 1.1 0 .4.2.8.5 1v.3c0 .6.4 1.1 1 1.2.2 0 .4-.1.6-.2.3-.2.5-.5.6-.9v-.3c.4-.2.7-.5.7-.9 0-.2.1-.9.1-1.1.1-.7-.4-1.2-1-1.2z"/><path d="m19.1 11.2c-.2-.1-.4 0-.6.1-.1-.2-.3-.3-.5-.3-.6-.1-1.2.2-1.3.8 0 .2-.2.9-.3 1.1-.1.4.1.8.3 1.1l-.1.3c-.1.6.2 1.2.8 1.3.2.1.4 0 .6-.1.3-.1.6-.4.7-.8v-.3c.4-.1.7-.4.8-.8 0-.2.2-.9.3-1.1.3-.6-.1-1.2-.7-1.3z"/><path d="m18.2 5.6c-.2-.1-.4-.1-.6-.1-.1-.2-.3-.3-.5-.4-.6-.2-1.2 0-1.5.6-.1.2-.4.8-.4 1-.2.4-.1.8.2 1.1l-.1.3c-.2.6 0 1.2.6 1.5.2.1.4.1.6.1.3-.1.7-.3.8-.6l.1-.3c.4 0 .8-.3 1-.7.1-.2.4-.8.4-1 .2-.6-.1-1.2-.6-1.5z"/><path d="m9.1 6.8c-.2.1-.3.3-.5.4-.2 0-.4-.1-.6 0-.6.3-.8 1-.6 1.5.1.2.3.8.4 1 .2.4.5.6.9.7l.1.3c.2.6.9.8 1.4.6.2-.1.4-.2.5-.4.2-.3.3-.7.1-1l-.1-.2c.3-.4.4-.8.3-1.2-.1-.2-.3-.8-.4-1-.3-.6-.9-.9-1.5-.7z"/><path d="m12.8 2.5c-.2 0-.4.1-.6.3-.2-.1-.4-.2-.6-.1-.6.1-1 .6-1 1.2 0 .2.1.9.1 1.1.1.4.3.7.7.9l.1.3c.1.6.6 1 1.2 1 .2 0 .4-.1.6-.3.3-.2.4-.6.4-1l-.1-.3c.4-.2.6-.6.5-1 0-.2-.1-.9-.1-1.1-.1-.6-.6-1.1-1.2-1z"/></g></svg>