<?xml version="1.0" encoding="UTF-8" standalone="no"?>
<!-- Generator: Adobe Illustrator 19.1.0, SVG Export Plug-In . SVG Version: 6.00 Build 0)  -->

<svg
   version="1.2"
   x="0px"
   y="0px"
   viewBox="0 0 26 26"
   xml:space="preserve"
   id="svg403"
   sodipodi:docname="green mango.svg"
   inkscape:version="1.4 (e7c3feb1, 2024-10-09)"
   xmlns:inkscape="http://www.inkscape.org/namespaces/inkscape"
   xmlns:sodipodi="http://sodipodi.sourceforge.net/DTD/sodipodi-0.dtd"
   xmlns="http://www.w3.org/2000/svg"
   xmlns:svg="http://www.w3.org/2000/svg"><defs
   id="defs403" /><sodipodi:namedview
   id="namedview403"
   pagecolor="#ffffff"
   bordercolor="#000000"
   borderopacity="0.25"
   inkscape:showpageshadow="2"
   inkscape:pageopacity="0.0"
   inkscape:pagecheckerboard="0"
   inkscape:deskcolor="#d1d1d1"
   inkscape:zoom="38.807692"
   inkscape:cx="13"
   inkscape:cy="13"
   inkscape:window-width="1200"
   inkscape:window-height="1186"
   inkscape:window-x="0"
   inkscape:window-y="25"
   inkscape:window-maximized="0"
   inkscape:current-layer="svg403" />


























































<g
   id="Layer_59">
	<g
   id="g403">
		<path
   fill="none"
   stroke="#F8D10D"
   stroke-linecap="round"
   stroke-linejoin="round"
   stroke-miterlimit="10"
   d="M9.2,6.3L9.2,6.3    C9.2,6.3,9.2,6.3,9.2,6.3C9.1,6.2,9,6.1,9,6C7.4,4.3,7.8,1.8,7.8,1.7v0h0c0,0,2.5-0.3,4.3,1.2c0.1,0.1,0.2,0.1,0.3,0.2    c0,0,0,0,0,0h0v0c0,0,0,0,0,0c0.1,0.1,0.1,0.2,0.2,0.3c1.5,1.8,1.2,4.3,1.2,4.3v0h0c0,0-2.5,0.3-4.3-1.2C9.4,6.5,9.3,6.4,9.2,6.3    C9.2,6.3,9.2,6.3,9.2,6.3L9.2,6.3z"
   id="path402" />
		<path
   fill="none"
   stroke="#F8D10D"
   stroke-linecap="round"
   stroke-linejoin="round"
   stroke-miterlimit="10"
   d="M18.2,15.7    c-0.4-3.2-2.3-5.6-4.5-5.7c-2.4,0.1-4.3,2.2-4.3,4.7c0,1.1,0.4,2.2,1,3c0.2,0.3,1.6,1.8,1.6,3.5c0,0.7-0.3,1.4-0.3,1.6    c0,0,0,0.1,0,0.1c0,0.6,0.3,1.1,0.8,1.3c0.2,0.1,0.7,0.2,1,0.2c2.7,0,4.8-3.2,4.8-7.2C18.3,16.6,18.2,16.1,18.2,15.7z"
   id="path403" />
	</g>
</g>
</svg>
