<svg viewBox="0 0 26 26" xmlns="http://www.w3.org/2000/svg"><g fill="none" stroke="#25004f" stroke-linecap="round" stroke-linejoin="round" stroke-miterlimit="10"><path d="m12.7 14.2c.2 0 .4.1.6.1.2-.4.5-.7.8-1 1-1 2.3-1.5 3.6-1.5 1.1-1.9.9-4.4-.8-6.1-2-2-5.1-2-7.1 0-1.7 1.7-1.9 4.2-.7 6.1 1.5.2 2.8 1.1 3.6 2.4z"/><path d="m13 14.8c-.1-.2-.2-.4-.3-.6-.8-1.3-2.1-2.1-3.6-2.4-.2 0-.4-.1-.7-.1-2.8 0-5 2.2-5 5s2.2 5 5 5c2.1 0 3.8-1.3 4.6-3.1-.5-1.1-.5-2.5 0-3.8z"/><path d="m21.1 13.2c-1-1-2.2-1.5-3.5-1.5s-2.6.5-3.6 1.5c-.3.3-.6.7-.8 1-.1.2-.2.4-.3.6-.5 1.2-.5 2.7 0 3.9.2.6.6 1.1 1.1 1.6 2 2 5.1 2 7.1 0s2-5.1 0-7.1z"/><path d="m18 17.2 1.5 1.5"/><path d="m18 17.2v1.5"/><path d="m18 17.2h1.5"/><path d="m8.2 17.2-1.5 1.5"/><path d="m8.2 17.2v1.5"/><path d="m8.2 17.2h-1.5"/><path d="m12.8 9.2-1.5 1.5"/><path d="m12.8 9.2v1.5"/><path d="m12.8 9.2h-1.5"/></g></svg>