<?xml version="1.0" encoding="UTF-8" standalone="no"?>
<!-- Generator: Adobe Illustrator 19.1.0, SVG Export Plug-In . SVG Version: 6.00 Build 0)  -->

<svg
   version="1.2"
   x="0px"
   y="0px"
   viewBox="0 0 26 26"
   xml:space="preserve"
   id="svg390"
   sodipodi:docname="tropical_fruit.svg"
   inkscape:version="1.4 (e7c3feb1, 2024-10-09)"
   xmlns:inkscape="http://www.inkscape.org/namespaces/inkscape"
   xmlns:sodipodi="http://sodipodi.sourceforge.net/DTD/sodipodi-0.dtd"
   xmlns="http://www.w3.org/2000/svg"
   xmlns:svg="http://www.w3.org/2000/svg"><defs
   id="defs390" /><sodipodi:namedview
   id="namedview390"
   pagecolor="#ffffff"
   bordercolor="#000000"
   borderopacity="0.25"
   inkscape:showpageshadow="2"
   inkscape:pageopacity="0.0"
   inkscape:pagecheckerboard="0"
   inkscape:deskcolor="#d1d1d1"
   inkscape:zoom="38.807692"
   inkscape:cx="13"
   inkscape:cy="13"
   inkscape:window-width="1200"
   inkscape:window-height="1186"
   inkscape:window-x="0"
   inkscape:window-y="25"
   inkscape:window-maximized="0"
   inkscape:current-layer="svg390" />























































<g
   id="tropical_fruit">
	<g
   id="g390">
		<path
   fill="none"
   stroke="#FFA600"
   stroke-linecap="round"
   stroke-linejoin="round"
   stroke-miterlimit="10"
   d="M7.4,6.9    C7.2,7.6,7.1,8.5,7.1,9.4v0C6.4,8.7,5.7,8.1,5,7.7"
   id="path375" />
		<path
   fill="none"
   stroke="#FFA600"
   stroke-linecap="round"
   stroke-linejoin="round"
   stroke-miterlimit="10"
   d="M7.4,6.9    C7.8,4.8,8.6,2,8.6,2s1.5,3.6,1.5,7.4h0v0c2.7-2.7,5-2.9,5-2.9s-1.2,1.1-2.5,4"
   id="path376" />
		<path
   fill="none"
   stroke="#FFA600"
   stroke-linecap="round"
   stroke-linejoin="round"
   stroke-miterlimit="10"
   d="M12.5,11    c0.1-0.2,0.1-0.3,0.2-0.5"
   id="path377" />
		<path
   fill="none"
   stroke="#FFA600"
   stroke-linecap="round"
   stroke-linejoin="round"
   stroke-miterlimit="10"
   d="M4.6,10.5    c0.1,0.2,0.1,0.3,0.2,0.5"
   id="path378" />
		<path
   fill="none"
   stroke="#FFA600"
   stroke-linecap="round"
   stroke-linejoin="round"
   stroke-miterlimit="10"
   d="M5,7.7    C3.3,6.6,2.1,6.5,2.1,6.5s1.2,1.1,2.5,4"
   id="path379" />
		<path
   fill="none"
   stroke="#FFA600"
   stroke-linecap="round"
   stroke-linejoin="round"
   stroke-miterlimit="10"
   d="M10,6    c1.8-1.4,3.1-1.7,3.1-1.7s-1,1.2-1.6,3.9"
   id="path380" />
		<path
   fill="none"
   stroke="#FFA600"
   stroke-linecap="round"
   stroke-linejoin="round"
   stroke-miterlimit="10"
   d="M7.4,6    C5.6,4.6,4.2,4.3,4.2,4.3s1,1.2,1.6,3.9"
   id="path381" />
		<path
   fill="none"
   stroke="#FFA600"
   stroke-linecap="round"
   stroke-linejoin="round"
   stroke-miterlimit="10"
   d="M9.8,11.8    c-0.6-1.6-1.2-2.3-1.2-2.3S8,10.2,7.4,11.8"
   id="path382" />
		<path
   fill="none"
   stroke="#FFA600"
   stroke-linecap="round"
   stroke-linejoin="round"
   stroke-miterlimit="10"
   d="M4.7,11.1    c-1.4,1.6-2.3,3.9-2.3,6.6c0,0,0,0,0,0.1c0,0.3,0,0.6,0.1,0.9c0.4,3,3,5.3,6.1,5.3c1.2,0,2.4-0.4,3.3-1"
   id="path383" />
		<path
   fill="none"
   stroke="#FFA600"
   stroke-linecap="round"
   stroke-linejoin="round"
   stroke-miterlimit="10"
   d="M12.5,11.1    c0.7,0.8,1.3,1.8,1.7,3"
   id="path384" />
		<path
   fill="none"
   stroke="#FFA600"
   stroke-linecap="round"
   stroke-linejoin="round"
   stroke-miterlimit="10"
   d="M12.8,16.9    c0-0.2-0.1-0.3-0.1-0.5c0-1,0.6-1.8,1.5-2.3"
   id="path385" />
		<path
   fill="none"
   stroke="#FFA600"
   stroke-linecap="round"
   stroke-linejoin="round"
   stroke-miterlimit="10"
   d="M15.9,19.1    c1.7,0,3.1-1.2,3.1-2.7c0-1.5-1.4-2.7-3.1-2.7c0,0,0,0,0,0c-0.6,0-1.2,0.2-1.7,0.4"
   id="path386" />
		<path
   fill="none"
   stroke="#FFA600"
   stroke-linecap="round"
   stroke-linejoin="round"
   stroke-miterlimit="10"
   d="M15.9,19.1    c1.7,0,3.1-1.2,3.1-2.7h4.9c0,4.2-3.6,7.6-8.1,7.6c-1.4,0-2.7-0.3-3.9-0.9c0,0-0.1,0-0.1,0"
   id="path387" />
		<path
   fill="none"
   stroke="#FFA600"
   stroke-linecap="round"
   stroke-linejoin="round"
   stroke-miterlimit="10"
   d="M12.8,16.9    c0-0.2-0.1-0.3-0.1-0.5h-2.4H7.8c0,1.9,0.8,3.7,2,5c0.4,0.5,0.9,0.9,1.4,1.2c0.2,0.1,0.5,0.3,0.7,0.4c0,0,0,0,0,0"
   id="path388" />
		<path
   fill="none"
   stroke="#FFA600"
   stroke-linecap="round"
   stroke-linejoin="round"
   stroke-miterlimit="10"
   d="M14.7,18.9    c-0.1-0.1-0.3-0.1-0.4-0.2c0,0,0,0-0.1,0c-0.1-0.1-0.3-0.2-0.4-0.3c0,0,0,0-0.1,0c-0.1-0.1-0.2-0.2-0.3-0.3c0,0,0,0,0,0    c-0.1-0.1-0.1-0.1-0.2-0.2c0-0.1-0.1-0.1-0.1-0.2c0-0.1-0.1-0.1-0.1-0.2c0-0.1-0.1-0.2-0.1-0.3c0-0.1,0-0.1,0-0.2"
   id="path389" />
		<path
   fill="none"
   stroke="#FFA600"
   stroke-linecap="round"
   stroke-linejoin="round"
   stroke-miterlimit="10"
   d="M15.9,19.1    c-0.1,0-0.2,0-0.2,0c-0.1,0-0.2,0-0.3,0c-0.2,0-0.3-0.1-0.5-0.1c0,0,0,0-0.1,0c0,0,0,0,0,0"
   id="path390" />
	</g>
</g>
</svg>
