<svg viewBox="0 0 26 26" xmlns="http://www.w3.org/2000/svg"><g fill="none" stroke="#ffa600" stroke-linecap="round" stroke-linejoin="round" stroke-miterlimit="10"><path d="m11.7 6.8c-.1.7-.2 1.6-.2 2.5-.7-.7-1.5-1.2-2.1-1.6"/><path d="m9.1 11c-1.4 1.6-2.3 3.9-2.3 6.6v.1c0 .3 0 .6.1.9.4 3 3 5.3 6.1 5.3s5.7-2.3 6.1-5.3c0-.3.1-.6.1-.8v-.1s0 0 0-.1c0-2.7-.9-5.1-2.3-6.6"/><path d="m11.7 6.8c.5-2 1.3-4.8 1.3-4.8s1.5 3.6 1.5 7.4c2.7-2.7 5-2.9 5-2.9s-1.2 1.1-2.5 4"/><path d="m16.9 11c.1-.2.1-.3.2-.5"/><path d="m8.9 10.5c.1.1.2.3.2.5"/><path d="m9.4 7.7c-1.7-1.1-2.9-1.2-2.9-1.2s1.2 1.1 2.5 4"/><path d="m14.3 5.9c1.8-1.4 3.1-1.7 3.1-1.7s-1 1.2-1.6 3.9"/><path d="m11.7 5.9c-1.7-1.3-3.1-1.6-3.1-1.6s1 1.2 1.6 3.9"/><path d="m14.2 11.7c-.6-1.5-1.2-2.3-1.2-2.3s-.6.8-1.2 2.3"/></g></svg>