<svg viewBox="0 0 26 26" xmlns="http://www.w3.org/2000/svg"><g id="raspberry">
<g>
<path d="M9.4,13.4    C9.4,13.4,9.4,13.4,9.4,13.4c-1.1-0.2-1.9-1.2-1.9-2.4c0-0.1,0-0.2,0-0.2c0,0,0,0,0,0c-1.1,0-2,0.9-2,2.1s0.9,2.1,2,2.1    c0,0,0.1,0,0.1,0C7.9,14.2,8.6,13.5,9.4,13.4z" fill="none" stroke="#B60424" stroke-linecap="round" stroke-linejoin="round" stroke-miterlimit="10"/>
<path d="M10.8,13.8    c0-0.1,0-0.1,0-0.2c-0.3-0.1-0.5-0.2-0.8-0.3c-0.1,0-0.1,0-0.2,0c-0.1,0-0.1,0-0.2,0c0,0-0.1,0-0.1,0c0,0,0,0,0,0    c-0.9,0.1-1.6,0.8-1.8,1.6c-0.1,0.2-0.1,0.5-0.1,0.7c0,1.3,1,2.4,2.3,2.4c0.5,0,0.9-0.1,1.2-0.4c0.2-0.3,0.4-0.5,0.7-0.7    c0.1-0.2,0.2-0.5,0.3-0.8C11.2,15.8,10.8,14.9,10.8,13.8z" fill="none" stroke="#B60424" stroke-linecap="round" stroke-linejoin="round" stroke-miterlimit="10"/>
<path d="M8.6,9.1    C8.2,8.7,8,8.2,8,7.6c0-0.3,0.1-0.7,0.2-1c-0.1,0-0.2,0-0.2,0c-1.1,0-2,0.9-2,2.1c0,1,0.7,1.8,1.6,2C7.7,10,8.1,9.4,8.6,9.1z" fill="none" stroke="#B60424" stroke-linecap="round" stroke-linejoin="round" stroke-miterlimit="10"/>
<path d="M11.5,6.2    c-0.4-0.4-0.9-0.7-1.5-0.7c-0.8,0-1.4,0.5-1.8,1.2C8.1,6.9,8,7.2,8,7.6c0,0.6,0.2,1.1,0.6,1.5c0.3,0.3,0.7,0.5,1.2,0.6    c0.1,0,0.2,0.1,0.2,0.1c0.4,0,0.7-0.1,1-0.3c-0.1-0.3-0.2-0.7-0.2-1.1C10.8,7.4,11,6.7,11.5,6.2z" fill="none" stroke="#B60424" stroke-linecap="round" stroke-linejoin="round" stroke-miterlimit="10"/>
<path d="M11,9.4    c-0.3,0.2-0.6,0.3-1,0.3c-0.1,0-0.2,0-0.2-0.1C9.3,9.6,8.9,9.4,8.6,9.1c-0.5,0.4-0.9,0.9-1,1.6c0,0,0,0.1,0,0.1c0,0.1,0,0.2,0,0.2    c0,1.2,0.8,2.2,1.9,2.3c0,0,0.1,0,0.1,0c0.1,0,0.1,0,0.2,0c0.1,0,0.1,0,0.2,0c0.3,0,0.6-0.2,0.9-0.3c0.2-0.7,0.6-1.3,1.1-1.7    c0-0.1,0.1-0.2,0.1-0.3c0-0.1,0-0.3,0-0.4C11.5,10.4,11.2,9.9,11,9.4z" fill="none" stroke="#B60424" stroke-linecap="round" stroke-linejoin="round" stroke-miterlimit="10"/>
<path d="M13,5.5    c-0.6,0-1.1,0.3-1.5,0.7c-0.4,0.5-0.7,1.2-0.7,2c0,0.4,0.1,0.8,0.2,1.1c0.2,0.6,0.6,1,1,1.3c0.3,0.2,0.7,0.4,1.1,0.4    c1.2,0,2.3-1.2,2.3-2.8S14.3,5.5,13,5.5z" fill="none" stroke="#B60424" stroke-linecap="round" stroke-linejoin="round" stroke-miterlimit="10"/>
<path d="M13,11    c-0.4,0-0.8,0.1-1.1,0.4c-0.5,0.4-0.9,1-1.1,1.7c0,0.2-0.1,0.4-0.1,0.6c0,0.1,0,0.1,0,0.2c0,1.1,0.5,2,1.2,2.4    c0.3,0.2,0.7,0.4,1.1,0.4c1.2,0,2.3-1.2,2.3-2.8C15.3,12.3,14.3,11,13,11z" fill="none" stroke="#B60424" stroke-linecap="round" stroke-linejoin="round" stroke-miterlimit="10"/>
<path d="M13,16.6    c-0.5,0-1,0.2-1.4,0.4c-0.3,0.2-0.5,0.4-0.7,0.7c-0.1,0.2-0.2,0.5-0.2,0.8c0,1.1,1,2,2.3,2c1.2,0,2.3-0.9,2.3-2    C15.3,17.5,14.3,16.6,13,16.6z" fill="none" stroke="#B60424" stroke-linecap="round" stroke-linejoin="round" stroke-miterlimit="10"/>
<path d="M16.6,13.4    C16.6,13.4,16.6,13.4,16.6,13.4c1.1-0.2,1.9-1.2,1.9-2.4c0-0.1,0-0.2,0-0.2c0,0,0,0,0,0c1.1,0,2,0.9,2,2.1s-0.9,2.1-2,2.1    c0,0-0.1,0-0.1,0C18.1,14.2,17.4,13.5,16.6,13.4z" fill="none" stroke="#B60424" stroke-linecap="round" stroke-linejoin="round" stroke-miterlimit="10"/>
<path d="M15.2,13.8    c0-0.1,0-0.1,0-0.2c0.3-0.1,0.5-0.2,0.8-0.3c0.1,0,0.1,0,0.2,0c0.1,0,0.1,0,0.2,0c0,0,0.1,0,0.1,0c0,0,0,0,0,0    c0.9,0.1,1.6,0.8,1.8,1.6c0.1,0.2,0.1,0.5,0.1,0.7c0,1.3-1,2.4-2.3,2.4c-0.5,0-0.9-0.1-1.2-0.4c-0.2-0.3-0.4-0.5-0.7-0.7    c-0.1-0.2-0.2-0.5-0.3-0.8C14.8,15.8,15.2,14.9,15.2,13.8z" fill="none" stroke="#B60424" stroke-linecap="round" stroke-linejoin="round" stroke-miterlimit="10"/>
<path d="M17.4,9.1    C17.8,8.7,18,8.2,18,7.6c0-0.3-0.1-0.7-0.2-1c0.1,0,0.2,0,0.2,0c1.1,0,2,0.9,2,2.1c0,1-0.7,1.8-1.6,2C18.3,10,17.9,9.4,17.4,9.1z" fill="none" stroke="#B60424" stroke-linecap="round" stroke-linejoin="round" stroke-miterlimit="10"/>
<path d="M14.5,6.2    c0.4-0.4,0.9-0.7,1.5-0.7c0.8,0,1.4,0.5,1.8,1.2c0.1,0.3,0.2,0.6,0.2,1c0,0.6-0.2,1.1-0.6,1.5c-0.3,0.3-0.7,0.5-1.2,0.6    c-0.1,0-0.2,0.1-0.2,0.1c-0.4,0-0.7-0.1-1-0.3c0.1-0.3,0.2-0.7,0.2-1.1C15.2,7.4,15,6.7,14.5,6.2z" fill="none" stroke="#B60424" stroke-linecap="round" stroke-linejoin="round" stroke-miterlimit="10"/>
<path d="M15,9.4    c0.3,0.2,0.6,0.3,1,0.3c0.1,0,0.2,0,0.2-0.1c0.4-0.1,0.9-0.2,1.2-0.6c0.5,0.4,0.9,0.9,1,1.6c0,0,0,0.1,0,0.1c0,0.1,0,0.2,0,0.2    c0,1.2-0.8,2.2-1.9,2.3c0,0-0.1,0-0.1,0c-0.1,0-0.1,0-0.2,0c-0.1,0-0.1,0-0.2,0c-0.3,0-0.6-0.2-0.9-0.3c-0.2-0.7-0.6-1.3-1.1-1.7    c0-0.1-0.1-0.2-0.1-0.3c0-0.1,0-0.3,0-0.4C14.5,10.4,14.8,9.9,15,9.4z" fill="none" stroke="#B60424" stroke-linecap="round" stroke-linejoin="round" stroke-miterlimit="10"/>
</g>
</g></svg>