<?xml version="1.0" encoding="UTF-8" standalone="no"?>
<!-- Generator: Adobe Illustrator 19.1.0, SVG Export Plug-In . SVG Version: 6.00 Build 0)  -->

<svg
   version="1.2"
   x="0px"
   y="0px"
   viewBox="0 0 26 26"
   xml:space="preserve"
   id="svg320"
   sodipodi:docname="citrus.svg"
   inkscape:version="1.4 (e7c3feb1, 2024-10-09)"
   xmlns:inkscape="http://www.inkscape.org/namespaces/inkscape"
   xmlns:sodipodi="http://sodipodi.sourceforge.net/DTD/sodipodi-0.dtd"
   xmlns="http://www.w3.org/2000/svg"
   xmlns:svg="http://www.w3.org/2000/svg"><defs
   id="defs320" /><sodipodi:namedview
   id="namedview320"
   pagecolor="#ffffff"
   bordercolor="#000000"
   borderopacity="0.25"
   inkscape:showpageshadow="2"
   inkscape:pageopacity="0.0"
   inkscape:pagecheckerboard="0"
   inkscape:deskcolor="#d1d1d1"
   inkscape:zoom="38.807692"
   inkscape:cx="13"
   inkscape:cy="13"
   inkscape:window-width="1200"
   inkscape:window-height="1186"
   inkscape:window-x="688"
   inkscape:window-y="53"
   inkscape:window-maximized="0"
   inkscape:current-layer="svg320" />









































<g
   id="orange"
   display="inline">
	<g
   display="inline"
   id="g311">
		<path
   fill="none"
   stroke="#f99101"
   stroke-linecap="round"
   stroke-linejoin="round"
   stroke-miterlimit="10"
   d="M 12,9.1 C 13.2,7.3 15.4,6 17.8,6 c 3.9,0 7,3.1 7,7 0,3.9 -3.1,7 -7,7 -2.4,0 -4.5,-1.2 -5.8,-3.1"
   id="path303" />
		
			<line
   fill="none"
   stroke="#f99101"
   stroke-linecap="round"
   stroke-linejoin="round"
   stroke-miterlimit="10"
   x1="23"
   y1="13.5"
   x2="23"
   y2="13.5"
   id="line303" />
		
			<line
   fill="none"
   stroke="#f99101"
   stroke-linecap="round"
   stroke-linejoin="round"
   stroke-miterlimit="10"
   x1="21.5"
   y1="11.9"
   x2="21.5"
   y2="11.9"
   id="line304" />
		
			<line
   fill="none"
   stroke="#f99101"
   stroke-linecap="round"
   stroke-linejoin="round"
   stroke-miterlimit="10"
   x1="21.1"
   y1="14.1"
   x2="21.1"
   y2="14.1"
   id="line305" />
		
			<line
   fill="none"
   stroke="#f99101"
   stroke-linecap="round"
   stroke-linejoin="round"
   stroke-miterlimit="10"
   x1="16.799999"
   y1="7.9000001"
   x2="18.799999"
   y2="9.8999996"
   id="line306" />
		
			<line
   fill="none"
   stroke="#f99101"
   stroke-linecap="round"
   stroke-linejoin="round"
   stroke-miterlimit="10"
   x1="16.799999"
   y1="9.8999996"
   x2="18.799999"
   y2="7.9000001"
   id="line307" />
		<path
   fill="none"
   stroke="#f99101"
   stroke-linecap="round"
   stroke-linejoin="round"
   stroke-miterlimit="10"
   d="M 10,9.1 11.1,8 c 2.7,2.7 2.7,7.2 0,9.9 -2.7,2.7 -7.2,2.7 -9.9,0 l 1.1,-1.1 c 1.1,1.1 2.5,1.6 3.9,1.6 1.4,0 2.8,-0.5 3.9,-1.6 1.1,-1.1 1.6,-2.5 1.6,-3.9 C 11.6,11.6 11.1,10.2 10,9.1 Z"
   id="path307" />
		<path
   fill="none"
   stroke="#f99101"
   stroke-linecap="round"
   stroke-linejoin="round"
   stroke-miterlimit="10"
   d="M 10,16.9 7.2,14.1 C 7.5,13.8 7.6,13.4 7.6,13 h 4 c 0,1.4 -0.5,2.8 -1.6,3.9 z"
   id="path308" />
		<path
   fill="none"
   stroke="#f99101"
   stroke-linecap="round"
   stroke-linejoin="round"
   stroke-miterlimit="10"
   d="m 6.1,18.5 v -4 c 0.4,0 0.8,-0.1 1.1,-0.4 L 10,16.9 C 8.9,18 7.5,18.5 6.1,18.5 Z"
   id="path309" />
		<path
   fill="none"
   stroke="#f99101"
   stroke-linecap="round"
   stroke-linejoin="round"
   stroke-miterlimit="10"
   d="m 11.6,13 h -4 C 7.6,12.6 7.5,12.2 7.2,11.9 L 10,9.1 c 1.1,1.1 1.6,2.5 1.6,3.9 z"
   id="path310" />
		<path
   fill="none"
   stroke="#f99101"
   stroke-linecap="round"
   stroke-linejoin="round"
   stroke-miterlimit="10"
   d="m 6.1,14.5 v 4 C 4.7,18.5 3.3,18 2.2,16.9 L 5,14.1 c 0.4,0.3 0.7,0.4 1.1,0.4 z"
   id="path311" />
	</g>
</g>


</svg>
