<svg viewBox="0 0 26 26" xmlns="http://www.w3.org/2000/svg"><g fill="none" stroke="#8d9288" stroke-linecap="round" stroke-linejoin="round" stroke-miterlimit="10"><path d="m11.8 12.8h2.1l-.4-.4.8-3.4.3-.3-1.2-1.1-5.2-2.3-1.8.8h-1.6l-1.9 2.6.6 1.5-1.1 1.9 2.4 1.2 2 .3 1.4 1.8 1.5 1h2.4l-1.3-1.7z"/><path d="m22.4 3.6h-1-1.3l-2.9 2.5-2.6 2.6-.3.3-.8 3.4.4.4h.3 1.1l3.1 1.3.5.2h2.6l.3-3.4-.3-1 .9-2.6z"/><path d="m18.9 14.3-.5-.2-3.1-1.3h-1.1-.3-2.1l-1 1.9 1.3 1.7 1.5 2.1 1.7 3 2.5.9 1.2-1.2.9-3.2v-1.7-1.6z"/></g></svg>