<?xml version="1.0" encoding="UTF-8" standalone="no"?>
<!-- Generator: Adobe Illustrator 19.1.0, SVG Export Plug-In . SVG Version: 6.00 Build 0)  -->

<svg
   version="1.2"
   x="0px"
   y="0px"
   viewBox="0 0 26 26"
   xml:space="preserve"
   id="svg644"
   sodipodi:docname="coffee.svg"
   inkscape:version="1.4 (e7c3feb1, 2024-10-09)"
   xmlns:inkscape="http://www.inkscape.org/namespaces/inkscape"
   xmlns:sodipodi="http://sodipodi.sourceforge.net/DTD/sodipodi-0.dtd"
   xmlns="http://www.w3.org/2000/svg"
   xmlns:svg="http://www.w3.org/2000/svg"><defs
   id="defs644" /><sodipodi:namedview
   id="namedview644"
   pagecolor="#ffffff"
   bordercolor="#000000"
   borderopacity="0.25"
   inkscape:showpageshadow="2"
   inkscape:pageopacity="0.0"
   inkscape:pagecheckerboard="0"
   inkscape:deskcolor="#d1d1d1"
   inkscape:zoom="38.807692"
   inkscape:cx="13"
   inkscape:cy="13"
   inkscape:window-width="1200"
   inkscape:window-height="1186"
   inkscape:window-x="0"
   inkscape:window-y="25"
   inkscape:window-maximized="0"
   inkscape:current-layer="svg644" />






































































































<g
   id="Layer_103">
	<path
   fill="none"
   stroke="#90442D"
   stroke-linecap="round"
   stroke-linejoin="round"
   stroke-miterlimit="10"
   d="M16.7,20.9H7.5   c-1,0-1.8-0.8-1.8-1.8v-8.3h12.9v8.3C18.5,20.1,17.7,20.9,16.7,20.9"
   id="path641" />
	
		<circle
   fill="none"
   stroke="#90442D"
   stroke-linecap="round"
   stroke-linejoin="round"
   stroke-miterlimit="10"
   cx="20.3"
   cy="14.5"
   r="1.8"
   id="circle641" />
	
		<line
   fill="none"
   stroke="#90442D"
   stroke-linecap="round"
   stroke-linejoin="round"
   stroke-miterlimit="10"
   x1="3.8"
   y1="22.7"
   x2="20.3"
   y2="22.7"
   id="line641" />
	<path
   fill="none"
   stroke="#90442D"
   stroke-linecap="round"
   stroke-linejoin="round"
   stroke-miterlimit="10"
   d="M11.9,8.8   c0-0.7,0.7-0.7,0.7-1.4c0-0.7-0.7-0.7-0.7-1.4c0-0.7,0.7-0.7,0.7-1.4c0-0.7-0.7-0.7-0.7-1.4"
   id="path642" />
	<path
   fill="none"
   stroke="#90442D"
   stroke-linecap="round"
   stroke-linejoin="round"
   stroke-miterlimit="10"
   d="M14.6,8.8   c0-0.7,0.7-0.7,0.7-1.4c0-0.7-0.7-0.7-0.7-1.4c0-0.7,0.7-0.7,0.7-1.4c0-0.7-0.7-0.7-0.7-1.4"
   id="path643" />
	<path
   fill="none"
   stroke="#90442D"
   stroke-linecap="round"
   stroke-linejoin="round"
   stroke-miterlimit="10"
   d="M9.1,8.8   c0-0.7,0.7-0.7,0.7-1.4c0-0.7-0.7-0.7-0.7-1.4c0-0.7,0.7-0.7,0.7-1.4C9.8,4,9.1,4,9.1,3.3"
   id="path644" />
</g>
</svg>
