<?xml version="1.0" encoding="UTF-8" standalone="no"?>
<!-- Generator: Adobe Illustrator 19.1.0, SVG Export Plug-In . SVG Version: 6.00 Build 0)  -->

<svg
   version="1.2"
   x="0px"
   y="0px"
   viewBox="0 0 26 26"
   xml:space="preserve"
   id="svg694"
   sodipodi:docname="cigar.svg"
   inkscape:version="1.4 (e7c3feb1, 2024-10-09)"
   xmlns:inkscape="http://www.inkscape.org/namespaces/inkscape"
   xmlns:sodipodi="http://sodipodi.sourceforge.net/DTD/sodipodi-0.dtd"
   xmlns="http://www.w3.org/2000/svg"
   xmlns:svg="http://www.w3.org/2000/svg"><defs
   id="defs694" /><sodipodi:namedview
   id="namedview694"
   pagecolor="#ffffff"
   bordercolor="#000000"
   borderopacity="0.25"
   inkscape:showpageshadow="2"
   inkscape:pageopacity="0.0"
   inkscape:pagecheckerboard="0"
   inkscape:deskcolor="#d1d1d1"
   inkscape:zoom="38.807692"
   inkscape:cx="13"
   inkscape:cy="13"
   inkscape:window-width="1200"
   inkscape:window-height="1186"
   inkscape:window-x="0"
   inkscape:window-y="25"
   inkscape:window-maximized="0"
   inkscape:current-layer="svg694" />
















































































































<g
   id="Layer_113">
	<g
   id="g694">
		<polyline
   fill="none"
   stroke="#CE5039"
   stroke-linecap="round"
   stroke-linejoin="round"
   stroke-miterlimit="10"
   points="    18.3,14.6 13.1,17.1 18.3,14.6   "
   id="polyline687" />
		<polyline
   fill="none"
   stroke="#CE5039"
   stroke-linecap="round"
   stroke-linejoin="round"
   stroke-miterlimit="10"
   points="    17.8,11.6 13,14.6 13,18.9 17.3,17.1   "
   id="polyline688" />
		<polyline
   fill="none"
   stroke="#CE5039"
   stroke-linecap="round"
   stroke-linejoin="round"
   stroke-miterlimit="10"
   points="16.8,9     13.1,11.3 16.8,9   "
   id="polyline689" />
		<polyline
   fill="none"
   stroke="#CE5039"
   stroke-linecap="round"
   stroke-linejoin="round"
   stroke-miterlimit="10"
   points="15.9,5.7     13,7.8 13,14.6 17.8,11.6   "
   id="polyline690" />
		
			<line
   fill="none"
   stroke="#CE5039"
   stroke-linecap="round"
   stroke-linejoin="round"
   stroke-miterlimit="10"
   x1="13"
   y1="18.9"
   x2="13"
   y2="24.1"
   id="line690" />
		<polyline
   fill="none"
   stroke="#CE5039"
   stroke-linecap="round"
   stroke-linejoin="round"
   stroke-miterlimit="10"
   points="7.7,14.6     12.9,17.1 7.7,14.6   "
   id="polyline691" />
		<polyline
   fill="none"
   stroke="#CE5039"
   stroke-linecap="round"
   stroke-linejoin="round"
   stroke-miterlimit="10"
   points="8.2,11.6     13,14.6 13,18.9 8.7,17.1   "
   id="polyline692" />
		<polyline
   fill="none"
   stroke="#CE5039"
   stroke-linecap="round"
   stroke-linejoin="round"
   stroke-miterlimit="10"
   points="9.2,9     12.9,11.3 9.2,9   "
   id="polyline693" />
		<polyline
   fill="none"
   stroke="#CE5039"
   stroke-linecap="round"
   stroke-linejoin="round"
   stroke-miterlimit="10"
   points="10.4,6     13,7.8 13,14.6 8.2,11.6   "
   id="polyline694" />
		<path
   fill="none"
   stroke="#CE5039"
   stroke-linecap="round"
   stroke-linejoin="round"
   stroke-miterlimit="10"
   d="M17.8,10.6    c-0.1-0.3,0-0.6-0.1-0.9c-0.1-0.3-0.2-0.6-0.4-0.8c-0.1-0.3-0.6-0.4-0.7-0.7c-0.1-0.3,0.1-0.8-0.1-1.1c-0.2-0.3-0.2-0.7-0.3-1    c-0.2-0.3-0.6-0.5-0.8-0.8c-0.2-0.3-0.4-0.5-0.6-0.7c-0.2-0.3-0.4-0.4-0.6-0.7c-0.2-0.2-0.1-0.7-0.3-0.9c-0.2-0.2-0.6-0.4-0.8-0.6    c-0.1-0.1,0.1-0.3,0-0.4c0,0,0.1,0,0.1,0c0,0-0.2,0.4-0.2,0.4c0,0,0.3-0.3,0.3-0.3c0,0-0.4-0.1-0.4-0.1c-0.1,0.1-0.2,0.1-0.2,0.2    c-0.2,0.3-0.2,0.6-0.4,0.9c-0.2,0.3-0.4,0.5-0.5,0.8c-0.2,0.3-0.7,0.3-0.9,0.6c-0.2,0.3-0.3,0.6-0.4,0.8c-0.2,0.3-0.3,0.7-0.4,1    c-0.2,0.3-0.2,0.7-0.4,1c-0.2,0.3-0.3,0.7-0.4,1C9.2,8.3,9.2,8.7,9.1,9C9,9.3,9,9.6,8.9,9.8c-0.1,0.3-0.4,0.5-0.5,0.8    c-0.1,0.3-0.5,0.6-0.5,0.9c-0.1,0.3,0.3,0.7,0.2,1.1c0,0.4,0,0.7,0,1c0,0.3-0.5,0.7-0.4,1c0,0.3,0.1,0.7,0.2,1    c0.1,0.3,0.6,0.5,0.7,0.8c0.1,0.3-0.2,0.8,0,1c0.2,0.3,0.7,0.4,0.8,0.6c0.2,0.3,0.4,0.5,0.6,0.7c0.2,0.2,0.7,0.2,0.9,0.4    c0.3,0.2,0.2,0.9,0.4,1c0.3,0.2,0.6,0.3,0.9,0.4c0.5,0.2,0.9,0.2,1,0.2c0,0,0.1,0.2,0.1,0.2c0,0,0-0.1,0-0.1c0,0,0-0.1,0-0.1    c0,0,0.1,0.2,0.1,0.2c0.1,0,0.3-0.4,0.8-0.7c0.2-0.1,0.5-0.3,0.8-0.5c0.3-0.2,0.6-0.2,0.9-0.4c0.2-0.2,0.6-0.3,0.8-0.5    c0.2-0.2,0.3-0.5,0.5-0.8c0.2-0.2,0.1-0.6,0.3-0.9c0.1-0.3,0.7-0.4,0.8-0.7c0.1-0.3,0.2-0.6,0.2-0.9c0.1-0.3,0-0.6,0-1    c0-0.3-0.4-0.6-0.4-0.9c0-0.3,0.3-0.7,0.3-1c0-0.3-0.1-0.6-0.2-1C18,11.3,17.9,11,17.8,10.6z"
   id="path694" />
		
			<line
   fill="none"
   stroke="#CE5039"
   stroke-linecap="round"
   stroke-linejoin="round"
   stroke-miterlimit="10"
   x1="13"
   y1="7.8"
   x2="13"
   y2="2"
   id="line694" />
	</g>
</g>
</svg>
