<?xml version="1.0" encoding="UTF-8" standalone="no"?>
<!-- Generator: Adobe Illustrator 19.1.0, SVG Export Plug-In . SVG Version: 6.00 Build 0)  -->

<svg
   version="1.2"
   x="0px"
   y="0px"
   viewBox="0 0 26 26"
   xml:space="preserve"
   id="svg162"
   sodipodi:docname="thyme.svg"
   inkscape:version="1.4 (e7c3feb1, 2024-10-09)"
   xmlns:inkscape="http://www.inkscape.org/namespaces/inkscape"
   xmlns:sodipodi="http://sodipodi.sourceforge.net/DTD/sodipodi-0.dtd"
   xmlns="http://www.w3.org/2000/svg"
   xmlns:svg="http://www.w3.org/2000/svg"><defs
   id="defs162" /><sodipodi:namedview
   id="namedview162"
   pagecolor="#ffffff"
   bordercolor="#000000"
   borderopacity="0.25"
   inkscape:showpageshadow="2"
   inkscape:pageopacity="0.0"
   inkscape:pagecheckerboard="0"
   inkscape:deskcolor="#d1d1d1"
   inkscape:zoom="38.807692"
   inkscape:cx="13"
   inkscape:cy="13"
   inkscape:window-width="1200"
   inkscape:window-height="1186"
   inkscape:window-x="0"
   inkscape:window-y="25"
   inkscape:window-maximized="0"
   inkscape:current-layer="svg162" />

















<g
   id="dried_herbs">
	<g
   id="g162">
		<path
   fill="none"
   stroke="#73A858"
   stroke-linecap="round"
   stroke-linejoin="round"
   stroke-miterlimit="10"
   d="M5.5,23.9    c4.8-6.2,2.5-15.2,2.5-15.2"
   id="path150" />
		<path
   fill="none"
   stroke="#73A858"
   stroke-linecap="round"
   stroke-linejoin="round"
   stroke-miterlimit="10"
   d="M6.3,15.2    c0-0.3,0.1-0.5,0.1-0.8c0.2-1.2,1-1.4,0.5-4.7c-0.3-0.5-0.8-1-1.4-1.5c-2.7-2.3-3.6-0.6-2,2.4c1.5,2.9,0.8,3.1,0.8,4.2    c0,0.2,0,0.5,0.1,0.7c0.2,1.1,0.6,1.7,1,2.2c0.5,0.5,1.1,0.6,1.1,0.6c0.1,0,0.1-0.1,0.2-0.1C6.4,17.5,6.1,16.5,6.3,15.2z"
   id="path151" />
		<path
   fill="none"
   stroke="#73A858"
   stroke-linecap="round"
   stroke-linejoin="round"
   stroke-miterlimit="10"
   d="M9.5,6.7    C7.3,3,5.9,4.8,6.7,8.9c0.1,0.3,0.1,0.5,0.1,0.7c0.5,3.3-0.2,3.4-0.5,4.7c-0.1,0.3-0.1,0.6-0.1,0.8c-0.1,1.3,0.1,2.3,0.4,2.9    c0,0,0,0,0,0c0.4,0.8,0.9,1.2,0.9,1.2c2.2,0,3-4.4,3-5.4C10.6,12.9,11.5,10.1,9.5,6.7z"
   id="path152" />
		<path
   fill="none"
   stroke="#73A858"
   stroke-linecap="round"
   stroke-linejoin="round"
   stroke-miterlimit="10"
   d="M10.4,22.1    c3.7-6.9,2.2-15.9,2.2-15.9"
   id="path153" />
		<path
   fill="none"
   stroke="#73A858"
   stroke-linecap="round"
   stroke-linejoin="round"
   stroke-miterlimit="10"
   d="M15.5,8.6    c-0.6,1.1-1.6,2.6-2.4,3.5"
   id="path154" />
		<path
   fill="none"
   stroke="#73A858"
   stroke-linecap="round"
   stroke-linejoin="round"
   stroke-miterlimit="10"
   d="M17.9,4.8    c-0.2-0.1-0.4-0.1-0.6-0.1c-0.1-0.2-0.3-0.3-0.5-0.4c-0.5-0.2-1.2,0-1.4,0.6c-0.1,0.2-0.3,0.8-0.4,1c-0.2,0.4-0.1,0.8,0.2,1.1    l-0.1,0.3c-0.2,0.5,0,1.2,0.6,1.4c0.2,0.1,0.4,0.1,0.6,0.1C16.6,8.6,16.9,8.4,17,8l0.1-0.2c0.4,0,0.8-0.2,0.9-0.6    c0.1-0.2,0.3-0.8,0.4-1C18.7,5.6,18.5,5,17.9,4.8z"
   id="path155" />
		<path
   fill="none"
   stroke="#73A858"
   stroke-linecap="round"
   stroke-linejoin="round"
   stroke-miterlimit="10"
   d="M12.7,1.7    c-0.2,0-0.4,0.1-0.6,0.3c-0.2-0.1-0.4-0.2-0.6-0.1c-0.6,0.1-1,0.6-0.9,1.2c0,0.2,0.1,0.9,0.1,1.1C10.8,4.5,11,4.8,11.4,5l0.1,0.3    c0.1,0.6,0.6,1,1.2,0.9c0.2,0,0.4-0.1,0.6-0.3c0.3-0.2,0.4-0.6,0.4-0.9l0-0.3c0.3-0.2,0.5-0.6,0.5-1c0-0.2-0.1-0.9-0.1-1.1    C13.8,2.1,13.3,1.7,12.7,1.7z"
   id="path156" />
		<path
   fill="none"
   stroke="#73A858"
   stroke-linecap="round"
   stroke-linejoin="round"
   stroke-miterlimit="10"
   d="M12.2,24.3    c3.5-1.8,3.4-10.5,3.5-9.7"
   id="path157" />
		<path
   fill="none"
   stroke="#73A858"
   stroke-linecap="round"
   stroke-linejoin="round"
   stroke-miterlimit="10"
   d="M20.6,11.6    C19,19.6,13.6,23,13.6,23"
   id="path158" />
		<path
   fill="none"
   stroke="#73A858"
   stroke-linecap="round"
   stroke-linejoin="round"
   stroke-miterlimit="10"
   d="M19.5,9    c0,0,0.1,1,0.9,2.2c0,0-1.7,0.3-2.2-0.4"
   id="path159" />
		<path
   fill="none"
   stroke="#73A858"
   stroke-linecap="round"
   stroke-linejoin="round"
   stroke-miterlimit="10"
   d="M22.8,9.6    c0,0-0.5,0.9-1.7,1.7c0,0,1.5,0.9,2.2,0.4"
   id="path160" />
		
			<line
   fill="none"
   stroke="#73A858"
   stroke-linecap="round"
   stroke-linejoin="round"
   stroke-miterlimit="10"
   x1="20.8"
   y1="11.1"
   x2="21.4"
   y2="8"
   id="line160" />
		<path
   fill="none"
   stroke="#73A858"
   stroke-linecap="round"
   stroke-linejoin="round"
   stroke-miterlimit="10"
   d="M14.5,15.1    c0,0-0.1,1,0.9,1.3"
   id="path161" />
		<path
   fill="none"
   stroke="#73A858"
   stroke-linecap="round"
   stroke-linejoin="round"
   stroke-miterlimit="10"
   d="M17.1,15.2    c0,0-0.2,1.1-1.2,1.2"
   id="path162" />
	</g>
</g>
</svg>
