<svg viewBox="0 0 26 26" xmlns="http://www.w3.org/2000/svg"><g fill="none" stroke="#e9c604" stroke-linecap="round" stroke-linejoin="round" stroke-miterlimit="10"><path d="m11 16.1-3.1-8.2c-1.5 1.1-2.7 2.7-3.3 4.5l5.1 4.9c.3-.5.7-.9 1.3-1.2z"/><path d="m4.4 14.6c0 1.7.6 3.3 1.7 4.6.2.2.4.5.6.7.2.1.5.2.7.2.8 0 1.4-.5 1.4-1.2v-.1c0-.1 0-.1 0-.2 0-.6.1-1.1.4-1.6l-4.5-4.1c-.2.6-.3 1.2-.3 1.7z"/><path d="m15 15.9 3.1-8.1c1.5 1.1 2.7 2.7 3.3 4.5l-5.1 4.9c-.3-.5-.7-.9-1.3-1.3z"/><path d="m21.6 14.5c0 1.7-.6 3.3-1.7 4.6-.2.2-.4.4-.6.7-.2.1-.5.2-.7.2-.8 0-1.4-.5-1.4-1.2v-.1c0-.1 0-.1 0-.2 0-.6-.1-1.1-.4-1.6l4.5-4.1c.2.6.3 1.1.3 1.7z"/><path d="m13 5.9c1.9 0 3.7.6 5.3 1.5l-3.3 8.9c-.6-.3-1.3-.4-2-.4s-1.4.1-2 .4l-3.3-8.9c1.6-.9 3.4-1.5 5.3-1.5z"/></g></svg>