<?xml version="1.0" encoding="UTF-8" standalone="no"?>
<!-- Generator: Adobe Illustrator 19.1.0, SVG Export Plug-In . SVG Version: 6.00 Build 0)  -->

<svg
   version="1.2"
   x="0px"
   y="0px"
   viewBox="0 0 26 26"
   xml:space="preserve"
   id="svg457"
   sodipodi:docname="pomegranate.svg"
   inkscape:version="1.4 (e7c3feb1, 2024-10-09)"
   xmlns:inkscape="http://www.inkscape.org/namespaces/inkscape"
   xmlns:sodipodi="http://sodipodi.sourceforge.net/DTD/sodipodi-0.dtd"
   xmlns="http://www.w3.org/2000/svg"
   xmlns:svg="http://www.w3.org/2000/svg"><defs
   id="defs457" /><sodipodi:namedview
   id="namedview457"
   pagecolor="#ffffff"
   bordercolor="#000000"
   borderopacity="0.25"
   inkscape:showpageshadow="2"
   inkscape:pageopacity="0.0"
   inkscape:pagecheckerboard="0"
   inkscape:deskcolor="#d1d1d1"
   inkscape:zoom="38.807692"
   inkscape:cx="13"
   inkscape:cy="13"
   inkscape:window-width="1200"
   inkscape:window-height="1186"
   inkscape:window-x="0"
   inkscape:window-y="25"
   inkscape:window-maximized="0"
   inkscape:current-layer="svg457" />




































































<g
   id="Layer_69">
	<g
   id="g457">
		<path
   fill="none"
   stroke="#B60424"
   stroke-linecap="round"
   stroke-linejoin="round"
   stroke-miterlimit="10"
   d="M9.7,3.4    c2.8,0,3.3,2.7,3.3,2.7v2.2"
   id="path455" />
		<path
   fill="none"
   stroke="#B60424"
   stroke-linecap="round"
   stroke-linejoin="round"
   stroke-miterlimit="10"
   d="M15.8,7.6    c-1,0-2,0.5-2.8,1.2c1.4,1.3,2.2,3.6,2.2,6.3c0,2.6-0.9,4.9-2.2,6.3c0.8,0.8,1.7,1.2,2.8,1.2c2.8,0,5-3.4,5-7.5    C20.8,11,18.5,7.6,15.8,7.6z"
   id="path456" />
		<path
   fill="none"
   stroke="#B60424"
   stroke-linecap="round"
   stroke-linejoin="round"
   stroke-miterlimit="10"
   d="M13,8.8    c-0.8-0.8-1.7-1.2-2.8-1.2c-2.8,0-5,3.4-5,7.5c0,4.1,2.2,7.5,5,7.5c1,0,2-0.5,2.8-1.2c1.4-1.3,2.2-3.6,2.2-6.3S14.4,10.2,13,8.8z"
   id="path457" />
	</g>
</g>
</svg>
