<svg viewBox="0 0 26 26" xmlns="http://www.w3.org/2000/svg"><g fill="none" stroke="#7b3813" stroke-linecap="round" stroke-linejoin="round" stroke-miterlimit="10"><path d="m20.2 5.3c-3.1-3.1-6 3.5-8 5.5-1.6 1.6-7 3.7-7.6 6.1.7-.2 1.6-.4 2.7-.4 2.6 0 3.1-1.4 3.1-2.1s1.8-2.5 3.7-2.5 3.2-2.4 3.2-2.4 1.4-2.6 1.4.9-1.4 2.7-1.4 2.7-2.7.6-2.7 2.3c0 1.8-1.7 2.2-2.8 2.2s-4 .7-.9 2.1c1.4.7 2.2 1.2 2.6 1.7 1.3-.3 2.6-1.1 3.7-2.6 3.2-4.9 6.1-10.4 3-13.5z"/><path d="m10.8 19.7c-3.2-1.5-.3-2.1.9-2.1 1.1 0 2.8-.4 2.8-2.2s2.7-2.3 2.7-2.3 1.4.8 1.4-2.7-1.4-.9-1.4-.9-1.3 2.4-3.2 2.4-3.7 1.8-3.7 2.5-.5 2.1-3.1 2.1c-1.1 0-2 .2-2.7.4-.2.6 0 1.2.6 1.9 1.7 1.7 5.1 3.3 8.1 2.6-.2-.5-1-1.1-2.4-1.7z"/></g></svg>