<?xml version="1.0" encoding="UTF-8" standalone="no"?>
<!-- Generator: Adobe Illustrator 19.1.0, SVG Export Plug-In . SVG Version: 6.00 Build 0)  -->

<svg
   version="1.2"
   x="0px"
   y="0px"
   viewBox="0 0 26 26"
   xml:space="preserve"
   id="svg735"
   sodipodi:docname="non_oak.svg"
   inkscape:version="1.4 (e7c3feb1, 2024-10-09)"
   xmlns:inkscape="http://www.inkscape.org/namespaces/inkscape"
   xmlns:sodipodi="http://sodipodi.sourceforge.net/DTD/sodipodi-0.dtd"
   xmlns="http://www.w3.org/2000/svg"
   xmlns:svg="http://www.w3.org/2000/svg"><defs
   id="defs735" /><sodipodi:namedview
   id="namedview735"
   pagecolor="#ffffff"
   bordercolor="#000000"
   borderopacity="0.25"
   inkscape:showpageshadow="2"
   inkscape:pageopacity="0.0"
   inkscape:pagecheckerboard="0"
   inkscape:deskcolor="#d1d1d1"
   inkscape:zoom="38.807692"
   inkscape:cx="13"
   inkscape:cy="13"
   inkscape:window-width="1200"
   inkscape:window-height="1186"
   inkscape:window-x="0"
   inkscape:window-y="25"
   inkscape:window-maximized="0"
   inkscape:current-layer="svg735" />






























































































































<g
   id="Layer_127">
	<g
   id="g735">
		<path
   fill="none"
   stroke="#B47E31"
   stroke-linecap="round"
   stroke-linejoin="round"
   stroke-miterlimit="10"
   d="M13,3.8    c0,0,4.7,6.7,0,17.9"
   id="path734" />
		<path
   fill="none"
   stroke="#B47E31"
   stroke-linecap="round"
   stroke-linejoin="round"
   stroke-miterlimit="10"
   d="M14.4,6.9    C13.4,3.6,9.8,4.7,9.2,5c-2.4,1-3.6,3.9-3.6,6.8c0,1.4,0.3,2.7,0.9,3.9c0.7,1.3,1.6,2.3,2.8,3c0.1,0.1,0.2,0.1,0.3,0.2    c0,0,0.1,0,0.1,0c0.2,0.1,0.5,0.2,0.7,0.3c1.6,0.9,2.1,1.7,2.5,2.5c0.1,0.1,0.1,0.3,0.2,0.4c0-0.1,0.1-0.2,0.2-0.4    c0.4-0.8,0.9-1.6,2.5-2.5c0.2-0.1,0.4-0.2,0.7-0.3c0,0,0.3-0.2,0.4-0.2h0c1.2-0.7,2.1-1.8,2.8-3c0.6-1.2,0.9-2.5,0.9-3.9    c0-3.2-1.3-5.5-3.7-6.8c0,0-1.7-0.9-2.6,0"
   id="path735" />
		
			<line
   fill="none"
   stroke="#B47E31"
   stroke-linecap="round"
   stroke-linejoin="round"
   stroke-miterlimit="10"
   x1="13"
   y1="3.8"
   x2="12.2"
   y2="4.6"
   id="line735" />
	</g>
</g>
</svg>
