<?xml version="1.0" encoding="UTF-8" standalone="no"?>
<!-- Generator: Adobe Illustrator 19.1.0, SVG Export Plug-In . SVG Version: 6.00 Build 0)  -->

<svg
   version="1.2"
   x="0px"
   y="0px"
   viewBox="0 0 26 26"
   xml:space="preserve"
   id="svg578"
   sodipodi:docname="tree_fruit.svg"
   inkscape:version="1.4 (e7c3feb1, 2024-10-09)"
   xmlns:inkscape="http://www.inkscape.org/namespaces/inkscape"
   xmlns:sodipodi="http://sodipodi.sourceforge.net/DTD/sodipodi-0.dtd"
   xmlns="http://www.w3.org/2000/svg"
   xmlns:svg="http://www.w3.org/2000/svg"><defs
   id="defs578" /><sodipodi:namedview
   id="namedview578"
   pagecolor="#ffffff"
   bordercolor="#000000"
   borderopacity="0.25"
   inkscape:showpageshadow="2"
   inkscape:pageopacity="0.0"
   inkscape:pagecheckerboard="0"
   inkscape:deskcolor="#d1d1d1"
   inkscape:zoom="38.807692"
   inkscape:cx="13"
   inkscape:cy="13"
   inkscape:window-width="1200"
   inkscape:window-height="1186"
   inkscape:window-x="0"
   inkscape:window-y="25"
   inkscape:window-maximized="0"
   inkscape:current-layer="svg578" />




















































































<g
   id="Layer_85">
	<g
   id="g578">
		<path
   fill="none"
   stroke="#F99901"
   stroke-linecap="round"
   stroke-linejoin="round"
   stroke-miterlimit="10"
   d="M18.1,22.5h-10    c-1.1,0-2-0.9-2-2v-13"
   id="path573" />
		<path
   fill="none"
   stroke="#F99901"
   stroke-linecap="round"
   stroke-linejoin="round"
   stroke-miterlimit="10"
   d="M18.1,22.5    c1.1,0,2-0.9,2-2v-13"
   id="path574" />
		<path
   fill="none"
   stroke="#F99901"
   stroke-linecap="round"
   stroke-linejoin="round"
   stroke-miterlimit="10"
   d="M20.6,4.5    c0,0.6-0.5,1-1.1,1H6.7c-0.6,0-1.1-0.4-1.1-1c0-0.6,0.5-1,1.1-1h12.9C20.1,3.5,20.6,3.9,20.6,4.5z"
   id="path575" />
		<path
   fill="none"
   stroke="#F99901"
   stroke-linecap="round"
   stroke-linejoin="round"
   stroke-miterlimit="10"
   d="M5.6,7.2    c1.9,0,1.9,0.6,3.7,0.6c1.9,0,1.9-0.6,3.7-0.6c1.9,0,1.9,0.6,3.7,0.6c1.9,0,1.9-0.6,3.7-0.6"
   id="path576" />
		
			<line
   fill="none"
   stroke="#F99901"
   stroke-linecap="round"
   stroke-linejoin="round"
   stroke-miterlimit="10"
   x1="5.6"
   y1="7.2"
   x2="6.2"
   y2="5.4"
   id="line576" />
		
			<line
   fill="none"
   stroke="#F99901"
   stroke-linecap="round"
   stroke-linejoin="round"
   stroke-miterlimit="10"
   x1="20.6"
   y1="7.2"
   x2="20"
   y2="5.4"
   id="line577" />
		<path
   fill="none"
   stroke="#F99901"
   stroke-linecap="round"
   stroke-linejoin="round"
   stroke-miterlimit="10"
   d="M16.8,14.7    c-0.1-1.3-1.2-2.3-2.5-2.3c-0.5,0-0.9,0.1-1.2,0.3c-0.4-0.2-0.8-0.3-1.2-0.3c-1.3,0-2.4,1-2.5,2.3c-0.1,0.6,0,1.3,0.1,2    c0.1,0.4,0.2,0.8,0.4,1.2c0.2,0.4,0.3,0.8,0.6,1c0.2,0.3,0.6,0.4,1,0.5c0.1,0,0.3,0.1,0.5,0.1c0.5,0,0.9-0.2,1.2-0.4    c0.3,0.3,0.8,0.4,1.2,0.4c0.2,0,0.3,0,0.5-0.1c0.4-0.1,0.7-0.3,1-0.5c0.2-0.2,0.4-0.6,0.6-1c0.1-0.4,0.3-0.7,0.4-1.2    C16.9,16,16.9,15.3,16.8,14.7z"
   id="path577" />
		<path
   fill="none"
   stroke="#F99901"
   stroke-linecap="round"
   stroke-linejoin="round"
   stroke-miterlimit="10"
   d="M11.5,10.5    c1.3,0,1.6,1.3,1.6,1.3v1"
   id="path578" />
	</g>
</g>
</svg>
