<?xml version="1.0" encoding="UTF-8" standalone="no"?>
<!-- Generator: Adobe Illustrator 19.1.0, SVG Export Plug-In . SVG Version: 6.00 Build 0)  -->

<svg
   version="1.2"
   x="0px"
   y="0px"
   viewBox="0 0 26 26"
   xml:space="preserve"
   id="svg441"
   sodipodi:docname="red fruit.svg"
   inkscape:version="1.4 (e7c3feb1, 2024-10-09)"
   xmlns:inkscape="http://www.inkscape.org/namespaces/inkscape"
   xmlns:sodipodi="http://sodipodi.sourceforge.net/DTD/sodipodi-0.dtd"
   xmlns="http://www.w3.org/2000/svg"
   xmlns:svg="http://www.w3.org/2000/svg"><defs
   id="defs441" /><sodipodi:namedview
   id="namedview441"
   pagecolor="#ffffff"
   bordercolor="#000000"
   borderopacity="0.25"
   inkscape:showpageshadow="2"
   inkscape:pageopacity="0.0"
   inkscape:pagecheckerboard="0"
   inkscape:deskcolor="#d1d1d1"
   inkscape:zoom="38.807692"
   inkscape:cx="13"
   inkscape:cy="13"
   inkscape:window-width="1200"
   inkscape:window-height="1186"
   inkscape:window-x="0"
   inkscape:window-y="25"
   inkscape:window-maximized="0"
   inkscape:current-layer="svg441" />
































































<g
   id="cranberry"
   display="inline">
	<g
   display="inline"
   id="g430">
		<path
   fill="none"
   stroke="#cb001c"
   stroke-linecap="round"
   stroke-linejoin="round"
   stroke-miterlimit="10"
   d="m 7.3,15.7 c 0.2,0.3 0.3,0.7 0.3,1.1 0,0.4 -0.1,0.8 -0.3,1.1 0.3,-0.2 0.7,-0.3 1.1,-0.3 0.4,0 0.8,0.1 1.1,0.3 C 9.3,17.6 9.2,17.2 9.2,16.8 9.2,16.4 9.3,16 9.5,15.7 9.2,15.9 8.8,16 8.4,16 8,16 7.6,15.9 7.3,15.7 Z"
   id="path425" />
		<path
   fill="none"
   stroke="#cb001c"
   stroke-linecap="round"
   stroke-linejoin="round"
   stroke-miterlimit="10"
   d="m 17.6,15.2 c -0.1,0.4 -0.3,0.7 -0.5,1 -0.3,0.3 -0.6,0.5 -1,0.5 0.4,0.1 0.7,0.3 1,0.5 0.3,0.3 0.5,0.6 0.5,1 0.1,-0.4 0.3,-0.7 0.5,-1 0.3,-0.3 0.6,-0.5 1,-0.5 -0.4,-0.1 -0.7,-0.3 -1,-0.5 -0.2,-0.3 -0.4,-0.6 -0.5,-1 z"
   id="path426" />
		<path
   fill="none"
   stroke="#cb001c"
   stroke-linecap="round"
   stroke-linejoin="round"
   stroke-miterlimit="10"
   d="m 12.7,14.2 c 0.2,0 0.4,0.1 0.6,0.1 0.2,-0.4 0.5,-0.7 0.8,-1 1,-1 2.3,-1.5 3.6,-1.5 1.1,-1.9 0.9,-4.4 -0.8,-6.1 -2,-2 -5.1,-2 -7.1,0 -1.7,1.7 -1.9,4.2 -0.7,6.1 1.5,0.2 2.8,1.1 3.6,2.4 z"
   id="path427" />
		<path
   fill="none"
   stroke="#cb001c"
   stroke-linecap="round"
   stroke-linejoin="round"
   stroke-miterlimit="10"
   d="m 13,14.8 c -0.1,-0.2 -0.2,-0.4 -0.3,-0.6 -0.8,-1.3 -2.1,-2.1 -3.6,-2.4 -0.2,0 -0.4,-0.1 -0.7,-0.1 -2.8,0 -5,2.2 -5,5 0,2.8 2.2,5 5,5 2.1,0 3.8,-1.3 4.6,-3.1 -0.5,-1.1 -0.5,-2.5 0,-3.8 z"
   id="path428" />
		<path
   fill="none"
   stroke="#cb001c"
   stroke-linecap="round"
   stroke-linejoin="round"
   stroke-miterlimit="10"
   d="m 21.1,13.2 c -1,-1 -2.2,-1.5 -3.5,-1.5 -1.3,0 -2.6,0.5 -3.6,1.5 -0.3,0.3 -0.6,0.7 -0.8,1 -0.1,0.2 -0.2,0.4 -0.3,0.6 -0.5,1.2 -0.5,2.7 0,3.9 0.2,0.6 0.6,1.1 1.1,1.6 2,2 5.1,2 7.1,0 2,-2 2,-5.1 0,-7.1 z"
   id="path429" />
		<path
   fill="none"
   stroke="#cb001c"
   stroke-linecap="round"
   stroke-linejoin="round"
   stroke-miterlimit="10"
   d="m 13.3,7.7 c -0.1,0.4 -0.3,0.7 -0.5,1 -0.3,0.3 -0.6,0.5 -1,0.5 0.4,0.1 0.7,0.3 1,0.5 0.3,0.3 0.5,0.6 0.5,1 0.1,-0.4 0.3,-0.7 0.5,-1 0.3,-0.3 0.6,-0.5 1,-0.5 -0.4,-0.1 -0.7,-0.3 -1,-0.5 -0.2,-0.3 -0.4,-0.6 -0.5,-1 z"
   id="path430" />
	</g>
</g>


</svg>
