<?xml version="1.0" encoding="UTF-8" standalone="no"?>
<!-- Generator: Adobe Illustrator 19.1.0, SVG Export Plug-In . SVG Version: 6.00 Build 0)  -->

<svg
   version="1.2"
   x="0px"
   y="0px"
   viewBox="0 0 26 26"
   xml:space="preserve"
   id="svg296"
   sodipodi:docname="lime.svg"
   inkscape:version="1.4 (e7c3feb1, 2024-10-09)"
   xmlns:inkscape="http://www.inkscape.org/namespaces/inkscape"
   xmlns:sodipodi="http://sodipodi.sourceforge.net/DTD/sodipodi-0.dtd"
   xmlns="http://www.w3.org/2000/svg"
   xmlns:svg="http://www.w3.org/2000/svg"><defs
   id="defs296" /><sodipodi:namedview
   id="namedview296"
   pagecolor="#ffffff"
   bordercolor="#000000"
   borderopacity="0.25"
   inkscape:showpageshadow="2"
   inkscape:pageopacity="0.0"
   inkscape:pagecheckerboard="0"
   inkscape:deskcolor="#d1d1d1"
   inkscape:zoom="38.807692"
   inkscape:cx="13"
   inkscape:cy="13"
   inkscape:window-width="1200"
   inkscape:window-height="1186"
   inkscape:window-x="0"
   inkscape:window-y="25"
   inkscape:window-maximized="0"
   inkscape:current-layer="svg296" />







































<g
   id="Layer_40_1_">
	<g
   id="g296">
		<path
   fill="none"
   stroke="#6EBB1F"
   stroke-linecap="round"
   stroke-linejoin="round"
   stroke-miterlimit="10"
   d="M19.3,13    c0-2.9-2-5.4-4.7-6.1c0-0.1,0-0.1,0-0.2c0-0.9-0.7-1.6-1.6-1.6c-0.9,0-1.6,0.7-1.6,1.6c0,0.1,0,0.1,0,0.2C8.7,7.6,6.7,10.1,6.7,13    c0,2.9,2,5.4,4.7,6.1c0,0.1,0,0.1,0,0.2c0,0.9,0.7,1.6,1.6,1.6c0.9,0,1.6-0.7,1.6-1.6c0-0.1,0-0.1,0-0.2    C17.3,18.4,19.3,15.9,19.3,13z"
   id="path293" />
		
			<line
   fill="none"
   stroke="#6EBB1F"
   stroke-linecap="round"
   stroke-linejoin="round"
   stroke-miterlimit="10"
   x1="16.3"
   y1="11.5"
   x2="16.3"
   y2="11.5"
   id="line294" />
		
			<line
   fill="none"
   stroke="#6EBB1F"
   stroke-linecap="round"
   stroke-linejoin="round"
   stroke-miterlimit="10"
   x1="14.8"
   y1="9.9"
   x2="14.8"
   y2="9.9"
   id="line295" />
		
			<line
   fill="none"
   stroke="#6EBB1F"
   stroke-linecap="round"
   stroke-linejoin="round"
   stroke-miterlimit="10"
   x1="14.4"
   y1="12.1"
   x2="14.4"
   y2="12.1"
   id="line296" />
	</g>
</g>
</svg>
