<svg viewBox="0 0 26 26" xmlns="http://www.w3.org/2000/svg"><g id="raisin">
<g>
<path d="M13,6.5    c-0.7-0.6-1.5-1-2.3-1C10,5.5,9.4,5.7,8.8,6C8.4,6.4,7.9,6.9,7.5,7.4C7.2,7.9,6.9,8.5,6.6,9.2c-0.2,0.6-0.4,1.2-0.5,1.9    C6.1,11.7,6,12.3,6,13c0,0.7,0.1,1.3,0.2,1.9c0.1,0.7,0.3,1.3,0.5,1.9c0.2,0.6,0.5,1.2,0.9,1.7c0.4,0.6,0.8,1.1,1.3,1.4    c0.6,0.4,1.2,0.6,1.8,0.6c0.9,0,1.6-0.4,2.3-1" fill="none" stroke="#4B0805" stroke-linecap="round" stroke-linejoin="round" stroke-miterlimit="10"/>
<path d="M15.2,15    c-0.1,0.6-0.2,1.1-0.4,1.6c-0.2,0.6-0.4,1.1-0.7,1.5c-0.3,0.5-0.7,1-1,1.3" fill="none" stroke="#4B0805" stroke-linecap="round" stroke-linejoin="round" stroke-miterlimit="10"/>
<path d="M13,6.5    c0.3,0.3,0.7,0.7,0.9,1.2" fill="none" stroke="#4B0805" stroke-linecap="round" stroke-linejoin="round" stroke-miterlimit="10"/>
<path d="M13,6.5    c0.7-0.6,1.5-1,2.3-1c0.6,0,1.3,0.2,1.8,0.6c0.5,0.3,0.9,0.8,1.3,1.4c0.3,0.5,0.6,1.1,0.9,1.7c0.2,0.6,0.4,1.2,0.5,1.9    c0.1,0.6,0.2,1.3,0.2,1.9c0,0.7-0.1,1.3-0.2,1.9c-0.1,0.7-0.3,1.3-0.5,1.9c-0.2,0.6-0.5,1.2-0.9,1.7c-0.4,0.6-0.8,1.1-1.3,1.4    c-0.6,0.4-1.2,0.6-1.8,0.6c-0.9,0-1.6-0.4-2.3-1" fill="none" stroke="#4B0805" stroke-linecap="round" stroke-linejoin="round" stroke-miterlimit="10"/>
<path d="M9.4,18.1    c0-0.8-0.4-0.8-0.4-1.6s0.4-0.8,0.4-1.6c0-0.8-0.4-0.8-0.4-1.6c0-0.8,0.4-0.8,0.4-1.6S9,10.9,9,10.1" fill="none" stroke="#4B0805" stroke-linecap="round" stroke-linejoin="round" stroke-miterlimit="10"/>
<path d="M11.3,15.9    c0-0.8,0.4-0.8,0.4-1.6s-0.4-0.8-0.4-1.6c0-0.8,0.4-0.8,0.4-1.6c0-0.8-0.4-0.8-0.4-1.6c0-0.8,0.4-0.8,0.4-1.6" fill="none" stroke="#4B0805" stroke-linecap="round" stroke-linejoin="round" stroke-miterlimit="10"/>
<ellipse cx="10.7" cy="13" fill="none" rx="4.7" ry="7.5" stroke="#4B0805" stroke-linecap="round" stroke-linejoin="round" stroke-miterlimit="10"/>
</g>
</g></svg>