<svg viewBox="0 0 26 26" xmlns="http://www.w3.org/2000/svg"><g id="lemon">
<g>
<path d="M19.1,10.9    c0-2.9-2-5.3-4.6-5.9c0-0.1,0-0.1,0-0.2c0-0.8-0.7-1.5-1.5-1.5c-0.8,0-1.5,0.7-1.5,1.5c0,0.1,0,0.1,0,0.2C8.8,5.6,6.9,8,6.9,10.9    v4.1h0c0,0,0,0,0,0c0,2.9,2,5.3,4.6,5.9c0,0.1,0,0.1,0,0.2c0,0.8,0.7,1.5,1.5,1.5c0.8,0,1.5-0.7,1.5-1.5c0-0.1,0-0.1,0-0.2    c2.6-0.7,4.6-3.1,4.6-5.9c0,0,0,0,0,0h0V10.9z" fill="none" stroke="#EFE80F" stroke-linecap="round" stroke-linejoin="round" stroke-miterlimit="10"/>
<line fill="none" stroke="#EFE80F" stroke-linecap="round" stroke-linejoin="round" stroke-miterlimit="10" x1="16.2" x2="16.2" y1="9.4" y2="9.4"/>
<line fill="none" stroke="#EFE80F" stroke-linecap="round" stroke-linejoin="round" stroke-miterlimit="10" x1="14.7" x2="14.7" y1="7.9" y2="7.9"/>
<line fill="none" stroke="#EFE80F" stroke-linecap="round" stroke-linejoin="round" stroke-miterlimit="10" x1="14.3" x2="14.4" y1="10" y2="10"/>
</g>
</g></svg>