<svg viewBox="0 0 26 26" xmlns="http://www.w3.org/2000/svg"><g fill="none" stroke="#b9d80f" stroke-linecap="round" stroke-linejoin="round" stroke-miterlimit="10"><path d="m20.9 14.1c-.2-2.7-2.5-4.9-5.3-4.9-1 0-1.9.3-2.6.7-.8-.4-1.7-.7-2.6-.7-2.8 0-5.1 2.2-5.3 4.9-.2 1.2-.1 2.7.3 4.3.2.9.5 1.7.8 2.5.4.8.7 1.6 1.2 2.1.5.6 1.3.9 2.1 1.1.3.1.6.1 1 .1 1 0 1.9-.3 2.6-.9.7.5 1.6.9 2.6.9.3 0 .7-.1 1-.1.8-.2 1.6-.5 2.1-1.1.5-.5.8-1.3 1.2-2.1.3-.7.6-1.6.8-2.5.2-1.5.3-3.1.1-4.3z"/><path d="m17.8 6c1.6-1.7 1.2-4.2 1.2-4.3s-2.5-.3-4.3 1.2c-.1.1-.4.4-.5.5-1.5 1.8-1.2 4.3-1.2 4.3s2.5.3 4.3-1.2c.1 0 .5-.4.5-.5z"/><path d="m9.7 5.1c2.8 0 3.3 2.7 3.3 2.7v2.2"/></g></svg>