<?xml version="1.0" encoding="UTF-8" standalone="no"?>
<!-- Generator: Adobe Illustrator 19.1.0, SVG Export Plug-In . SVG Version: 6.00 Build 0)  -->

<svg
   version="1.2"
   x="0px"
   y="0px"
   viewBox="0 0 26 26"
   xml:space="preserve"
   id="svg284"
   sodipodi:docname="chard.svg"
   inkscape:version="1.4 (e7c3feb1, 2024-10-09)"
   xmlns:inkscape="http://www.inkscape.org/namespaces/inkscape"
   xmlns:sodipodi="http://sodipodi.sourceforge.net/DTD/sodipodi-0.dtd"
   xmlns="http://www.w3.org/2000/svg"
   xmlns:svg="http://www.w3.org/2000/svg"><defs
   id="defs284" /><sodipodi:namedview
   id="namedview284"
   pagecolor="#ffffff"
   bordercolor="#000000"
   borderopacity="0.25"
   inkscape:showpageshadow="2"
   inkscape:pageopacity="0.0"
   inkscape:pagecheckerboard="0"
   inkscape:deskcolor="#d1d1d1"
   inkscape:zoom="38.807692"
   inkscape:cx="13"
   inkscape:cy="13"
   inkscape:window-width="1200"
   inkscape:window-height="1186"
   inkscape:window-x="0"
   inkscape:window-y="25"
   inkscape:window-maximized="0"
   inkscape:current-layer="svg284" />




































<g
   id="Layer_37">
	<g
   id="g284">
		<polygon
   fill="none"
   stroke="#95D164"
   stroke-miterlimit="10"
   points="16.2,3.8 14.2,6.4 13,16.8 11.8,6.4 9.8,3.8 11.8,4 13,1.6     14.2,4   "
   id="polygon280" />
		<polygon
   fill="none"
   stroke="#95D164"
   stroke-miterlimit="10"
   points="9.8,3 10.2,6.2 11.1,16.8 8.5,8 5.3,7.6 6.8,6.3 5.9,3.7     8.5,4.6   "
   id="polygon281" />
		<polygon
   fill="none"
   stroke="#95D164"
   stroke-miterlimit="10"
   points="20.7,7.6 17.5,8 14.9,16.8 15.8,6.3 16.2,3 17.5,4.6     20.1,3.7 19.2,6.3   "
   id="polygon282" />
		<path
   fill="none"
   stroke="#95D164"
   stroke-miterlimit="10"
   d="M17.2,21.2c0,0.7-0.2,1.4-0.7,2c-0.6,0.6-1.7,1.3-3.5,1.3    s-2.8-0.6-3.5-1.3c-0.5-0.5-0.8-1.2-0.7-2l2.3-4.4h3.8L17.2,21.2z"
   id="path282" />
		<path
   fill="none"
   stroke="#95D164"
   stroke-miterlimit="10"
   d="M11.9,17.1l-1,4.4c0,0-0.2,2.9,2,2.9"
   id="path283" />
		<path
   fill="none"
   stroke="#95D164"
   stroke-miterlimit="10"
   d="M14.1,17.1l1,4.4c0,0,0.2,2.9-2,2.9"
   id="path284" />
	</g>
</g>
</svg>
