<svg viewBox="0 0 26 26" xmlns="http://www.w3.org/2000/svg"><g fill="none" stroke="#ffeb76" stroke-linecap="round" stroke-linejoin="round" stroke-miterlimit="10"><path d="m13 11.6c.2 0 .4 0 .5.1.1-.2.2-.4.3-.6.5-1.4 1.1-3.2 1.1-4.4 0-2.4-1.2-2.7-1.9-2.7s-1.9.3-1.9 2.7c0 1.2.6 3 1.1 4.4.1.2.2.4.3.6.1-.1.3-.1.5-.1z"/><path d="m13 14.4c-.2 0-.4 0-.5-.1-.1.2-.2.4-.3.6-.5 1.4-1.1 3.2-1.1 4.4 0 2.4 1.2 2.7 1.9 2.7s1.9-.3 1.9-2.7c0-1.2-.6-3-1.1-4.4-.1-.2-.2-.4-.3-.6-.1.1-.3.1-.5.1z"/><path d="m11.6 13c0-.2 0-.4.1-.5-.2-.1-.4-.2-.6-.3-1.4-.5-3.2-1.1-4.4-1.1-2.4 0-2.7 1.2-2.7 1.9s.3 1.9 2.7 1.9c1.2 0 3-.6 4.4-1.1.2-.1.4-.2.6-.3-.1-.1-.1-.3-.1-.5z"/><path d="m22 13c0-.7-.3-1.9-2.7-1.9-1.2 0-3 .6-4.4 1.1-.2.1-.4.2-.6.3.1.2.1.3.1.5s0 .4-.1.5c.2.1.4.2.6.3 1.4.5 3.2 1.1 4.4 1.1 2.4 0 2.7-1.2 2.7-1.9z"/><path d="m12.4 11.7c-.1-.2-.2-.4-.2-.6-.6-1.4-1.5-3.1-2.3-3.9-1.7-1.7-2.8-1-3.3-.5-.5.4-1.1 1.5.6 3.2.8.8 2.6 1.7 3.9 2.3.2.1.4.2.6.2.1-.3.4-.6.7-.7z"/><path d="m13.6 14.3c.1.2.2.4.2.6.6 1.4 1.5 3.1 2.3 3.9 1.7 1.7 2.8 1 3.3.5s1.1-1.6-.5-3.3c-.8-.8-2.6-1.7-3.9-2.3-.2-.1-.4-.2-.6-.2-.2.4-.5.7-.8.8z"/><path d="m11.7 13.6c-.2.1-.4.2-.6.2-1.4.6-3.1 1.5-3.9 2.3-1.7 1.7-1 2.8-.5 3.3s1.6 1.1 3.3-.5c.8-.8 1.7-2.6 2.3-3.9.1-.2.2-.4.2-.6-.4-.2-.7-.5-.8-.8z"/><path d="m14.3 12.4c.2-.1.4-.2.6-.2 1.4-.6 3.1-1.5 3.9-2.3 1.7-1.7 1-2.8.5-3.3s-1.6-1.1-3.3.5c-.8.8-1.7 2.6-2.3 3.9-.1.2-.2.4-.2.6.4.2.7.5.8.8z"/></g></svg>