<?xml version="1.0" encoding="UTF-8" standalone="no"?>
<!-- Generator: Adobe Illustrator 19.1.0, SVG Export Plug-In . SVG Version: 6.00 Build 0)  -->

<svg
   version="1.2"
   x="0px"
   y="0px"
   viewBox="0 0 26 26"
   xml:space="preserve"
   id="svg75"
   sodipodi:docname="licorice.svg"
   inkscape:version="1.4 (e7c3feb1, 2024-10-09)"
   xmlns:inkscape="http://www.inkscape.org/namespaces/inkscape"
   xmlns:sodipodi="http://sodipodi.sourceforge.net/DTD/sodipodi-0.dtd"
   xmlns="http://www.w3.org/2000/svg"
   xmlns:svg="http://www.w3.org/2000/svg"><defs
   id="defs75" /><sodipodi:namedview
   id="namedview75"
   pagecolor="#ffffff"
   bordercolor="#000000"
   borderopacity="0.25"
   inkscape:showpageshadow="2"
   inkscape:pageopacity="0.0"
   inkscape:pagecheckerboard="0"
   inkscape:deskcolor="#d1d1d1"
   inkscape:zoom="38.807692"
   inkscape:cx="13"
   inkscape:cy="13"
   inkscape:window-width="1200"
   inkscape:window-height="1186"
   inkscape:window-x="0"
   inkscape:window-y="25"
   inkscape:window-maximized="0"
   inkscape:current-layer="svg75" />




<g
   id="anise_1_">
	<g
   id="g75">
		<path
   fill="none"
   stroke="#070606"
   stroke-linecap="round"
   stroke-linejoin="round"
   stroke-miterlimit="10"
   d="M10.5,23.5    c3.8-7.1,2.3-16.4,2.3-16.4"
   id="path66" />
		<path
   fill="none"
   stroke="#070606"
   stroke-linecap="round"
   stroke-linejoin="round"
   stroke-miterlimit="10"
   d="M15.7,9.5    c-0.6,1.1-1.6,2.7-2.5,3.6"
   id="path67" />
		<path
   fill="none"
   stroke="#070606"
   stroke-linecap="round"
   stroke-linejoin="round"
   stroke-miterlimit="10"
   d="M17.1,15.5    c-1,1.3-2.5,2.7-4.7,3.3"
   id="path68" />
		<path
   fill="none"
   stroke="#070606"
   stroke-linecap="round"
   stroke-linejoin="round"
   stroke-miterlimit="10"
   d="M10.3,11.3    c0,0,0.6,3.2,2.3,5"
   id="path69" />
		<path
   fill="none"
   stroke="#070606"
   stroke-linecap="round"
   stroke-linejoin="round"
   stroke-miterlimit="10"
   d="M7.7,17.3    c0.7,2.4,2.1,3.6,3.4,4.9"
   id="path70" />
		<path
   fill="none"
   stroke="#070606"
   stroke-linecap="round"
   stroke-linejoin="round"
   stroke-miterlimit="10"
   d="M8.5,12.8    c-0.2,0-0.4,0.1-0.6,0.2c-0.2-0.1-0.4-0.2-0.6-0.2c-0.6,0-1.1,0.4-1.2,1c0,0.2-0.1,0.9-0.1,1.1c0,0.4,0.2,0.8,0.5,1v0.3    c0,0.6,0.4,1.1,1,1.2c0.2,0,0.4-0.1,0.6-0.2c0.3-0.2,0.5-0.5,0.6-0.9V16c0.4-0.2,0.7-0.5,0.7-0.9c0-0.2,0.1-0.9,0.1-1.1    C9.6,13.3,9.1,12.8,8.5,12.8z"
   id="path71" />
		<path
   fill="none"
   stroke="#070606"
   stroke-linecap="round"
   stroke-linejoin="round"
   stroke-miterlimit="10"
   d="M19.1,11.2    c-0.2-0.1-0.4,0-0.6,0.1c-0.1-0.2-0.3-0.3-0.5-0.3c-0.6-0.1-1.2,0.2-1.3,0.8c0,0.2-0.2,0.9-0.3,1.1c-0.1,0.4,0.1,0.8,0.3,1.1    l-0.1,0.3c-0.1,0.6,0.2,1.2,0.8,1.3c0.2,0.1,0.4,0,0.6-0.1c0.3-0.1,0.6-0.4,0.7-0.8l0-0.3c0.4-0.1,0.7-0.4,0.8-0.8    c0-0.2,0.2-0.9,0.3-1.1C20.1,11.9,19.7,11.3,19.1,11.2z"
   id="path72" />
		<path
   fill="none"
   stroke="#070606"
   stroke-linecap="round"
   stroke-linejoin="round"
   stroke-miterlimit="10"
   d="M18.2,5.6    c-0.2-0.1-0.4-0.1-0.6-0.1c-0.1-0.2-0.3-0.3-0.5-0.4c-0.6-0.2-1.2,0-1.5,0.6c-0.1,0.2-0.4,0.8-0.4,1c-0.2,0.4-0.1,0.8,0.2,1.1    l-0.1,0.3c-0.2,0.6,0,1.2,0.6,1.5c0.2,0.1,0.4,0.1,0.6,0.1c0.3-0.1,0.7-0.3,0.8-0.6l0.1-0.3c0.4,0,0.8-0.3,1-0.7    c0.1-0.2,0.4-0.8,0.4-1C19,6.5,18.7,5.9,18.2,5.6z"
   id="path73" />
		<path
   fill="none"
   stroke="#070606"
   stroke-linecap="round"
   stroke-linejoin="round"
   stroke-miterlimit="10"
   d="M9.1,6.8    C8.9,6.9,8.8,7.1,8.6,7.2c-0.2,0-0.4-0.1-0.6,0C7.4,7.5,7.2,8.2,7.4,8.7c0.1,0.2,0.3,0.8,0.4,1c0.2,0.4,0.5,0.6,0.9,0.7l0.1,0.3    c0.2,0.6,0.9,0.8,1.4,0.6c0.2-0.1,0.4-0.2,0.5-0.4c0.2-0.3,0.3-0.7,0.1-1l-0.1-0.2C11,9.3,11.1,8.9,11,8.5c-0.1-0.2-0.3-0.8-0.4-1    C10.3,6.9,9.7,6.6,9.1,6.8z"
   id="path74" />
		<path
   fill="none"
   stroke="#070606"
   stroke-linecap="round"
   stroke-linejoin="round"
   stroke-miterlimit="10"
   d="M12.8,2.5    c-0.2,0-0.4,0.1-0.6,0.3c-0.2-0.1-0.4-0.2-0.6-0.1c-0.6,0.1-1,0.6-1,1.2c0,0.2,0.1,0.9,0.1,1.1c0.1,0.4,0.3,0.7,0.7,0.9l0.1,0.3    c0.1,0.6,0.6,1,1.2,1c0.2,0,0.4-0.1,0.6-0.3c0.3-0.2,0.4-0.6,0.4-1l-0.1-0.3C14,5.4,14.2,5,14.1,4.6c0-0.2-0.1-0.9-0.1-1.1    C13.9,2.9,13.4,2.4,12.8,2.5z"
   id="path75" />
	</g>
</g>
</svg>
