<?xml version="1.0" encoding="UTF-8" standalone="no"?>
<!-- Generator: Adobe Illustrator 19.1.0, SVG Export Plug-In . SVG Version: 6.00 Build 0)  -->

<svg
   version="1.2"
   x="0px"
   y="0px"
   viewBox="0 0 26 26"
   xml:space="preserve"
   id="svg558"
   sodipodi:docname="fig.svg"
   inkscape:version="1.4 (e7c3feb1, 2024-10-09)"
   xmlns:inkscape="http://www.inkscape.org/namespaces/inkscape"
   xmlns:sodipodi="http://sodipodi.sourceforge.net/DTD/sodipodi-0.dtd"
   xmlns="http://www.w3.org/2000/svg"
   xmlns:svg="http://www.w3.org/2000/svg"><defs
   id="defs558" /><sodipodi:namedview
   id="namedview558"
   pagecolor="#ffffff"
   bordercolor="#000000"
   borderopacity="0.25"
   inkscape:showpageshadow="2"
   inkscape:pageopacity="0.0"
   inkscape:pagecheckerboard="0"
   inkscape:deskcolor="#d1d1d1"
   inkscape:zoom="38.807692"
   inkscape:cx="13"
   inkscape:cy="13"
   inkscape:window-width="1200"
   inkscape:window-height="1186"
   inkscape:window-x="0"
   inkscape:window-y="25"
   inkscape:window-maximized="0"
   inkscape:current-layer="svg558" />
















































































<g
   id="Layer_81"
   style="display:inline">
	<g
   id="g558">
		<path
   fill="none"
   stroke="#5f003c"
   stroke-linecap="round"
   stroke-linejoin="round"
   stroke-miterlimit="10"
   d="m 9.7,3.1 c 2.8,0 3.3,2.7 3.3,2.7 V 8"
   id="path548" />
		<path
   fill="none"
   stroke="#5f003c"
   stroke-linecap="round"
   stroke-linejoin="round"
   stroke-miterlimit="10"
   d="m 20.5,17 c 0,3.7 -3.4,5.9 -7.5,5.9 -4.1,0 -7.5,-2.2 -7.5,-5.9 0,-3.7 7.5,-9.1 7.5,-9.1 0,0 7.5,5.5 7.5,9.1 z"
   id="path549" />
		<path
   fill="none"
   stroke="#5f003c"
   stroke-linecap="round"
   stroke-linejoin="round"
   stroke-miterlimit="10"
   d="m 13,21.3 c -4.1,0 -5.9,-2.2 -5.9,-4.5 0,-2.2 3.9,-5.6 5.9,-7.1 2,1.5 5.9,4.9 5.9,7.1 0,2.3 -1.8,4.5 -5.9,4.5 z"
   id="path550" />
		
			<line
   fill="none"
   stroke="#5f003c"
   stroke-linecap="round"
   stroke-linejoin="round"
   stroke-miterlimit="10"
   x1="13"
   y1="12.7"
   x2="13"
   y2="13.7"
   id="line550" />
		
			<line
   fill="none"
   stroke="#5f003c"
   stroke-linecap="round"
   stroke-linejoin="round"
   stroke-miterlimit="10"
   x1="13"
   y1="15.7"
   x2="13"
   y2="16.700001"
   id="line551" />
		
			<line
   fill="none"
   stroke="#5f003c"
   stroke-linecap="round"
   stroke-linejoin="round"
   stroke-miterlimit="10"
   x1="13"
   y1="18.700001"
   x2="13"
   y2="19.700001"
   id="line552" />
		
			<line
   fill="none"
   stroke="#5f003c"
   stroke-linecap="round"
   stroke-linejoin="round"
   stroke-miterlimit="10"
   x1="11"
   y1="14.7"
   x2="11"
   y2="15.7"
   id="line553" />
		
			<line
   fill="none"
   stroke="#5f003c"
   stroke-linecap="round"
   stroke-linejoin="round"
   stroke-miterlimit="10"
   x1="11"
   y1="17.700001"
   x2="11"
   y2="18.700001"
   id="line554" />
		
			<line
   fill="none"
   stroke="#5f003c"
   stroke-linecap="round"
   stroke-linejoin="round"
   stroke-miterlimit="10"
   x1="15"
   y1="14.7"
   x2="15"
   y2="15.7"
   id="line555" />
		
			<line
   fill="none"
   stroke="#5f003c"
   stroke-linecap="round"
   stroke-linejoin="round"
   stroke-miterlimit="10"
   x1="15"
   y1="17.700001"
   x2="15"
   y2="18.700001"
   id="line556" />
		
			<line
   fill="none"
   stroke="#5f003c"
   stroke-linecap="round"
   stroke-linejoin="round"
   stroke-miterlimit="10"
   x1="17"
   y1="15.7"
   x2="17"
   y2="16.700001"
   id="line557" />
		
			<line
   fill="none"
   stroke="#5f003c"
   stroke-linecap="round"
   stroke-linejoin="round"
   stroke-miterlimit="10"
   x1="9"
   y1="15.7"
   x2="9"
   y2="16.700001"
   id="line558" />
	</g>
</g>
</svg>
