<?xml version="1.0" encoding="UTF-8" standalone="no"?>
<!-- Generator: Adobe Illustrator 19.1.0, SVG Export Plug-In . SVG Version: 6.00 Build 0)  -->

<svg
   version="1.2"
   x="0px"
   y="0px"
   viewBox="0 0 26 26"
   xml:space="preserve"
   id="svg302"
   sodipodi:docname="lime zest.svg"
   inkscape:version="1.4 (e7c3feb1, 2024-10-09)"
   xmlns:inkscape="http://www.inkscape.org/namespaces/inkscape"
   xmlns:sodipodi="http://sodipodi.sourceforge.net/DTD/sodipodi-0.dtd"
   xmlns="http://www.w3.org/2000/svg"
   xmlns:svg="http://www.w3.org/2000/svg"><defs
   id="defs302" /><sodipodi:namedview
   id="namedview302"
   pagecolor="#ffffff"
   bordercolor="#000000"
   borderopacity="0.25"
   inkscape:showpageshadow="2"
   inkscape:pageopacity="0.0"
   inkscape:pagecheckerboard="0"
   inkscape:deskcolor="#d1d1d1"
   inkscape:zoom="38.807692"
   inkscape:cx="13"
   inkscape:cy="13"
   inkscape:window-width="1200"
   inkscape:window-height="1186"
   inkscape:window-x="0"
   inkscape:window-y="25"
   inkscape:window-maximized="0"
   inkscape:current-layer="svg302" />








































<g
   id="Layer_41">
	<g
   id="g302">
		
			<line
   fill="none"
   stroke="#6EBB1F"
   stroke-linecap="round"
   stroke-linejoin="round"
   stroke-miterlimit="10"
   x1="15.8"
   y1="12.3"
   x2="15.8"
   y2="12.3"
   id="line297" />
		
			<line
   fill="none"
   stroke="#6EBB1F"
   stroke-linecap="round"
   stroke-linejoin="round"
   stroke-miterlimit="10"
   x1="17.1"
   y1="11"
   x2="17.1"
   y2="11"
   id="line298" />
		
			<line
   fill="none"
   stroke="#6EBB1F"
   stroke-linecap="round"
   stroke-linejoin="round"
   stroke-miterlimit="10"
   x1="15.2"
   y1="10.7"
   x2="15.2"
   y2="10.7"
   id="line299" />
		<path
   fill="none"
   stroke="#6EBB1F"
   stroke-linecap="round"
   stroke-linejoin="round"
   stroke-miterlimit="10"
   d="M18.2,14.5    c0,0-2.9-0.7-5.6-1.8c-1.1,0.5-2.8,1.4-4.1,2.6c0,0,0.9,1.8,2.2,2.6C10.7,17.8,16.9,15.4,18.2,14.5z"
   id="path299" />
		<path
   fill="none"
   stroke="#6EBB1F"
   stroke-linecap="round"
   stroke-linejoin="round"
   stroke-miterlimit="10"
   d="M16.6,6.3L15.4,3    c-5.3-0.8-6.7,0.8-7,1.6c0.2,0.2,1.4,1.3,4.7,3C14.5,6.7,16.6,6.3,16.6,6.3z"
   id="path300" />
		<path
   fill="none"
   stroke="#6EBB1F"
   stroke-linecap="round"
   stroke-linejoin="round"
   stroke-miterlimit="10"
   d="M18.5,14    c1.1-2,0.9-3.5,0.9-3.5c-2.7-1.1-4.8-2-6.4-2.9c-3.2-1.7-4.4-2.8-4.7-3c0,0,0,0,0,0C7.2,7.1,8.1,10,8.1,10c0.7,1,2.5,1.9,4.4,2.7    c2.7,1.1,5.6,1.8,5.6,1.8C18.4,14.3,18.5,14.2,18.5,14z"
   id="path301" />
		<path
   fill="none"
   stroke="#6EBB1F"
   stroke-linecap="round"
   stroke-linejoin="round"
   stroke-miterlimit="10"
   d="M14.1,19.5    c0,0-4.8-1.3-5.6-4.3c0,0-1.5,3,1.6,7l2.3,0.8C12.4,23,12.4,21.3,14.1,19.5z"
   id="path302" />
	</g>
</g>
</svg>
