<?xml version="1.0" encoding="UTF-8" standalone="no"?>
<!-- Generator: Adobe Illustrator 19.1.0, SVG Export Plug-In . SVG Version: 6.00 Build 0)  -->

<svg
   version="1.2"
   x="0px"
   y="0px"
   viewBox="0 0 26 26"
   xml:space="preserve"
   id="svg525"
   sodipodi:docname="dried_fruit.svg"
   inkscape:version="1.4 (e7c3feb1, 2024-10-09)"
   xmlns:inkscape="http://www.inkscape.org/namespaces/inkscape"
   xmlns:sodipodi="http://sodipodi.sourceforge.net/DTD/sodipodi-0.dtd"
   xmlns="http://www.w3.org/2000/svg"
   xmlns:svg="http://www.w3.org/2000/svg"><defs
   id="defs525" /><sodipodi:namedview
   id="namedview525"
   pagecolor="#ffffff"
   bordercolor="#000000"
   borderopacity="0.25"
   inkscape:showpageshadow="2"
   inkscape:pageopacity="0.0"
   inkscape:pagecheckerboard="0"
   inkscape:deskcolor="#d1d1d1"
   inkscape:zoom="38.807692"
   inkscape:cx="13"
   inkscape:cy="13"
   inkscape:window-width="1200"
   inkscape:window-height="1186"
   inkscape:window-x="0"
   inkscape:window-y="25"
   inkscape:window-maximized="0"
   inkscape:current-layer="svg525" />











































































<g
   id="Layer_76">
	<g
   id="g525">
		<path
   fill="none"
   stroke="#450022"
   stroke-linecap="round"
   stroke-linejoin="round"
   stroke-miterlimit="10"
   d="M18,22.5H8    c-1.1,0-2-0.9-2-2v-13"
   id="path521" />
		<path
   fill="none"
   stroke="#450022"
   stroke-linecap="round"
   stroke-linejoin="round"
   stroke-miterlimit="10"
   d="M18,22.5    c1.1,0,2-0.9,2-2v-13"
   id="path522" />
		<path
   fill="none"
   stroke="#450022"
   stroke-linecap="round"
   stroke-linejoin="round"
   stroke-miterlimit="10"
   d="M20.5,4.5    c0,0.6-0.5,1-1.1,1H6.6c-0.6,0-1.1-0.4-1.1-1c0-0.6,0.5-1,1.1-1h12.9C20,3.5,20.5,3.9,20.5,4.5z"
   id="path523" />
		
			<rect
   x="7.8"
   y="10.7"
   fill="none"
   stroke="#450022"
   stroke-linecap="round"
   stroke-linejoin="round"
   stroke-miterlimit="10"
   width="10.5"
   height="7.6"
   id="rect523" />
		<path
   fill="none"
   stroke="#450022"
   stroke-linecap="round"
   stroke-linejoin="round"
   stroke-miterlimit="10"
   d="M5.5,7.2    c1.9,0,1.9,0.6,3.7,0.6c1.9,0,1.9-0.6,3.7-0.6c1.9,0,1.9,0.6,3.7,0.6c1.9,0,1.9-0.6,3.7-0.6"
   id="path524" />
		
			<line
   fill="none"
   stroke="#450022"
   stroke-linecap="round"
   stroke-linejoin="round"
   stroke-miterlimit="10"
   x1="5.5"
   y1="7.2"
   x2="6.1"
   y2="5.4"
   id="line524" />
		
			<line
   fill="none"
   stroke="#450022"
   stroke-linecap="round"
   stroke-linejoin="round"
   stroke-miterlimit="10"
   x1="20.5"
   y1="7.2"
   x2="19.9"
   y2="5.4"
   id="line525" />
	</g>
</g>
</svg>
