<?xml version="1.0" encoding="UTF-8" standalone="no"?>
<!-- Generator: Adobe Illustrator 19.1.0, SVG Export Plug-In . SVG Version: 6.00 Build 0)  -->

<svg
   version="1.2"
   x="0px"
   y="0px"
   viewBox="0 0 26 26"
   xml:space="preserve"
   id="svg413"
   sodipodi:docname="guava.svg"
   inkscape:version="1.4 (e7c3feb1, 2024-10-09)"
   xmlns:inkscape="http://www.inkscape.org/namespaces/inkscape"
   xmlns:sodipodi="http://sodipodi.sourceforge.net/DTD/sodipodi-0.dtd"
   xmlns="http://www.w3.org/2000/svg"
   xmlns:svg="http://www.w3.org/2000/svg"><defs
   id="defs413" /><sodipodi:namedview
   id="namedview413"
   pagecolor="#ffffff"
   bordercolor="#000000"
   borderopacity="0.25"
   inkscape:showpageshadow="2"
   inkscape:pageopacity="0.0"
   inkscape:pagecheckerboard="0"
   inkscape:deskcolor="#d1d1d1"
   inkscape:zoom="38.807692"
   inkscape:cx="13"
   inkscape:cy="13"
   inkscape:window-width="1200"
   inkscape:window-height="1186"
   inkscape:window-x="0"
   inkscape:window-y="25"
   inkscape:window-maximized="0"
   inkscape:current-layer="svg413" />




























































<g
   id="Layer_61">
	
		<line
   fill="none"
   stroke="#60B524"
   stroke-linecap="round"
   stroke-linejoin="round"
   stroke-miterlimit="10"
   x1="13.9"
   y1="14"
   x2="13.9"
   y2="13.9"
   id="line408" />
	
		<line
   fill="none"
   stroke="#60B524"
   stroke-linecap="round"
   stroke-linejoin="round"
   stroke-miterlimit="10"
   x1="12.5"
   y1="12.4"
   x2="12.5"
   y2="12.4"
   id="line409" />
	
		<line
   fill="none"
   stroke="#60B524"
   stroke-linecap="round"
   stroke-linejoin="round"
   stroke-miterlimit="10"
   x1="12.1"
   y1="14.6"
   x2="12.1"
   y2="14.6"
   id="line410" />
	
		<line
   fill="none"
   stroke="#60B524"
   stroke-linecap="round"
   stroke-linejoin="round"
   stroke-miterlimit="10"
   x1="12.5"
   y1="17.1"
   x2="12.5"
   y2="17.1"
   id="line411" />
	
		<line
   fill="none"
   stroke="#60B524"
   stroke-linecap="round"
   stroke-linejoin="round"
   stroke-miterlimit="10"
   x1="13.5"
   y1="15.6"
   x2="13.5"
   y2="15.6"
   id="line412" />
	<path
   fill="none"
   stroke="#60B524"
   stroke-linecap="round"
   stroke-linejoin="round"
   stroke-miterlimit="10"
   d="M15.6,14.8   c0-2.1-1-3.9-2.6-5c-1.6,1.1-2.6,2.9-2.6,5c0,2.1,1,3.9,2.6,5C14.6,18.6,15.6,16.8,15.6,14.8z"
   id="path412" />
	<path
   fill="none"
   stroke="#60B524"
   stroke-linecap="round"
   stroke-linejoin="round"
   stroke-miterlimit="10"
   d="M15.9,5.9   C15.4,4.8,14.4,4,13.1,4c-1.3-0.1-2.5,0.6-3,1.8C9.4,6.9,10,8.2,9.2,9.4c-1.1,1.7-2.1,3.1-2.3,5.2c-0.1,1.8,0.3,3.6,1.4,5   c2.1,2.7,5.9,3.2,8.4,0.9c3.3-2.9,2.9-8.1-0.1-11.2C15.9,8.2,16.5,7.1,15.9,5.9z"
   id="path413" />
</g>
</svg>
