<svg viewBox="0 0 26 26" xmlns="http://www.w3.org/2000/svg"><g fill="none" stroke="#f9263b" stroke-linecap="round" stroke-linejoin="round" stroke-miterlimit="10"><path d="m5.4 9.8c-.2 0-1 .1-1.2 0-.3-.3 0-1.7.1-2 .2-1.1.7-2.1 1.6-2.8s2-1.1 3.1-1.2c.2 0 1-.2 1.2 0 .3.3 0 1.7-.1 2-.2 1-.8 2.1-1.6 2.8-.6.5-1.9 1-3.1 1.2z"/><path d="m20.9 15.3c-.5-.5-1.2-.7-1.9-.7-.6 0-1.2.2-1.7.6-.1 0-.1.1-.2.1-.1.1-.2.1-.4.1-.1 0-.3-.1-.4-.1s-.1-.1-.2-.1c-.5-.4-1.1-.6-1.7-.6s-1.1.2-1.5.5c.1.1.3.2.4.3.6.5.9 1.2.9 2.1v.5c0 1.1-.5 2.1-1.3 2.9.9.9 2.3 1.5 3.8 1.5 2.8 0 5-2 5-4.4v-.5c.1-.9-.2-1.7-.8-2.2z"/><path d="m13.4 15.3c-.1-.1-.2-.2-.4-.3-.4-.3-1-.5-1.5-.5-.6 0-1.2.2-1.7.6-.1 0-.1.1-.2.1-.1.1-.2.1-.4.1-.1 0-.3-.1-.4-.1s-.1-.1-.2-.1c-.5-.4-1.1-.6-1.7-.6-.7 0-1.3.3-1.8.7-.6.5-1 1.3-1 2.1v.5c0 2.4 2.3 4.4 5 4.4 1.5 0 2.9-.6 3.8-1.5.8-.8 1.3-1.8 1.3-2.9v-.5c.1-.7-.3-1.5-.8-2z"/><path d="m9.3 14.6s2-3.2 2.4-10.7c0 0 5 4.4 5 10.7"/></g></svg>