<?xml version="1.0" encoding="UTF-8" standalone="no"?>
<!-- Generator: Adobe Illustrator 19.1.0, SVG Export Plug-In . SVG Version: 6.00 Build 0)  -->

<svg
   version="1.2"
   x="0px"
   y="0px"
   viewBox="0 0 26 26"
   xml:space="preserve"
   id="svg337"
   sodipodi:docname="pear.svg"
   inkscape:version="1.4 (e7c3feb1, 2024-10-09)"
   xmlns:inkscape="http://www.inkscape.org/namespaces/inkscape"
   xmlns:sodipodi="http://sodipodi.sourceforge.net/DTD/sodipodi-0.dtd"
   xmlns="http://www.w3.org/2000/svg"
   xmlns:svg="http://www.w3.org/2000/svg"><defs
   id="defs337" /><sodipodi:namedview
   id="namedview337"
   pagecolor="#ffffff"
   bordercolor="#000000"
   borderopacity="0.25"
   inkscape:showpageshadow="2"
   inkscape:pageopacity="0.0"
   inkscape:pagecheckerboard="0"
   inkscape:deskcolor="#d1d1d1"
   inkscape:zoom="38.807692"
   inkscape:cx="13"
   inkscape:cy="13"
   inkscape:window-width="1200"
   inkscape:window-height="1186"
   inkscape:window-x="0"
   inkscape:window-y="25"
   inkscape:window-maximized="0"
   inkscape:current-layer="svg337" />














































<g
   id="green_pear"
   display="inline">
	<path
   display="inline"
   fill="none"
   stroke="#b9d80f"
   stroke-linecap="round"
   stroke-linejoin="round"
   stroke-miterlimit="10"
   d="m 17.7,6.3 c 0.7,-0.8 1.1,-1.7 1.3,-2.8 0,-0.3 0.3,-1.6 0.1,-1.8 -0.3,-0.3 -1.5,0 -1.8,0.1 -1,0.2 -2,0.6 -2.8,1.3 -0.7,0.7 -1.2,1.8 -1.3,2.8 -0.1,0.3 -0.3,1.6 -0.1,1.8 0.2,0.2 1.4,0 1.7,0 1.1,-0.2 2,-0.7 2.9,-1.4 z"
   id="path332" />
	<path
   display="inline"
   fill="none"
   stroke="#b9d80f"
   stroke-linecap="round"
   stroke-linejoin="round"
   stroke-miterlimit="10"
   d="m 9.7,5.1 c 2.8,0 3.3,2.7 3.3,2.7 V 10"
   id="path333" />
	<path
   display="inline"
   fill="none"
   stroke="#b9d80f"
   stroke-linecap="round"
   stroke-linejoin="round"
   stroke-miterlimit="10"
   d="M 18.8,18.5 C 18.3,16.7 16.3,15.8 16.2,14 16.1,12.6 16,11.4 14.7,10.5 13.3,9.6 11.5,9.9 10.4,11.2 c -1,1.2 -0.3,2.4 -0.9,3.7 -0.4,0.9 -1.3,1.4 -1.8,2.2 -0.5,0.8 -0.8,1.7 -0.7,2.7 0.1,1.8 1.5,3.3 3.1,4 3.7,1.5 9.7,-0.7 8.7,-5.3 0,-0.1 0.1,0.3 0,0 z"
   id="path334" />
</g>

</svg>
