<?xml version="1.0" encoding="UTF-8" standalone="no"?>
<!-- Generator: Adobe Illustrator 19.1.0, SVG Export Plug-In . SVG Version: 6.00 Build 0)  -->

<svg
   version="1.2"
   x="0px"
   y="0px"
   viewBox="0 0 26 26"
   xml:space="preserve"
   id="svg423"
   sodipodi:docname="passion fruit.svg"
   inkscape:version="1.4 (e7c3feb1, 2024-10-09)"
   xmlns:inkscape="http://www.inkscape.org/namespaces/inkscape"
   xmlns:sodipodi="http://sodipodi.sourceforge.net/DTD/sodipodi-0.dtd"
   xmlns="http://www.w3.org/2000/svg"
   xmlns:svg="http://www.w3.org/2000/svg"><defs
   id="defs423" /><sodipodi:namedview
   id="namedview423"
   pagecolor="#ffffff"
   bordercolor="#000000"
   borderopacity="0.25"
   inkscape:showpageshadow="2"
   inkscape:pageopacity="0.0"
   inkscape:pagecheckerboard="0"
   inkscape:deskcolor="#d1d1d1"
   inkscape:zoom="38.807692"
   inkscape:cx="13"
   inkscape:cy="13"
   inkscape:window-width="1200"
   inkscape:window-height="1186"
   inkscape:window-x="0"
   inkscape:window-y="25"
   inkscape:window-maximized="0"
   inkscape:current-layer="svg423" />






























































<g
   id="Layer_63">
	<g
   id="g423">
		
			<line
   fill="none"
   stroke="#C51083"
   stroke-linecap="round"
   stroke-linejoin="round"
   stroke-miterlimit="10"
   x1="10.2"
   y1="5.9"
   x2="10.2"
   y2="4.1"
   id="line416" />
		<path
   fill="none"
   stroke="#C51083"
   stroke-miterlimit="10"
   d="M11.3,15.9c0-3.3,2.7-6,6-6c0.1,0,0.3,0,0.4,0c-1.4-2.4-4-4.1-7-4.1    c-4.4,0-8,3.6-8,8c0,4.4,3.6,8,8,8c1.2,0,2.4-0.3,3.5-0.8C12.5,20,11.3,18.1,11.3,15.9z"
   id="path417" />
		<path
   fill="none"
   stroke="#C51083"
   stroke-miterlimit="10"
   d="M17.7,9.9c-0.1,0-0.3,0-0.4,0c-3.3,0-6,2.7-6,6    c0,2.2,1.2,4.1,2.9,5.1c0.9,0.6,2,0.9,3.1,0.9c3.3,0,6-2.7,6-6C23.3,12.7,20.8,10.1,17.7,9.9z"
   id="path418" />
		
			<circle
   fill="none"
   stroke="#C51083"
   stroke-linecap="round"
   stroke-linejoin="round"
   stroke-miterlimit="10"
   cx="17.3"
   cy="15.9"
   r="1"
   id="circle418" />
		
			<circle
   fill="none"
   stroke="#C51083"
   stroke-linecap="round"
   stroke-linejoin="round"
   stroke-miterlimit="10"
   cx="17.3"
   cy="17.9"
   r="1"
   id="circle419" />
		
			<circle
   fill="none"
   stroke="#C51083"
   stroke-linecap="round"
   stroke-linejoin="round"
   stroke-miterlimit="10"
   cx="17.3"
   cy="13.9"
   r="1"
   id="circle420" />
		
			<circle
   fill="none"
   stroke="#C51083"
   stroke-linecap="round"
   stroke-linejoin="round"
   stroke-miterlimit="10"
   cx="19.1"
   cy="16.7"
   r="1"
   id="circle421" />
		
			<circle
   fill="none"
   stroke="#C51083"
   stroke-linecap="round"
   stroke-linejoin="round"
   stroke-miterlimit="10"
   cx="15.5"
   cy="15"
   r="1"
   id="circle422" />
		
			<circle
   fill="none"
   stroke="#C51083"
   stroke-linecap="round"
   stroke-linejoin="round"
   stroke-miterlimit="10"
   cx="18.8"
   cy="15"
   r="0.8"
   id="circle423" />
		<path
   fill="none"
   stroke="#C51083"
   stroke-linecap="round"
   stroke-linejoin="round"
   stroke-miterlimit="10"
   d="M15.2,16.2    c0.4-0.3,0.9-0.2,1.1,0.2c0.3,0.4,0.2,0.9-0.2,1.1c-0.4,0.3-0.9,0.2-1.1-0.2C14.8,17,14.9,16.5,15.2,16.2z"
   id="path423" />
	</g>
</g>
</svg>
