<?xml version="1.0" encoding="UTF-8" standalone="no"?>
<!-- Generator: Adobe Illustrator 19.1.0, SVG Export Plug-In . SVG Version: 6.00 Build 0)  -->

<svg
   version="1.2"
   x="0px"
   y="0px"
   viewBox="0 0 26 26"
   xml:space="preserve"
   id="svg122"
   sodipodi:docname="savory.svg"
   inkscape:version="1.4 (e7c3feb1, 2024-10-09)"
   xmlns:inkscape="http://www.inkscape.org/namespaces/inkscape"
   xmlns:sodipodi="http://sodipodi.sourceforge.net/DTD/sodipodi-0.dtd"
   xmlns="http://www.w3.org/2000/svg"
   xmlns:svg="http://www.w3.org/2000/svg"><defs
   id="defs122" /><sodipodi:namedview
   id="namedview122"
   pagecolor="#ffffff"
   bordercolor="#000000"
   borderopacity="0.25"
   inkscape:showpageshadow="2"
   inkscape:pageopacity="0.0"
   inkscape:pagecheckerboard="0"
   inkscape:deskcolor="#d1d1d1"
   inkscape:zoom="38.807692"
   inkscape:cx="13"
   inkscape:cy="13"
   inkscape:window-width="1200"
   inkscape:window-height="1186"
   inkscape:window-x="0"
   inkscape:window-y="25"
   inkscape:window-maximized="0"
   inkscape:current-layer="svg122" />











<g
   id="pepper_white">
	<path
   fill="none"
   stroke="#807F7B"
   stroke-linecap="round"
   stroke-linejoin="round"
   stroke-miterlimit="10"
   d="M15.7,17.7   c-1.3-3.6-1.3-3.9-0.2-4.9c0,0-0.1-0.9-0.9-0.9l-0.1-0.4c1-0.5,1.7-1.6,1.7-2.8c0-1.8-1.5-3.2-3.2-3.2c-1.8,0-3.2,1.4-3.2,3.2   c0,1.2,0.7,2.3,1.7,2.8l-0.1,0.4c-0.8,0-0.9,0.9-0.9,0.9c1,1,1.1,1.3-0.2,4.9c-1.3,3.6,0,5.7,0,5.7H13h2.7   C15.7,23.3,17,21.2,15.7,17.7z"
   id="path122" />
</g>
</svg>
