<?xml version="1.0" encoding="UTF-8" standalone="no"?>
<!-- Generator: Adobe Illustrator 19.1.0, SVG Export Plug-In . SVG Version: 6.00 Build 0)  -->

<svg
   version="1.2"
   x="0px"
   y="0px"
   viewBox="0 0 26 26"
   xml:space="preserve"
   id="svg477"
   sodipodi:docname="red currant.svg"
   inkscape:version="1.4 (e7c3feb1, 2024-10-09)"
   xmlns:inkscape="http://www.inkscape.org/namespaces/inkscape"
   xmlns:sodipodi="http://sodipodi.sourceforge.net/DTD/sodipodi-0.dtd"
   xmlns="http://www.w3.org/2000/svg"
   xmlns:svg="http://www.w3.org/2000/svg"><defs
   id="defs477" /><sodipodi:namedview
   id="namedview477"
   pagecolor="#ffffff"
   bordercolor="#000000"
   borderopacity="0.25"
   inkscape:showpageshadow="2"
   inkscape:pageopacity="0.0"
   inkscape:pagecheckerboard="0"
   inkscape:deskcolor="#d1d1d1"
   inkscape:zoom="38.807692"
   inkscape:cx="13"
   inkscape:cy="13"
   inkscape:window-width="1200"
   inkscape:window-height="1186"
   inkscape:window-x="0"
   inkscape:window-y="25"
   inkscape:window-maximized="0"
   inkscape:current-layer="svg477" />







































































<g
   id="Layer_72">
	<g
   id="g477">
		<path
   fill="none"
   stroke="#F5072E"
   stroke-linecap="round"
   stroke-linejoin="round"
   stroke-miterlimit="10"
   d="M12.7,14.2    c0.2,0,0.4,0.1,0.6,0.1c0.2-0.4,0.5-0.7,0.8-1c1-1,2.3-1.5,3.6-1.5c1.1-1.9,0.9-4.4-0.8-6.1c-2-2-5.1-2-7.1,0    c-1.7,1.7-1.9,4.2-0.7,6.1C10.6,12,11.9,12.9,12.7,14.2z"
   id="path467" />
		<path
   fill="none"
   stroke="#F5072E"
   stroke-linecap="round"
   stroke-linejoin="round"
   stroke-miterlimit="10"
   d="M13,14.8    c-0.1-0.2-0.2-0.4-0.3-0.6c-0.8-1.3-2.1-2.1-3.6-2.4c-0.2,0-0.4-0.1-0.7-0.1c-2.8,0-5,2.2-5,5c0,2.8,2.2,5,5,5    c2.1,0,3.8-1.3,4.6-3.1C12.5,17.5,12.5,16.1,13,14.8z"
   id="path468" />
		<path
   fill="none"
   stroke="#F5072E"
   stroke-linecap="round"
   stroke-linejoin="round"
   stroke-miterlimit="10"
   d="M21.1,13.2    c-1-1-2.2-1.5-3.5-1.5c-1.3,0-2.6,0.5-3.6,1.5c-0.3,0.3-0.6,0.7-0.8,1c-0.1,0.2-0.2,0.4-0.3,0.6c-0.5,1.2-0.5,2.7,0,3.9    c0.2,0.6,0.6,1.1,1.1,1.6c2,2,5.1,2,7.1,0C23.1,18.3,23.1,15.2,21.1,13.2z"
   id="path469" />
		
			<line
   fill="none"
   stroke="#F5072E"
   stroke-linecap="round"
   stroke-linejoin="round"
   stroke-miterlimit="10"
   x1="18"
   y1="17.2"
   x2="19.5"
   y2="18.7"
   id="line469" />
		
			<line
   fill="none"
   stroke="#F5072E"
   stroke-linecap="round"
   stroke-linejoin="round"
   stroke-miterlimit="10"
   x1="18"
   y1="17.2"
   x2="18"
   y2="18.7"
   id="line470" />
		
			<line
   fill="none"
   stroke="#F5072E"
   stroke-linecap="round"
   stroke-linejoin="round"
   stroke-miterlimit="10"
   x1="18"
   y1="17.2"
   x2="19.5"
   y2="17.2"
   id="line471" />
		
			<line
   fill="none"
   stroke="#F5072E"
   stroke-linecap="round"
   stroke-linejoin="round"
   stroke-miterlimit="10"
   x1="8.2"
   y1="17.2"
   x2="6.7"
   y2="18.7"
   id="line472" />
		
			<line
   fill="none"
   stroke="#F5072E"
   stroke-linecap="round"
   stroke-linejoin="round"
   stroke-miterlimit="10"
   x1="8.2"
   y1="17.2"
   x2="8.2"
   y2="18.7"
   id="line473" />
		
			<line
   fill="none"
   stroke="#F5072E"
   stroke-linecap="round"
   stroke-linejoin="round"
   stroke-miterlimit="10"
   x1="8.2"
   y1="17.2"
   x2="6.7"
   y2="17.2"
   id="line474" />
		
			<line
   fill="none"
   stroke="#F5072E"
   stroke-linecap="round"
   stroke-linejoin="round"
   stroke-miterlimit="10"
   x1="12.8"
   y1="9.2"
   x2="11.3"
   y2="10.7"
   id="line475" />
		
			<line
   fill="none"
   stroke="#F5072E"
   stroke-linecap="round"
   stroke-linejoin="round"
   stroke-miterlimit="10"
   x1="12.8"
   y1="9.2"
   x2="12.8"
   y2="10.7"
   id="line476" />
		
			<line
   fill="none"
   stroke="#F5072E"
   stroke-linecap="round"
   stroke-linejoin="round"
   stroke-miterlimit="10"
   x1="12.8"
   y1="9.2"
   x2="11.3"
   y2="9.2"
   id="line477" />
	</g>
</g>
</svg>
