<?xml version="1.0" encoding="UTF-8" standalone="no"?>
<!-- Generator: Adobe Illustrator 19.1.0, SVG Export Plug-In . SVG Version: 6.00 Build 0)  -->

<svg
   version="1.2"
   x="0px"
   y="0px"
   viewBox="0 0 26 26"
   xml:space="preserve"
   id="svg174"
   sodipodi:docname="honeysuckle.svg"
   inkscape:version="1.4 (e7c3feb1, 2024-10-09)"
   xmlns:inkscape="http://www.inkscape.org/namespaces/inkscape"
   xmlns:sodipodi="http://sodipodi.sourceforge.net/DTD/sodipodi-0.dtd"
   xmlns="http://www.w3.org/2000/svg"
   xmlns:svg="http://www.w3.org/2000/svg"><defs
   id="defs174" /><sodipodi:namedview
   id="namedview174"
   pagecolor="#ffffff"
   bordercolor="#000000"
   borderopacity="0.25"
   inkscape:showpageshadow="2"
   inkscape:pageopacity="0.0"
   inkscape:pagecheckerboard="0"
   inkscape:deskcolor="#d1d1d1"
   inkscape:zoom="38.807692"
   inkscape:cx="13"
   inkscape:cy="13"
   inkscape:window-width="1200"
   inkscape:window-height="1186"
   inkscape:window-x="0"
   inkscape:window-y="25"
   inkscape:window-maximized="0"
   inkscape:current-layer="svg174" />



















<g
   id="Layer_20">
	<g
   id="g174">
		<path
   fill="none"
   stroke="#EFE745"
   stroke-linecap="round"
   stroke-linejoin="round"
   stroke-miterlimit="10"
   d="M6.7,18.6    c0,0-0.6,2.5-0.6,4.3"
   id="path168" />
		<path
   fill="none"
   stroke="#EFE745"
   stroke-linecap="round"
   stroke-linejoin="round"
   stroke-miterlimit="10"
   d="M11.7,4.7    c-0.5-0.3-1-0.4-1.7-0.4c0,0-1.3,0.1-1.6,0.9c0,0.1,0,0.2,0,0.3c0,0,0,0.1,0,0.1c0,0.1,0,0.1,0.1,0.2c0,0,0,0.1,0.1,0.1    C8.7,6.1,9,6.2,9.2,6.3c0.1,0,0.6,0.2,0.6,0.2c0,0-1.5-0.2-2.1,0.7c0,0,0,0,0,0C7.6,7.4,7.6,7.6,7.6,7.7c0,0.1,0,0.2,0,0.3    C7.7,8.3,8,8.6,8.3,8.7c0.1,0,0.2,0.1,0.2,0.1C8.9,8.8,9.2,9,9.4,9.3c0.4,0.7,0.4,1.9-0.5,3.2c-0.6,0.7-1.1,1.4-1.5,2    c-0.5,0.8-0.8,1.5-0.9,2.1c-0.1,0.3-0.1,0.6,0,0.9c0.1,0.4,0.2,0.7,0.5,1.1c0,0,0.4-1.4,2.1-3.6c0.4-0.5,0.8-1,1.4-1.6    c0.2-0.2,0.3-0.3,0.5-0.5c0.6-0.6,1.2-1.4,1.5-2.1C13.5,8.3,13.3,5.7,11.7,4.7z"
   id="path169" />
		<path
   fill="none"
   stroke="#EFE745"
   stroke-linecap="round"
   stroke-linejoin="round"
   stroke-miterlimit="10"
   d="M11.7,11.8    c1.3-0.6,3.8-0.8,5.6,1c1.8,1.8,0.6,3.6,0.6,3.6"
   id="path170" />
		<path
   fill="none"
   stroke="#EFE745"
   stroke-linecap="round"
   stroke-linejoin="round"
   stroke-miterlimit="10"
   d="M21.6,6.7    c0,0,0.9,3-2.6,3.7c-3.4,0.6-5.2-0.9-7.1,1"
   id="path171" />
		<path
   fill="none"
   stroke="#EFE745"
   stroke-linecap="round"
   stroke-linejoin="round"
   stroke-miterlimit="10"
   d="M17.2,4.9    c0,0,1.3,2.2,0.7,3.2c-1.3,2.1-3.3,0-5.8,3.2"
   id="path172" />
		
			<circle
   fill="none"
   stroke="#EFE745"
   stroke-linecap="round"
   stroke-linejoin="round"
   stroke-miterlimit="10"
   cx="17.2"
   cy="4.9"
   r="0.3"
   id="circle172" />
		
			<circle
   fill="none"
   stroke="#EFE745"
   stroke-linecap="round"
   stroke-linejoin="round"
   stroke-miterlimit="10"
   cx="21.7"
   cy="6.8"
   r="0.3"
   id="circle173" />
		
			<circle
   fill="none"
   stroke="#EFE745"
   stroke-linecap="round"
   stroke-linejoin="round"
   stroke-miterlimit="10"
   cx="17.9"
   cy="16.5"
   r="0.3"
   id="circle174" />
		<path
   fill="none"
   stroke="#EFE745"
   stroke-linecap="round"
   stroke-linejoin="round"
   stroke-miterlimit="10"
   d="M10,4.2    c0.7,0,1.2,0.2,1.7,0.4C11.1,3.9,10.3,3.3,9,3.1C9,3.1,7.4,3,6.9,4C6.8,4.2,6.8,4.4,6.9,4.6h0l0.1,0.9L6.4,5.8l0,0    C6.3,5.9,6.2,6,6.1,6.1C6,6.3,6,6.6,6.1,6.8C6.3,7.2,6.7,7.5,7,7.6c0.1,0,0.2,0.1,0.3,0.1l0.3,0l0,0c0-0.2,0-0.3,0.2-0.5    c0,0,0,0,0,0c0.6-0.9,2.1-0.7,2.1-0.7C9.8,6.4,9.3,6.3,9.2,6.3C9,6.2,8.7,6.1,8.6,5.9c0,0,0-0.1-0.1-0.1c0-0.1-0.1-0.1-0.1-0.2    c0,0,0-0.1,0-0.1c0-0.1,0-0.2,0-0.3C8.7,4.3,10,4.2,10,4.2z"
   id="path174" />
	</g>
</g>
</svg>
