<?xml version="1.0" encoding="UTF-8" standalone="no"?>
<!-- Generator: Adobe Illustrator 19.1.0, SVG Export Plug-In . SVG Version: 6.00 Build 0)  -->

<svg
   version="1.2"
   x="0px"
   y="0px"
   viewBox="0 0 26 26"
   xml:space="preserve"
   id="svg645"
   sodipodi:docname="plastic.svg"
   inkscape:version="1.4 (e7c3feb1, 2024-10-09)"
   xmlns:inkscape="http://www.inkscape.org/namespaces/inkscape"
   xmlns:sodipodi="http://sodipodi.sourceforge.net/DTD/sodipodi-0.dtd"
   xmlns="http://www.w3.org/2000/svg"
   xmlns:svg="http://www.w3.org/2000/svg"><defs
   id="defs645" /><sodipodi:namedview
   id="namedview645"
   pagecolor="#ffffff"
   bordercolor="#000000"
   borderopacity="0.25"
   inkscape:showpageshadow="2"
   inkscape:pageopacity="0.0"
   inkscape:pagecheckerboard="0"
   inkscape:deskcolor="#d1d1d1"
   inkscape:zoom="38.807692"
   inkscape:cx="13"
   inkscape:cy="13"
   inkscape:window-width="1200"
   inkscape:window-height="1186"
   inkscape:window-x="0"
   inkscape:window-y="25"
   inkscape:window-maximized="0"
   inkscape:current-layer="svg645" />







































































































<g
   id="Layer_104">
	<path
   fill="none"
   stroke="#070606"
   stroke-linecap="round"
   stroke-linejoin="round"
   stroke-miterlimit="10"
   d="M7.9,18.1   c-1-1-1.7-1.9-2-3.1c-0.3-1.3-2-3-1.7-4.3c0.3-1.2,3-1.5,4-2.4c1-1,1.9-1.3,3.1-1.6c1.3-0.3,2.4-1.1,3.7-0.8   c1.2,0.3,2.2,1.2,3.2,2.2c1,1,3.4,1.6,3.7,2.8c0.3,1.3-0.1,3.4-0.4,4.6C21,16.7,19.6,18,18.7,19c-1,1-3.1-0.7-4.3-0.4   c-1.3,0.3-2.1,1.9-3.4,1.5C9.7,19.8,8.8,19.1,7.9,18.1z"
   id="path645" />
</g>
</svg>
