<?xml version="1.0" encoding="UTF-8" standalone="no"?>
<!-- Generator: Adobe Illustrator 19.1.0, SVG Export Plug-In . SVG Version: 6.00 Build 0)  -->

<svg
   version="1.2"
   x="0px"
   y="0px"
   viewBox="0 0 26 26"
   xml:space="preserve"
   id="svg340"
   sodipodi:docname="green apple.svg"
   inkscape:version="1.4 (e7c3feb1, 2024-10-09)"
   xmlns:inkscape="http://www.inkscape.org/namespaces/inkscape"
   xmlns:sodipodi="http://sodipodi.sourceforge.net/DTD/sodipodi-0.dtd"
   xmlns="http://www.w3.org/2000/svg"
   xmlns:svg="http://www.w3.org/2000/svg"><defs
   id="defs340" /><sodipodi:namedview
   id="namedview340"
   pagecolor="#ffffff"
   bordercolor="#000000"
   borderopacity="0.25"
   inkscape:showpageshadow="2"
   inkscape:pageopacity="0.0"
   inkscape:pagecheckerboard="0"
   inkscape:deskcolor="#d1d1d1"
   inkscape:zoom="38.807692"
   inkscape:cx="13"
   inkscape:cy="13"
   inkscape:window-width="1200"
   inkscape:window-height="1186"
   inkscape:window-x="0"
   inkscape:window-y="25"
   inkscape:window-maximized="0"
   inkscape:current-layer="svg340" />
















































<g
   id="red_apple">
	<g
   id="g340">
		<path
   fill="none"
   stroke="#B9D80F"
   stroke-linecap="round"
   stroke-linejoin="round"
   stroke-miterlimit="10"
   d="M20.9,14.1    c-0.2-2.7-2.5-4.9-5.3-4.9c-1,0-1.9,0.3-2.6,0.7c-0.8-0.4-1.7-0.7-2.6-0.7c-2.8,0-5.1,2.2-5.3,4.9c-0.2,1.2-0.1,2.7,0.3,4.3    c0.2,0.9,0.5,1.7,0.8,2.5c0.4,0.8,0.7,1.6,1.2,2.1c0.5,0.6,1.3,0.9,2.1,1.1c0.3,0.1,0.6,0.1,1,0.1c1,0,1.9-0.3,2.6-0.9    c0.7,0.5,1.6,0.9,2.6,0.9c0.3,0,0.7-0.1,1-0.1c0.8-0.2,1.6-0.5,2.1-1.1c0.5-0.5,0.8-1.3,1.2-2.1c0.3-0.7,0.6-1.6,0.8-2.5    C21,16.9,21.1,15.3,20.9,14.1z"
   id="path338" />
		<path
   fill="none"
   stroke="#B9D80F"
   stroke-linecap="round"
   stroke-linejoin="round"
   stroke-miterlimit="10"
   d="M17.8,6    C19.4,4.3,19,1.8,19,1.7v0h0c0,0-2.5-0.3-4.3,1.2c-0.1,0.1-0.4,0.4-0.5,0.5C12.7,5.2,13,7.7,13,7.7v0h0c0,0,2.5,0.3,4.3-1.2    C17.4,6.5,17.8,6.1,17.8,6z"
   id="path339" />
		<path
   fill="none"
   stroke="#B9D80F"
   stroke-linecap="round"
   stroke-linejoin="round"
   stroke-miterlimit="10"
   d="M9.7,5.1    c2.8,0,3.3,2.7,3.3,2.7v2.2"
   id="path340" />
	</g>
</g>
</svg>
